SplineFontDB: 3.0
FontName: Boon-500i
FullName: Boon 500 Oblique
FamilyName: Boon
Weight: 500
Copyright: Copyright 2013-2015, Sungsit Sawaiwan (https://fontuni.com | uni@fontuni.com). This Font Software is licensed under the SIL Open Font License, Version 1.1 (http://scripts.sil.org/OFL).
Version: 1.0-beta1
ItalicAngle: -12
UnderlinePosition: -120
UnderlineWidth: 60
Ascent: 960
Descent: 240
InvalidEm: 0
UFOAscent: 960
UFODescent: -240
LayerCount: 2
Layer: 0 0 "Back" 1
Layer: 1 0 "Fore" 0
StyleMap: 0x0000
FSType: 0
OS2Version: 0
OS2_WeightWidthSlopeOnly: 0
OS2_UseTypoMetrics: 0
CreationTime: 1369324892
ModificationTime: 1444829156
PfmFamily: 33
TTFWeight: 500
TTFWidth: 5
LineGap: 90
VLineGap: 0
Panose: 2 0 2 3 0 0 0 0 0 0
OS2TypoAscent: 960
OS2TypoAOffset: 0
OS2TypoDescent: -240
OS2TypoDOffset: 0
OS2TypoLinegap: 90
OS2WinAscent: 1320
OS2WinAOffset: 0
OS2WinDescent: 480
OS2WinDOffset: 0
HheadAscent: 1320
HheadAOffset: 0
HheadDescent: -480
HheadDOffset: 0
OS2SubXSize: 780
OS2SubYSize: 840
OS2SubXOff: 0
OS2SubYOff: 180
OS2SupXSize: 780
OS2SupYSize: 840
OS2SupXOff: 0
OS2SupYOff: 600
OS2StrikeYSize: 60
OS2StrikeYPos: 300
OS2CapHeight: 780
OS2XHeight: 600
OS2Vendor: 'FUni'
OS2CodePages: 00010000.00000000
OS2UnicodeRanges: 81000003.1000200a.00000000.00000000
Lookup: 1 0 0 "ThaiRC.rd" { "ThaiRC.rd subtable"  } ['ss01' ('thai' <'dflt' > ) 'salt' ('thai' <'dflt' > ) 'ccmp' ('thai' <'PAL ' 'SAN ' > ) 'locl' ('thai' <'PAL ' 'SAN ' > ) ]
Lookup: 6 0 0 "ThaiContextRC.rd" { "ThaiContextRC.rd subtable"  } ['ccmp' ('thai' <'dflt' > ) ]
Lookup: 2 0 0 "ThaiDecomp" { "ThaiDecomp subtable"  } ['ccmp' ('thai' <'dflt' > ) ]
Lookup: 1 0 0 "ThaiT.0E4D" { "ThaiT.0E4D subtable"  } []
Lookup: 1 0 0 "Thai0E4D.0E48" { "Thai0E4D.0E48 subtable"  } []
Lookup: 1 0 0 "Thai0E4D.0E49" { "Thai0E4D.0E49 subtable"  } []
Lookup: 1 0 0 "Thai0E4D.0E4A" { "Thai0E4D.0E4A subtable"  } []
Lookup: 1 0 0 "Thai0E4D.0E4B" { "Thai0E4D.0E4B subtable"  } []

StartChar: .notdef
Encoding: 1114112 -1 0
GlifName: _notdef
Width: 660
VWidth: 0
Flags: HMW
LayerCount: 2
Fore
SplineSet
35 0 m 1
 163 600 l 1
 398 600 l 1
 633 600 l 1
 505 0 l 1
 270 0 l 1
 35 0 l 1
288 86 m 1
 416 86 l 1
 507 514 l 1
 379 514 l 1
 251 514 l 1
 160 86 l 1
 288 86 l 1
EndSplineSet
PickledDataWithLists: "(dp0
Vcom.fontlab.hintData
p1
(dp2
Vvhints
p3
(lp4
(dp5
Vposition
p6
L160L
sVwidth
p7
L10L
sa(dp8
g6
L190L
sg7
L10L
sa(dp9
g6
L520L
sg7
L10L
sa(dp10
g6
L550L
sg7
L10L
sasVhhints
p11
(lp12
(dp13
g6
L0L
sg7
L10L
sa(dp14
g6
L30L
sg7
L10L
sa(dp15
g6
L560L
sg7
L10L
sa(dp16
g6
L590L
sg7
L10L
sass."
EndChar

StartChar: exclam
Encoding: 33 33 5
GlifName: exclam
Width: 330
VWidth: 0
Flags: HMW
LayerCount: 2
Fore
SplineSet
136 144 m 0
 175 144 202 123 202 87 c 0
 202 82 201 76 200 70 c 0
 190 24 149 -4 104 -4 c 0
 65 -4 38 17 38 53 c 0
 38 58 39 64 40 70 c 0
 50 116 91 144 136 144 c 0
208 810 m 1
 346 810 l 1
 202 270 l 1
 122 270 l 1
 208 810 l 1
EndSplineSet
PickledDataWithLists: "(dp0
Vcom.fontlab.hintData
p1
(dp2
Vvhints
p3
(lp4
(dp5
Vposition
p6
L81L
sVwidth
p7
L10L
sa(dp8
g6
L101L
sg7
L10L
sa(dp9
g6
L125L
sg7
L10L
sa(dp10
g6
L195L
sg7
L10L
sa(dp11
g6
L210L
sg7
L10L
sa(dp12
g6
L239L
sg7
L10L
sasVhhints
p13
(lp14
(dp15
g6
L-5L
sg7
L10L
sa(dp16
g6
L122L
sg7
L10L
sa(dp17
g6
L268L
sg7
L10L
sa(dp18
g6
L826L
sg7
L10L
sass."
EndChar

StartChar: quotedbl
Encoding: 34 34 6
GlifName: quotedbl
Width: 540
VWidth: 0
Flags: HMW
LayerCount: 2
Fore
SplineSet
236 900 m 1
 346 900 l 1
 252 540 l 1
 179 540 l 1
 236 900 l 1
456 900 m 1
 566 900 l 1
 472 540 l 1
 399 540 l 1
 456 900 l 1
EndSplineSet
PickledDataWithLists: "(dp0
Vcom.fontlab.hintData
p1
(dp2
Vvhints
p3
(lp4
(dp5
Vposition
p6
L107L
sVwidth
p7
L10L
sa(dp8
g6
L196L
sg7
L10L
sa(dp9
g6
L304L
sg7
L10L
sa(dp10
g6
L313L
sg7
L10L
sa(dp11
g6
L393L
sg7
L10L
sasVhhints
p12
(lp13
(dp14
g6
L548L
sg7
L10L
sa(dp15
g6
L553L
sg7
L10L
sa(dp16
g6
L829L
sg7
L10L
sass."
EndChar

StartChar: numbersign
Encoding: 35 35 7
GlifName: numbersign
Width: 810
VWidth: 0
Flags: HMW
LayerCount: 2
Fore
SplineSet
34 206 m 1
 50 284 l 1
 186 284 l 1
 289 496 l 1
 155 496 l 1
 172 574 l 1
 327 574 l 1
 426 780 l 1
 519 780 l 1
 420 574 l 1
 614 574 l 1
 713 780 l 1
 806 780 l 1
 707 574 l 1
 822 574 l 1
 805 496 l 1
 669 496 l 1
 566 284 l 1
 700 284 l 1
 684 206 l 1
 529 206 l 1
 430 0 l 1
 337 0 l 1
 436 206 l 1
 242 206 l 1
 143 0 l 1
 50 0 l 1
 149 206 l 1
 34 206 l 1
382 496 m 1
 279 284 l 1
 473 284 l 1
 576 496 l 1
 382 496 l 1
EndSplineSet
PickledDataWithLists: "(dp0
Vcom.fontlab.hintData
p1
(dp2
Vvhints
p3
(lp4
(dp5
Vposition
p6
L111L
sVwidth
p7
L10L
sa(dp8
g6
L329L
sg7
L10L
sa(dp9
g6
L381L
sg7
L10L
sa(dp10
g6
L599L
sg7
L10L
sa(dp11
g6
L649L
sg7
L10L
sa(dp12
g6
L689L
sg7
L10L
sasVhhints
p13
(lp14
(dp15
g6
L-29L
sg7
L10L
sa(dp16
g6
L-19L
sg7
L10L
sa(dp17
g6
L241L
sg7
L7L
sa(dp18
g6
L284L
sg7
L10L
sa(dp19
g6
L521L
sg7
L7L
sa(dp20
g6
L564L
sg7
L10L
sa(dp21
g6
L819L
sg7
L10L
sa(dp22
g6
L829L
sg7
L10L
sass."
EndChar

StartChar: dollar
Encoding: 36 36 8
GlifName: dollar
Width: 660
VWidth: 0
Flags: HMW
LayerCount: 2
Fore
SplineSet
39 185 m 1
 158 192 l 1
 158 189 158 187 158 184 c 0
 158 123 202 72 286 72 c 0
 380 72 447 115 466 203 c 0
 468 214 469 223 469 232 c 0
 469 289 427 313 402 323 c 0
 354 339 287 368 241 388 c 0
 189 412 136 459 136 538 c 0
 136 552 138 566 141 581 c 0
 163 686 257 778 400 792 c 1
 423 900 l 1
 509 900 l 1
 486 791 l 1
 614 772 651 676 651 610 c 0
 651 606 651 603 651 600 c 1
 532 591 l 1
 532 594 532 597 532 600 c 0
 532 661 494 708 421 708 c 0
 348 708 276 668 258 581 c 0
 256 573 256 565 256 558 c 0
 256 507 296 485 328 471 c 0
 374 451 438 423 479 409 c 0
 538 388 589 343 589 258 c 0
 589 241 587 223 583 203 c 0
 561 98 467 4 315 -12 c 1
 292 -120 l 1
 206 -120 l 1
 229 -12 l 1
 83 3 39 104 39 174 c 0
 39 178 39 181 39 185 c 1
EndSplineSet
PickledDataWithLists: "(dp0
Vcom.fontlab.hintData
p1
(dp2
Vvhints
p3
(lp4
(dp5
Vposition
p6
L70L
sVwidth
p7
L10L
sa(dp8
g6
L78L
sg7
L10L
sa(dp9
g6
L169L
sg7
L10L
sa(dp10
g6
L319L
sg7
L10L
sa(dp11
g6
L323L
sg7
L10L
sa(dp12
g6
L382L
sg7
L10L
sa(dp13
g6
L392L
sg7
L10L
sa(dp14
g6
L504L
sg7
L10L
sa(dp15
g6
L565L
sg7
L10L
sa(dp16
g6
L604L
sg7
L10L
sa(dp17
g6
L664L
sg7
L10L
sasVhhints
p18
(lp19
(dp20
g6
L-127L
sg7
L10L
sa(dp21
g6
L46L
sg7
L10L
sa(dp22
g6
L192L
sg7
L10L
sa(dp23
g6
L584L
sg7
L10L
sa(dp24
g6
L812L
sg7
L10L
sa(dp25
g6
L916L
sg7
L10L
sass."
EndChar

StartChar: percent
Encoding: 37 37 9
GlifName: percent
Width: 780
VWidth: 0
Flags: HMW
LayerCount: 2
Fore
SplineSet
15 0 m 1
 16 6 l 1
 737 780 l 1
 811 780 l 1
 810 774 l 1
 89 0 l 1
 15 0 l 1
88 576 m 2
 92 594 l 2
 110 678 157 790 273 790 c 128
 356 790 379 733 379 670 c 0
 379 645 375 618 370 594 c 2
 366 576 l 2
 348 492 302 380 186 380 c 128
 103 380 79 437 79 501 c 0
 79 526 83 552 88 576 c 2
197 432 m 128
 235 432 274 480 294 576 c 2
 298 594 l 2
 304 621 306 645 306 664 c 0
 306 713 289 738 262 738 c 128
 224 738 184 690 164 594 c 2
 160 576 l 2
 154 550 152 526 152 507 c 0
 152 457 169 432 197 432 c 128
456 186 m 2
 459 204 l 2
 477 288 524 400 640 400 c 128
 723 400 746 343 746 280 c 0
 746 255 742 228 737 204 c 2
 734 186 l 2
 716 102 669 -10 553 -10 c 128
 470 -10 447 47 447 110 c 0
 447 135 451 162 456 186 c 2
564 42 m 128
 602 42 642 90 662 186 c 2
 665 204 l 2
 671 231 673 255 673 274 c 0
 673 323 656 348 629 348 c 128
 591 348 551 300 531 204 c 2
 528 186 l 2
 522 159 520 135 520 116 c 0
 520 67 537 42 564 42 c 128
EndSplineSet
PickledDataWithLists: "(dp0
Vcom.fontlab.hintData
p1
(dp2
Vvhints
p3
(lp4
(dp5
Vposition
p6
L50L
sVwidth
p7
L10L
sa(dp8
g6
L70L
sg7
L10L
sa(dp9
g6
L120L
sg7
L10L
sa(dp10
g6
L246L
sg7
L10L
sa(dp11
g6
L290L
sg7
L10L
sa(dp12
g6
L320L
sg7
L10L
sa(dp13
g6
L360L
sg7
L10L
sa(dp14
g6
L410L
sg7
L10L
sa(dp15
g6
L480L
sg7
L10L
sa(dp16
g6
L606L
sg7
L10L
sa(dp17
g6
L650L
sg7
L10L
sa(dp18
g6
L680L
sg7
L10L
sa(dp19
g6
L699L
sg7
L10L
sa(dp20
g6
L720L
sg7
L10L
sasVhhints
p21
(lp22
(dp23
g6
L-14L
sg7
L10L
sa(dp24
g6
L6L
sg7
L10L
sa(dp25
g6
L34L
sg7
L10L
sa(dp26
g6
L369L
sg7
L10L
sa(dp27
g6
L374L
sg7
L10L
sa(dp28
g6
L416L
sg7
L10L
sa(dp29
g6
L422L
sg7
L10L
sa(dp30
g6
L757L
sg7
L10L
sa(dp31
g6
L784L
sg7
L10L
sa(dp32
g6
L804L
sg7
L10L
sass."
EndChar

StartChar: ampersand
Encoding: 38 38 10
GlifName: ampersand
Width: 810
VWidth: 0
Flags: HMW
LayerCount: 2
Fore
SplineSet
621 153 m 1
 683 71 731 6 731 6 c 2
 730 0 l 1
 597 0 l 1
 597 0 573 33 538 81 c 1
 455 20 356 -19 249 -19 c 0
 103 -19 37 47 37 132 c 0
 37 145 38 158 41 171 c 0
 65 284 185 364 295 426 c 1
 270 472 250 527 250 581 c 0
 250 595 251 608 254 622 c 0
 278 735 368 799 473 799 c 0
 577 799 619 742 619 679 c 0
 619 669 618 658 616 647 c 0
 596 553 524 476 424 415 c 1
 460 365 517 291 571 219 c 1
 616 275 647 341 669 410 c 1
 766 396 l 1
 740 311 690 225 621 153 c 1
493 143 m 1
 440 217 376 304 335 364 c 1
 234 301 172 237 158 171 c 0
 156 162 155 154 155 146 c 0
 155 95 195 68 267 68 c 0
 356 68 431 97 493 143 c 1
456 722 m 0
 400 722 369 674 357 619 c 0
 355 610 354 600 354 590 c 0
 354 554 366 514 385 478 c 1
 459 528 504 589 516 647 c 0
 517 654 518 661 518 667 c 0
 518 703 494 722 456 722 c 0
EndSplineSet
PickledDataWithLists: "(dp0
Vcom.fontlab.hintData
p1
(dp2
Vvhints
p3
(lp4
(dp5
Vposition
p6
L66L
sVwidth
p7
L10L
sa(dp8
g6
L164L
sg7
L10L
sa(dp9
g6
L202L
sg7
L10L
sa(dp10
g6
L296L
sg7
L10L
sa(dp11
g6
L450L
sg7
L10L
sa(dp12
g6
L538L
sg7
L10L
sa(dp13
g6
L695L
sg7
L10L
sa(dp14
g6
L749L
sg7
L10L
sasVhhints
p15
(lp16
(dp17
g6
L-25L
sg7
L10L
sa(dp18
g6
L39L
sg7
L10L
sa(dp19
g6
L389L
sg7
L10L
sa(dp20
g6
L734L
sg7
L10L
sa(dp21
g6
L796L
sg7
L10L
sass."
EndChar

StartChar: quotesingle
Encoding: 39 39 11
GlifName: quotesingle
Width: 330
VWidth: 0
Flags: HMW
LayerCount: 2
Fore
SplineSet
241 900 m 1
 351 900 l 1
 257 540 l 1
 184 540 l 1
 241 900 l 1
EndSplineSet
PickledDataWithLists: "(dp0
Vcom.fontlab.hintData
p1
(dp2
Vvhints
p3
(lp4
(dp5
Vposition
p6
L110L
sVwidth
p7
L10L
sa(dp8
g6
L209L
sg7
L10L
sasVhhints
p9
(lp10
(dp11
g6
L544L
sg7
L10L
sa(dp12
g6
L832L
sg7
L10L
sass."
EndChar

StartChar: parenleft
Encoding: 40 40 12
GlifName: parenleft
Width: 390
VWidth: 0
Flags: HMW
LayerCount: 2
Fore
SplineSet
88 390 m 0
 135 611 247 785 383 911 c 1
 448 882 l 1
 326 764 236 599 192 390 c 0
 176 315 169 246 169 182 c 0
 169 69 193 -26 239 -102 c 1
 161 -131 l 1
 103 -43 68 70 68 205 c 0
 68 262 74 324 88 390 c 0
EndSplineSet
PickledDataWithLists: "(dp0
Vcom.fontlab.hintData
p1
(dp2
Vvhints
p3
(lp4
(dp5
Vposition
p6
L55L
sVwidth
p7
L10L
sa(dp8
g6
L135L
sg7
L10L
sa(dp9
g6
L270L
sg7
L10L
sasVhhints
p10
(lp11
(dp12
g6
L-112L
sg7
L10L
sa(dp13
g6
L882L
sg7
L10L
sass."
Substitution2: "Latin.subs subtable" parenleft.subs
Substitution2: "Latin.subs subtable" parenleft.subs
Substitution2: "Latin.sups subtable" parenleft.sups
Substitution2: "Latin.sups subtable" parenleft.sups
EndChar

StartChar: parenright
Encoding: 41 41 13
GlifName: parenright
Width: 390
VWidth: 0
Flags: HMW
LayerCount: 2
Fore
SplineSet
348 390 m 128
 301 169 189 -5 53 -131 c 1
 -13 -102 l 1
 109 16 200 181 244 390 c 128
 260 464 267 533 267 596 c 0
 267 710 242 806 196 882 c 1
 275 911 l 1
 333 823 368 710 368 575 c 0
 368 518 362 456 348 390 c 128
EndSplineSet
PickledDataWithLists: "(dp0
Vcom.fontlab.hintData
p1
(dp2
Vvhints
p3
(lp4
(dp5
Vposition
p6
L79L
sVwidth
p7
L10L
sa(dp8
g6
L215L
sg7
L10L
sa(dp9
g6
L295L
sg7
L10L
sasVhhints
p10
(lp11
(dp12
g6
L-112L
sg7
L10L
sa(dp13
g6
L882L
sg7
L10L
sass."
Substitution2: "Latin.subs subtable" parenright.subs
Substitution2: "Latin.subs subtable" parenright.subs
Substitution2: "Latin.sups subtable" parenright.sups
Substitution2: "Latin.sups subtable" parenright.sups
EndChar

StartChar: asterisk
Encoding: 42 42 14
GlifName: asterisk
Width: 570
VWidth: 0
Flags: HMW
LayerCount: 2
Fore
SplineSet
133 690 m 1
 183 785 l 1
 346 705 l 1
 366 900 l 1
 466 900 l 1
 404 705 l 1
 600 785 l 1
 611 690 l 1
 410 650 l 1
 511 504 l 1
 418 446 l 1
 356 616 l 1
 221 446 l 1
 153 504 l 1
 315 650 l 1
 133 690 l 1
EndSplineSet
PickledDataWithLists: "(dp0
Vcom.fontlab.hintData
p1
(dp2
Vvhints
p3
(lp4
(dp5
Vposition
p6
L84L
sVwidth
p7
L10L
sa(dp8
g6
L89L
sg7
L10L
sa(dp9
g6
L256L
sg7
L10L
sa(dp10
g6
L265L
sg7
L10L
sa(dp11
g6
L272L
sg7
L10L
sa(dp12
g6
L326L
sg7
L10L
sa(dp13
g6
L335L
sg7
L10L
sa(dp14
g6
L501L
sg7
L10L
sa(dp15
g6
L506L
sg7
L10L
sasVhhints
p16
(lp17
(dp18
g6
L392L
sg7
L10L
sa(dp19
g6
L488L
sg7
L10L
sa(dp20
g6
L495L
sg7
L10L
sa(dp21
g6
L735L
sg7
L10L
sa(dp22
g6
L742L
sg7
L10L
sa(dp23
g6
L839L
sg7
L10L
sass."
EndChar

StartChar: plus
Encoding: 43 43 15
GlifName: plus
Width: 600
VWidth: 0
Flags: HMW
LayerCount: 2
Fore
SplineSet
98 320 m 1
 115 400 l 1
 271 400 l 1
 305 560 l 1
 412 560 l 1
 378 400 l 1
 535 400 l 1
 518 320 l 1
 361 320 l 1
 327 160 l 1
 220 160 l 1
 254 320 l 1
 98 320 l 1
EndSplineSet
PickledDataWithLists: "(dp0
Vcom.fontlab.hintData
p1
(dp2
Vvhints
p3
(lp4
(dp5
Vposition
p6
L80L
sVwidth
p7
L10L
sa(dp8
g6
L250L
sg7
L10L
sa(dp9
g6
L259L
sg7
L10L
sa(dp10
g6
L340L
sg7
L10L
sa(dp11
g6
L510L
sg7
L10L
sasVhhints
p12
(lp13
(dp14
g6
L145L
sg7
L10L
sa(dp15
g6
L302L
sg7
L10L
sa(dp16
g6
L362L
sg7
L10L
sa(dp17
g6
L370L
sg7
L10L
sa(dp18
g6
L525L
sg7
L10L
sass."
EndChar

StartChar: comma
Encoding: 44 44 16
GlifName: comma
Width: 330
VWidth: 0
Flags: HMW
LayerCount: 2
Fore
SplineSet
39 68 m 0
 49 113 87 146 136 146 c 0
 190 146 211 110 211 66 c 0
 211 55 209 44 207 32 c 0
 184 -78 93 -157 17 -200 c 1
 -8 -153 l 1
 45 -123 97 -73 122 -2 c 1
 116 -3 108 -4 101 -4 c 0
 63 -4 37 17 37 52 c 0
 37 57 38 62 39 68 c 0
EndSplineSet
PickledDataWithLists: "(dp0
Vcom.fontlab.hintData
p1
(dp2
Vvhints
p3
(lp4
(dp5
Vposition
p6
L61L
sVwidth
p7
L10L
sa(dp8
g6
L170L
sg7
L10L
sa(dp9
g6
L251L
sg7
L10L
sasVhhints
p10
(lp11
(dp12
g6
L-182L
sg7
L10L
sa(dp13
g6
L48L
sg7
L10L
sa(dp14
g6
L117L
sg7
L10L
sass."
EndChar

StartChar: hyphen
Encoding: 45 45 17
GlifName: hyphen
Width: 600
VWidth: 0
Flags: HMW
LayerCount: 2
Fore
SplineSet
116 403 m 1
 536 403 l 1
 517 317 l 1
 97 317 l 1
 116 403 l 1
EndSplineSet
PickledDataWithLists: "(dp0
Vcom.fontlab.hintData
p1
(dp2
Vvhints
p3
(lp4
(dp5
Vposition
p6
L75L
sVwidth
p7
L10L
sa(dp8
g6
L514L
sg7
L10L
sasVhhints
p9
(lp10
(dp11
g6
L301L
sg7
L10L
sa(dp12
g6
L363L
sg7
L10L
sa(dp13
g6
L371L
sg7
L10L
sass."
EndChar

StartChar: period
Encoding: 46 46 18
GlifName: period
Width: 330
VWidth: 0
Flags: HMW
LayerCount: 2
Fore
SplineSet
136 144 m 0
 175 144 202 123 202 87 c 0
 202 82 201 76 200 70 c 0
 190 24 149 -4 104 -4 c 0
 65 -4 38 17 38 53 c 0
 38 58 39 64 40 70 c 0
 50 116 91 144 136 144 c 0
EndSplineSet
PickledDataWithLists: "(dp0
Vcom.fontlab.hintData
p1
(dp2
Vvhints
p3
(lp4
(dp5
Vposition
p6
L81L
sVwidth
p7
L10L
sa(dp8
g6
L239L
sg7
L10L
sasVhhints
p9
(lp10
(dp11
g6
L-5L
sg7
L10L
sa(dp12
g6
L122L
sg7
L10L
sass."
EndChar

StartChar: slash
Encoding: 47 47 19
GlifName: slash
Width: 510
VWidth: 0
Flags: HMW
LayerCount: 2
Fore
SplineSet
-20 0 m 1
 -19 6 l 1
 474 780 l 1
 576 780 l 1
 575 774 l 1
 83 0 l 1
 -20 0 l 1
EndSplineSet
PickledDataWithLists: "(dp0
Vcom.fontlab.hintData
p1
(dp2
Vvhints
p3
(lp4
(dp5
Vposition
p6
L41L
sVwidth
p7
L10L
sa(dp8
g6
L429L
sg7
L10L
sasVhhints
p9
(lp10
(dp11
g6
L-29L
sg7
L10L
sa(dp12
g6
L818L
sg7
L10L
sass."
Substitution2: "LatinSlash.frac subtable" fraction
EndChar

StartChar: zero
Encoding: 48 48 20
GlifName: zero
Width: 660
VWidth: 0
Flags: HMW
LayerCount: 2
Fore
SplineSet
79 373 m 2
 87 407 l 2
 124 581 218 799 440 799 c 0
 599 799 645 688 645 561 c 0
 645 510 638 457 627 407 c 2
 619 373 l 2
 582 199 488 -19 266 -19 c 0
 107 -19 61 92 61 219 c 0
 61 270 68 323 79 373 c 2
284 68 m 0
 376 68 460 180 501 373 c 2
 509 407 l 2
 520 460 526 507 526 547 c 0
 526 653 488 712 421 712 c 0
 329 712 246 600 205 407 c 2
 197 373 l 2
 186 320 180 272 180 232 c 0
 180 127 217 68 284 68 c 0
EndSplineSet
PickledDataWithLists: "(dp0
Vcom.fontlab.hintData
p1
(dp2
Vvhints
p3
(lp4
(dp5
Vposition
p6
L66L
sVwidth
p7
L10L
sa(dp8
g6
L164L
sg7
L10L
sa(dp9
g6
L456L
sg7
L10L
sa(dp10
g6
L546L
sg7
L10L
sa(dp11
g6
L564L
sg7
L10L
sa(dp12
g6
L644L
sg7
L10L
sasVhhints
p13
(lp14
(dp15
g6
L-24L
sg7
L10L
sa(dp16
g6
L46L
sg7
L10L
sa(dp17
g6
L742L
sg7
L10L
sa(dp18
g6
L811L
sg7
L10L
sass."
Substitution2: "Latin.dnom subtable" zero.dnom
Substitution2: "Latin.numr subtable" zero.numr
Substitution2: "Latin.subs subtable" zero.subs
Substitution2: "Latin.sups subtable" zero.sups
Substitution2: "Latin.pnum subtable" zero.pnum
EndChar

StartChar: one
Encoding: 49 49 21
GlifName: one
Width: 570
VWidth: 0
Flags: HMW
LayerCount: 2
Fore
SplineSet
169 630 m 1
 465 786 l 1
 546 777 l 1
 401 93 l 1
 550 93 l 1
 530 0 l 1
 75 0 l 1
 95 93 l 1
 285 93 l 1
 404 656 l 1
 201 545 l 1
 169 630 l 1
EndSplineSet
PickledDataWithLists: "(dp0
Vcom.fontlab.hintData
p1
(dp2
Vvhints
p3
(lp4
(dp5
Vposition
p6
L126L
sVwidth
p7
L10L
sa(dp8
g6
L364L
sg7
L10L
sa(dp9
g6
L371L
sg7
L10L
sa(dp10
g6
L462L
sg7
L10L
sa(dp11
g6
L469L
sg7
L10L
sa(dp12
g6
L677L
sg7
L10L
sasVhhints
p13
(lp14
(dp15
g6
L-19L
sg7
L10L
sa(dp16
g6
L-9L
sg7
L10L
sa(dp17
g6
L49L
sg7
L10L
sa(dp18
g6
L57L
sg7
L10L
sa(dp19
g6
L591L
sg7
L10L
sa(dp20
g6
L802L
sg7
L10L
sass."
Substitution2: "Latin.dnom subtable" one.dnom
Substitution2: "Latin.numr subtable" one.numr
Substitution2: "Latin.subs subtable" one.subs
Substitution2: "Latin.sups subtable" one.sups
Substitution2: "Latin.pnum subtable" one.pnum
EndChar

StartChar: two
Encoding: 50 50 22
GlifName: two
Width: 660
VWidth: 0
Flags: HMW
LayerCount: 2
Fore
SplineSet
19 44 m 0
 56 220 225 323 349 395 c 0
 437 446 514 496 531 577 c 0
 534 589 535 602 535 614 c 0
 535 665 510 712 423 712 c 0
 349 712 288 654 265 599 c 1
 147 610 l 1
 176 681 274 799 440 799 c 0
 615 799 651 698 651 624 c 0
 651 606 649 590 646 577 c 0
 619 450 492 370 406 320 c 0
 295 255 198 193 161 93 c 1
 550 93 l 1
 530 0 l 1
 16 0 l 1
 16 0 16 4 16 10 c 0
 16 18 16 30 19 44 c 0
EndSplineSet
PickledDataWithLists: "(dp0
Vcom.fontlab.hintData
p1
(dp2
Vvhints
p3
(lp4
(dp5
Vposition
p6
L71L
sVwidth
p7
L10L
sa(dp8
g6
L81L
sg7
L10L
sa(dp9
g6
L501L
sg7
L10L
sa(dp10
g6
L599L
sg7
L10L
sa(dp11
g6
L639L
sg7
L10L
sasVhhints
p12
(lp13
(dp14
g6
L-13L
sg7
L10L
sa(dp15
g6
L61L
sg7
L10L
sa(dp16
g6
L74L
sg7
L10L
sa(dp17
g6
L620L
sg7
L10L
sa(dp18
g6
L740L
sg7
L10L
sa(dp19
g6
L809L
sg7
L10L
sass."
Substitution2: "Latin.dnom subtable" two.dnom
Substitution2: "Latin.numr subtable" two.numr
Substitution2: "Latin.subs subtable" two.subs
Substitution2: "Latin.sups subtable" two.sups
Substitution2: "Latin.pnum subtable" two.pnum
EndChar

StartChar: three
Encoding: 51 51 23
GlifName: three
Width: 660
VWidth: 0
Flags: HMW
LayerCount: 2
Fore
SplineSet
8 131 m 1
 129 153 l 1
 133 122 155 67 257 67 c 0
 388 67 437 150 451 215 c 0
 453 226 455 238 455 249 c 0
 455 302 423 347 326 347 c 2
 221 347 l 1
 239 433 l 1
 332 433 l 2
 407 433 485 488 504 577 c 0
 507 589 508 602 508 614 c 0
 508 665 483 712 396 712 c 0
 322 712 261 654 238 599 c 1
 121 610 l 1
 150 681 247 799 413 799 c 0
 589 799 625 698 625 624 c 0
 625 606 623 590 620 577 c 0
 602 490 539 435 477 402 c 1
 553 373 576 313 576 260 c 0
 576 246 575 233 572 221 c 0
 555 142 479 -19 239 -19 c 0
 59 -19 15 87 8 131 c 1
EndSplineSet
PickledDataWithLists: "(dp0
Vcom.fontlab.hintData
p1
(dp2
Vvhints
p3
(lp4
(dp5
Vposition
p6
L66L
sVwidth
p7
L10L
sa(dp8
g6
L76L
sg7
L10L
sa(dp9
g6
L203L
sg7
L10L
sa(dp10
g6
L491L
sg7
L10L
sa(dp11
g6
L546L
sg7
L10L
sa(dp12
g6
L589L
sg7
L10L
sa(dp13
g6
L644L
sg7
L10L
sasVhhints
p14
(lp15
(dp16
g6
L-27L
sg7
L10L
sa(dp17
g6
L44L
sg7
L10L
sa(dp18
g6
L150L
sg7
L10L
sa(dp19
g6
L361L
sg7
L10L
sa(dp20
g6
L372L
sg7
L10L
sa(dp21
g6
L630L
sg7
L10L
sa(dp22
g6
L741L
sg7
L10L
sa(dp23
g6
L810L
sg7
L10L
sass."
Substitution2: "Latin.dnom subtable" three.dnom
Substitution2: "Latin.numr subtable" three.numr
Substitution2: "Latin.subs subtable" three.subs
Substitution2: "Latin.sups subtable" three.sups
Substitution2: "Latin.pnum subtable" three.pnum
EndChar

StartChar: four
Encoding: 52 52 24
GlifName: four
Width: 650
VWidth: 0
Flags: HMW
LayerCount: 2
Fore
SplineSet
373 197 m 1
 21 197 l 1
 24 253 l 1
 514 786 l 1
 610 777 l 1
 505 283 l 1
 630 283 l 1
 612 197 l 1
 487 197 l 1
 445 0 l 1
 331 0 l 1
 373 197 l 1
395 283 m 1
 468 626 l 1
 157 283 l 1
 395 283 l 1
EndSplineSet
PickledDataWithLists: "(dp0
Vcom.fontlab.hintData
p1
(dp2
Vvhints
p3
(lp4
(dp5
Vposition
p6
L31L
sVwidth
p7
L10L
sa(dp8
g6
L276L
sg7
L10L
sa(dp9
g6
L374L
sg7
L10L
sa(dp10
g6
L455L
sg7
L10L
sa(dp11
g6
L554L
sg7
L10L
sa(dp12
g6
L679L
sg7
L10L
sasVhhints
p13
(lp14
(dp15
g6
L-30L
sg7
L10L
sa(dp16
g6
L174L
sg7
L10L
sa(dp17
g6
L243L
sg7
L10L
sa(dp18
g6
L259L
sg7
L10L
sa(dp19
g6
L609L
sg7
L10L
sa(dp20
g6
L819L
sg7
L10L
sass."
Substitution2: "Latin.dnom subtable" four.dnom
Substitution2: "Latin.numr subtable" four.numr
Substitution2: "Latin.subs subtable" four.subs
Substitution2: "Latin.sups subtable" four.sups
Substitution2: "Latin.pnum subtable" four.pnum
EndChar

StartChar: five
Encoding: 53 53 25
GlifName: five
Width: 660
VWidth: 0
Flags: HMW
LayerCount: 2
Fore
SplineSet
28 131 m 1
 150 153 l 1
 154 122 175 67 277 67 c 0
 408 67 458 159 474 234 c 0
 478 253 480 272 480 290 c 0
 480 350 454 402 365 402 c 0
 295 402 226 352 188 308 c 1
 188 310 l 1
 186 308 l 1
 109 354 l 1
 214 780 l 1
 664 780 l 1
 646 694 l 1
 306 694 l 1
 243 436 l 1
 284 461 339 484 405 484 c 0
 566 484 602 379 602 298 c 0
 602 277 599 257 596 241 c 0
 578 157 499 -19 259 -19 c 0
 79 -19 35 87 28 131 c 1
EndSplineSet
PickledDataWithLists: "(dp0
Vcom.fontlab.hintData
p1
(dp2
Vvhints
p3
(lp4
(dp5
Vposition
p6
L76L
sVwidth
p7
L10L
sa(dp8
g6
L106L
sg7
L10L
sa(dp9
g6
L125L
sg7
L10L
sa(dp10
g6
L226L
sg7
L10L
sa(dp11
g6
L541L
sg7
L10L
sa(dp12
g6
L614L
sg7
L10L
sa(dp13
g6
L639L
sg7
L10L
sasVhhints
p14
(lp15
(dp16
g6
L-26L
sg7
L10L
sa(dp17
g6
L43L
sg7
L10L
sa(dp18
g6
L150L
sg7
L10L
sa(dp19
g6
L334L
sg7
L10L
sa(dp20
g6
L409L
sg7
L10L
sa(dp21
g6
L477L
sg7
L10L
sa(dp22
g6
L716L
sg7
L10L
sa(dp23
g6
L784L
sg7
L10L
sa(dp24
g6
L795L
sg7
L10L
sass."
Substitution2: "Latin.dnom subtable" five.dnom
Substitution2: "Latin.numr subtable" five.numr
Substitution2: "Latin.subs subtable" five.subs
Substitution2: "Latin.sups subtable" five.sups
Substitution2: "Latin.pnum subtable" five.pnum
EndChar

StartChar: six
Encoding: 54 54 26
GlifName: six
Width: 660
VWidth: 0
Flags: HMW
LayerCount: 2
Fore
SplineSet
83 297 m 2
 113 436 l 2
 140 562 213 799 453 799 c 0
 628 799 657 682 661 639 c 1
 542 620 l 1
 538 658 519 712 434 712 c 0
 323 712 263 590 230 436 c 2
 227 425 l 1
 274 461 334 483 403 483 c 0
 548 483 602 392 602 294 c 0
 602 274 599 253 595 233 c 0
 566 98 451 -19 279 -19 c 0
 137 -19 71 59 71 189 c 0
 71 222 75 258 83 297 c 2
195 269 m 1
 190 241 188 216 188 195 c 0
 188 94 239 68 297 68 c 0
 377 68 454 118 478 233 c 0
 482 251 484 268 484 284 c 0
 484 354 446 401 365 401 c 0
 292 401 227 352 195 269 c 1
EndSplineSet
PickledDataWithLists: "(dp0
Vcom.fontlab.hintData
p1
(dp2
Vvhints
p3
(lp4
(dp5
Vposition
p6
L32L
sVwidth
p7
L10L
sa(dp8
g6
L90L
sg7
L10L
sa(dp9
g6
L188L
sg7
L10L
sa(dp10
g6
L464L
sg7
L10L
sa(dp11
g6
L560L
sg7
L10L
sa(dp12
g6
L658L
sg7
L10L
sasVhhints
p13
(lp14
(dp15
g6
L-29L
sg7
L10L
sa(dp16
g6
L39L
sg7
L10L
sa(dp17
g6
L251L
sg7
L10L
sa(dp18
g6
L397L
sg7
L10L
sa(dp19
g6
L466L
sg7
L10L
sa(dp20
g6
L819L
sg7
L10L
sass."
Substitution2: "Latin.dnom subtable" six.dnom
Substitution2: "Latin.numr subtable" six.numr
Substitution2: "Latin.subs subtable" six.subs
Substitution2: "Latin.sups subtable" six.sups
Substitution2: "Latin.pnum subtable" six.pnum
EndChar

StartChar: seven
Encoding: 55 55 27
GlifName: seven
Width: 585
VWidth: 0
Flags: HMW
LayerCount: 2
Fore
SplineSet
151 687 m 1
 171 780 l 1
 682 780 l 1
 677 715 l 1
 538 568 350 285 300 50 c 2
 289 0 l 1
 165 0 l 1
 176 50 l 2
 222 266 392 523 531 687 c 1
 151 687 l 1
EndSplineSet
PickledDataWithLists: "(dp0
Vcom.fontlab.hintData
p1
(dp2
Vvhints
p3
(lp4
(dp5
Vposition
p6
L69L
sVwidth
p7
L10L
sa(dp8
g6
L199L
sg7
L10L
sa(dp9
g6
L274L
sg7
L10L
sa(dp10
g6
L648L
sg7
L10L
sasVhhints
p11
(lp12
(dp13
g6
L-19L
sg7
L10L
sa(dp14
g6
L554L
sg7
L10L
sa(dp15
g6
L716L
sg7
L10L
sa(dp16
g6
L784L
sg7
L10L
sa(dp17
g6
L795L
sg7
L10L
sass."
Substitution2: "Latin.dnom subtable" seven.dnom
Substitution2: "Latin.numr subtable" seven.numr
Substitution2: "Latin.subs subtable" seven.subs
Substitution2: "Latin.sups subtable" seven.sups
Substitution2: "Latin.pnum subtable" seven.pnum
EndChar

StartChar: eight
Encoding: 56 56 28
GlifName: eight
Width: 660
VWidth: 0
Flags: HMW
LayerCount: 2
Fore
SplineSet
266 -19 m 0
 113 -19 28 57 28 159 c 0
 28 173 30 187 33 201 c 0
 60 326 163 378 234 401 c 1
 185 425 143 466 143 536 c 0
 143 550 145 565 148 581 c 0
 173 699 289 799 440 799 c 0
 571 799 643 723 643 626 c 0
 643 611 641 596 638 581 c 0
 617 483 547 430 476 401 c 1
 529 381 598 339 598 247 c 0
 598 233 597 218 593 201 c 0
 567 79 439 -19 266 -19 c 0
284 66 m 0
 382 66 455 114 473 201 c 0
 476 215 477 228 477 239 c 0
 477 302 436 329 394 343 c 0
 381 348 365 354 347 360 c 1
 327 354 307 348 292 343 c 0
 236 327 172 291 153 201 c 0
 151 189 149 178 149 168 c 0
 149 102 199 66 284 66 c 0
422 713 m 0
 355 713 284 672 265 581 c 0
 262 569 261 558 261 548 c 0
 261 493 294 463 329 452 c 0
 339 449 351 444 364 440 c 1
 379 444 391 449 403 452 c 0
 450 465 505 505 521 581 c 0
 524 594 525 606 525 617 c 0
 525 683 479 713 422 713 c 0
EndSplineSet
PickledDataWithLists: "(dp0
Vcom.fontlab.hintData
p1
(dp2
Vvhints
p3
(lp4
(dp5
Vposition
p6
L76L
sVwidth
p7
L10L
sa(dp8
g6
L87L
sg7
L10L
sa(dp9
g6
L174L
sg7
L10L
sa(dp10
g6
L185L
sg7
L10L
sa(dp11
g6
L549L
sg7
L10L
sa(dp12
g6
L584L
sg7
L10L
sa(dp13
g6
L594L
sg7
L10L
sa(dp14
g6
L649L
sg7
L10L
sasVhhints
p15
(lp16
(dp17
g6
L-24L
sg7
L10L
sa(dp18
g6
L44L
sg7
L10L
sa(dp19
g6
L394L
sg7
L9L
sa(dp20
g6
L610L
sg7
L10L
sa(dp21
g6
L651L
sg7
L10L
sa(dp22
g6
L741L
sg7
L10L
sa(dp23
g6
L809L
sg7
L10L
sass."
Substitution2: "Latin.dnom subtable" eight.dnom
Substitution2: "Latin.numr subtable" eight.numr
Substitution2: "Latin.subs subtable" eight.subs
Substitution2: "Latin.sups subtable" eight.sups
Substitution2: "Latin.pnum subtable" eight.pnum
EndChar

StartChar: nine
Encoding: 57 57 29
GlifName: nine
Width: 660
VWidth: 0
Flags: HMW
LayerCount: 2
Fore
SplineSet
623 483 m 2
 593 344 l 2
 566 218 493 -19 253 -19 c 0
 78 -19 49 98 45 141 c 1
 164 160 l 1
 168 122 186 68 271 68 c 0
 382 68 443 190 476 344 c 2
 478 355 l 1
 431 319 372 297 303 297 c 0
 158 297 104 388 104 486 c 0
 104 506 107 527 111 547 c 0
 140 682 255 799 427 799 c 0
 569 799 635 721 635 591 c 0
 635 558 631 522 623 483 c 2
511 511 m 1
 516 539 518 563 518 584 c 0
 518 686 466 712 408 712 c 0
 328 712 252 662 228 547 c 0
 224 529 222 512 222 496 c 0
 222 426 260 379 341 379 c 0
 414 379 479 428 511 511 c 1
EndSplineSet
PickledDataWithLists: "(dp0
Vcom.fontlab.hintData
p1
(dp2
Vvhints
p3
(lp4
(dp5
Vposition
p6
L52L
sVwidth
p7
L10L
sa(dp8
g6
L150L
sg7
L10L
sa(dp9
g6
L246L
sg7
L10L
sa(dp10
g6
L521L
sg7
L10L
sa(dp11
g6
L620L
sg7
L10L
sa(dp12
g6
L678L
sg7
L10L
sasVhhints
p13
(lp14
(dp15
g6
L-29L
sg7
L10L
sa(dp16
g6
L324L
sg7
L10L
sa(dp17
g6
L393L
sg7
L10L
sa(dp18
g6
L539L
sg7
L10L
sa(dp19
g6
L751L
sg7
L10L
sa(dp20
g6
L819L
sg7
L10L
sass."
Substitution2: "Latin.dnom subtable" nine.dnom
Substitution2: "Latin.numr subtable" nine.numr
Substitution2: "Latin.subs subtable" nine.subs
Substitution2: "Latin.sups subtable" nine.sups
Substitution2: "Latin.pnum subtable" nine.pnum
EndChar

StartChar: colon
Encoding: 58 58 30
GlifName: colon
Width: 330
VWidth: 0
Flags: HMW
LayerCount: 2
Fore
SplineSet
136 144 m 128
 175 144 202 123 202 87 c 0
 202 82 201 76 200 70 c 128
 190 24 149 -4 104 -4 c 128
 65 -4 38 17 38 53 c 0
 38 58 39 64 40 70 c 128
 50 116 91 144 136 144 c 128
225 564 m 128
 264 564 291 543 291 507 c 0
 291 502 290 496 289 490 c 128
 279 444 238 416 193 416 c 128
 154 416 127 437 127 473 c 0
 127 478 128 484 129 490 c 128
 139 536 180 564 225 564 c 128
EndSplineSet
PickledDataWithLists: "(dp0
Vcom.fontlab.hintData
p1
(dp2
Vvhints
p3
(lp4
(dp5
Vposition
p6
L81L
sVwidth
p7
L10L
sa(dp8
g6
L238L
sg7
L10L
sasVhhints
p9
(lp10
(dp11
g6
L-5L
sg7
L10L
sa(dp12
g6
L122L
sg7
L10L
sa(dp13
g6
L475L
sg7
L10L
sa(dp14
g6
L602L
sg7
L10L
sass."
EndChar

StartChar: semicolon
Encoding: 59 59 31
GlifName: semicolon
Width: 330
VWidth: 0
Flags: HMW
LayerCount: 2
Fore
SplineSet
225 564 m 128
 264 564 291 543 291 507 c 0
 291 502 290 496 289 490 c 128
 279 444 238 416 193 416 c 128
 154 416 127 437 127 473 c 0
 127 478 128 484 129 490 c 128
 139 536 180 564 225 564 c 128
39 68 m 0
 49 113 87 146 136 146 c 0
 190 146 211 110 211 66 c 0
 211 55 209 44 207 32 c 0
 184 -78 93 -157 17 -200 c 1
 -8 -153 l 1
 45 -123 97 -73 122 -2 c 1
 116 -3 108 -4 101 -4 c 0
 63 -4 37 17 37 52 c 0
 37 57 38 62 39 68 c 0
EndSplineSet
PickledDataWithLists: "(dp0
Vcom.fontlab.hintData
p1
(dp2
Vvhints
p3
(lp4
(dp5
Vposition
p6
L61L
sVwidth
p7
L10L
sa(dp8
g6
L81L
sg7
L10L
sa(dp9
g6
L170L
sg7
L10L
sa(dp10
g6
L239L
sg7
L10L
sa(dp11
g6
L251L
sg7
L10L
sasVhhints
p12
(lp13
(dp14
g6
L-182L
sg7
L10L
sa(dp15
g6
L48L
sg7
L10L
sa(dp16
g6
L117L
sg7
L10L
sa(dp17
g6
L475L
sg7
L10L
sa(dp18
g6
L602L
sg7
L10L
sass."
EndChar

StartChar: less
Encoding: 60 60 32
GlifName: less
Width: 600
VWidth: 0
Flags: HMW
LayerCount: 2
Fore
SplineSet
100 328 m 1
 107 360 l 1
 113 392 l 1
 562 632 l 1
 565 543 l 1
 214 360 l 1
 488 177 l 1
 447 88 l 1
 100 328 l 1
EndSplineSet
PickledDataWithLists: "(dp0
Vcom.fontlab.hintData
p1
(dp2
Vvhints
p3
(lp4
(dp5
Vposition
p6
L63L
sVwidth
p7
L10L
sa(dp8
g6
L514L
sg7
L10L
sa(dp9
g6
L524L
sg7
L10L
sasVhhints
p10
(lp11
(dp12
g6
L65L
sg7
L10L
sa(dp13
g6
L606L
sg7
L10L
sass."
EndChar

StartChar: equal
Encoding: 61 61 33
GlifName: equal
Width: 600
VWidth: 0
Flags: HMW
LayerCount: 2
Fore
SplineSet
119 421 m 1
 137 504 l 1
 557 504 l 1
 539 421 l 1
 119 421 l 1
76 216 m 1
 94 299 l 1
 514 299 l 1
 496 216 l 1
 76 216 l 1
EndSplineSet
PickledDataWithLists: "(dp0
Vcom.fontlab.hintData
p1
(dp2
Vvhints
p3
(lp4
(dp5
Vposition
p6
L75L
sVwidth
p7
L10L
sa(dp8
g6
L514L
sg7
L10L
sasVhhints
p9
(lp10
(dp11
g6
L201L
sg7
L10L
sa(dp12
g6
L263L
sg7
L10L
sa(dp13
g6
L271L
sg7
L10L
sa(dp14
g6
L401L
sg7
L10L
sa(dp15
g6
L463L
sg7
L10L
sa(dp16
g6
L471L
sg7
L10L
sass."
EndChar

StartChar: greater
Encoding: 62 62 34
GlifName: greater
Width: 600
VWidth: 0
Flags: HMW
LayerCount: 2
Fore
SplineSet
533 392 m 1
 527 360 l 1
 520 328 l 1
 71 88 l 1
 68 177 l 1
 420 360 l 1
 145 543 l 1
 186 632 l 1
 533 392 l 1
EndSplineSet
PickledDataWithLists: "(dp0
Vcom.fontlab.hintData
p1
(dp2
Vvhints
p3
(lp4
(dp5
Vposition
p6
L66L
sVwidth
p7
L10L
sa(dp8
g6
L76L
sg7
L10L
sa(dp9
g6
L527L
sg7
L10L
sasVhhints
p10
(lp11
(dp12
g6
L64L
sg7
L10L
sa(dp13
g6
L605L
sg7
L10L
sass."
EndChar

StartChar: question
Encoding: 63 63 35
GlifName: question
Width: 570
VWidth: 0
Flags: HMW
LayerCount: 2
Fore
SplineSet
256 144 m 0
 295 144 322 123 322 87 c 0
 322 82 321 76 320 70 c 0
 310 24 269 -4 224 -4 c 0
 185 -4 158 17 158 53 c 0
 158 58 159 64 160 70 c 0
 170 116 211 144 256 144 c 0
133 647 m 0
 155 750 259 829 401 829 c 0
 517 829 585 773 585 681 c 0
 585 666 584 650 580 634 c 0
 545 470 336 430 312 316 c 0
 310 308 309 300 309 292 c 0
 309 282 311 272 313 262 c 1
 217 251 l 1
 213 264 211 278 211 291 c 0
 211 302 212 312 214 323 c 0
 247 478 431 504 458 631 c 0
 461 644 462 656 462 666 c 0
 462 723 422 741 379 741 c 0
 317 741 266 710 253 647 c 0
 251 635 249 623 249 611 c 0
 249 602 250 595 252 587 c 1
 133 558 l 1
 130 571 128 586 128 600 c 0
 128 616 130 631 133 647 c 0
EndSplineSet
PickledDataWithLists: "(dp0
Vcom.fontlab.hintData
p1
(dp2
Vvhints
p3
(lp4
(dp5
Vposition
p6
L11L
sVwidth
p7
L10L
sa(dp8
g6
L98L
sg7
L10L
sa(dp9
g6
L120L
sg7
L10L
sa(dp10
g6
L152L
sg7
L10L
sa(dp11
g6
L161L
sg7
L10L
sa(dp12
g6
L241L
sg7
L10L
sa(dp13
g6
L254L
sg7
L10L
sa(dp14
g6
L310L
sg7
L10L
sa(dp15
g6
L351L
sg7
L10L
sa(dp16
g6
L439L
sg7
L10L
sasVhhints
p17
(lp18
(dp19
g6
L-5L
sg7
L10L
sa(dp20
g6
L122L
sg7
L10L
sa(dp21
g6
L255L
sg7
L10L
sa(dp22
g6
L594L
sg7
L10L
sa(dp23
g6
L784L
sg7
L10L
sa(dp24
g6
L846L
sg7
L10L
sass."
EndChar

StartChar: at
Encoding: 64 64 36
GlifName: at
Width: 1020
VWidth: 0
Flags: HMW
LayerCount: 2
Fore
SplineSet
70 237 m 0
 124 491 357 780 664 780 c 0
 879 780 974 651 974 492 c 0
 974 461 971 429 964 397 c 0
 929 233 794 37 647 37 c 0
 588 37 571 70 570 107 c 1
 527 63 476 32 419 32 c 0
 309 32 272 102 272 177 c 0
 272 195 274 213 278 230 c 0
 307 366 445 563 643 563 c 0
 721 563 747 516 747 467 c 0
 747 457 746 447 744 437 c 0
 735 393 704 324 691 296 c 0
 666 233 651 186 644 154 c 0
 641 140 639 129 639 120 c 0
 639 103 646 95 659 95 c 0
 735 95 864 237 898 397 c 0
 904 427 908 456 908 484 c 0
 908 621 827 721 651 721 c 0
 399 721 187 475 136 237 c 0
 129 202 125 168 125 136 c 0
 125 -15 210 -131 414 -131 c 0
 482 -131 573 -95 602 -80 c 1
 628 -128 l 1
 590 -149 492 -190 402 -190 c 0
 157 -190 58 -44 58 129 c 0
 58 164 62 200 70 237 c 0
433 97 m 0
 505 97 563 178 614 307 c 0
 626 334 658 407 664 437 c 0
 666 445 666 453 666 459 c 0
 666 487 651 498 629 498 c 0
 520 498 393 362 365 230 c 0
 362 214 360 198 360 185 c 0
 360 128 389 97 433 97 c 0
EndSplineSet
PickledDataWithLists: "(dp0
Vcom.fontlab.hintData
p1
(dp2
Vvhints
p3
(lp4
(dp5
Vposition
p6
L74L
sVwidth
p7
L10L
sa(dp8
g6
L143L
sg7
L10L
sa(dp9
g6
L293L
sg7
L10L
sa(dp10
g6
L372L
sg7
L10L
sa(dp11
g6
L622L
sg7
L10L
sa(dp12
g6
L670L
sg7
L10L
sa(dp13
g6
L702L
sg7
L10L
sa(dp14
g6
L726L
sg7
L10L
sa(dp15
g6
L865L
sg7
L10L
sa(dp16
g6
L935L
sg7
L10L
sasVhhints
p17
(lp18
(dp19
g6
L-179L
sg7
L10L
sa(dp20
g6
L-131L
sg7
L10L
sa(dp21
g6
L-76L
sg7
L10L
sa(dp22
g6
L38L
sg7
L10L
sa(dp23
g6
L92L
sg7
L10L
sa(dp24
g6
L352L
sg7
L10L
sa(dp25
g6
L399L
sg7
L10L
sa(dp26
g6
L490L
sg7
L10L
sa(dp27
g6
L544L
sg7
L10L
sa(dp28
g6
L711L
sg7
L10L
sa(dp29
g6
L759L
sg7
L10L
sass."
EndChar

StartChar: A
Encoding: 65 65 37
GlifName: A_
Width: 750
VWidth: 0
Flags: HMW
AnchorPoint: "LatinOgonek.mark" 610 0 basechar 0
AnchorPoint: "LatinBelow.mark" 315 0 basechar 0
AnchorPoint: "LatinAbove.mark" 347 150 basechar 0
LayerCount: 2
Fore
SplineSet
675 0 m 1
 539 0 l 1
 515 167 l 1
 185 167 l 1
 91 0 l 1
 -45 0 l 1
 -43 8 l 1
 431 780 l 1
 531 780 l 1
 677 8 l 1
 675 0 l 1
504 253 m 1
 451 638 l 1
 234 253 l 1
 504 253 l 1
EndSplineSet
PickledDataWithLists: "(dp0
Vcom.fontlab.hintData
p1
(dp2
Vvhints
p3
(lp4
(dp5
Vposition
p6
L33L
sVwidth
p7
L10L
sa(dp8
g6
L39L
sg7
L10L
sa(dp9
g6
L763L
sg7
L10L
sasVhhints
p10
(lp11
(dp12
g6
L-16L
sg7
L10L
sa(dp13
g6
L3L
sg7
L10L
sa(dp14
g6
L179L
sg7
L10L
sa(dp15
g6
L209L
sg7
L10L
sa(dp16
g6
L271L
sg7
L10L
sa(dp17
g6
L810L
sg7
L10L
sass."
EndChar

StartChar: B
Encoding: 66 66 38
GlifName: B_
Width: 745
VWidth: 0
Flags: HMW
AnchorPoint: "LatinBelow.mark" 260 0 basechar 0
AnchorPoint: "LatinAbove.mark" 292 150 basechar 0
LayerCount: 2
Fore
SplineSet
542 433 m 1
 630 408 683 354 683 272 c 0
 683 257 681 242 678 226 c 0
 646 77 495 -9 308 -9 c 0
 187 -9 48 -1 30 0 c 1
 196 780 l 1
 212 781 340 789 448 789 c 0
 583 789 685 735 685 631 c 0
 685 619 684 606 681 593 c 0
 664 514 608 463 542 433 c 1
406 450 m 1
 472 457 544 499 562 583 c 0
 564 593 565 602 565 611 c 0
 565 676 507 704 416 704 c 0
 365 704 314 700 292 699 c 1
 238 446 l 1
 287 448 348 450 406 450 c 1
160 81 m 1
 197 79 258 77 312 77 c 0
 431 77 536 115 560 226 c 0
 563 238 564 250 564 260 c 0
 564 344 481 371 375 371 c 0
 321 371 258 369 221 367 c 1
 160 81 l 1
EndSplineSet
PickledDataWithLists: "(dp0
Vcom.fontlab.hintData
p1
(dp2
Vvhints
p3
(lp4
(dp5
Vposition
p6
L26L
sVwidth
p7
L10L
sa(dp8
g6
L116L
sg7
L10L
sa(dp9
g6
L121L
sg7
L10L
sa(dp10
g6
L223L
sg7
L10L
sa(dp11
g6
L537L
sg7
L10L
sa(dp12
g6
L636L
sg7
L10L
sa(dp13
g6
L735L
sg7
L10L
sasVhhints
p14
(lp15
(dp16
g6
L-22L
sg7
L10L
sa(dp17
g6
L49L
sg7
L10L
sa(dp18
g6
L395L
sg7
L10L
sa(dp19
g6
L634L
sg7
L10L
sa(dp20
g6
L661L
sg7
L10L
sa(dp21
g6
L742L
sg7
L10L
sa(dp22
g6
L809L
sg7
L10L
sass."
Colour: ff00
EndChar

StartChar: C
Encoding: 67 67 39
GlifName: C_
Width: 755
VWidth: 0
Flags: HMW
AnchorPoint: "LatinCedilla.mark" 352 0 basechar 0
AnchorPoint: "LatinBelow.mark" 350 0 basechar 0
AnchorPoint: "LatinAbove.mark" 382 150 basechar 0
LayerCount: 2
Fore
SplineSet
86 406 m 2
 125 590 250 799 522 799 c 0
 719 799 780 674 780 593 c 0
 780 592 780 590 780 589 c 1
 655 577 l 1
 655 578 655 578 655 579 c 0
 655 636 611 708 502 708 c 0
 351 708 251 590 212 406 c 2
 205 374 l 2
 197 334 192 298 192 265 c 0
 192 145 249 72 367 72 c 0
 477 72 552 146 575 203 c 1
 696 191 l 1
 664 110 548 -19 348 -19 c 0
 134 -19 66 111 66 256 c 0
 66 295 71 335 79 374 c 2
 86 406 l 2
EndSplineSet
PickledDataWithLists: "(dp0
Vcom.fontlab.hintData
p1
(dp2
Vvhints
p3
(lp4
(dp5
Vposition
p6
L68L
sVwidth
p7
L10L
sa(dp8
g6
L172L
sg7
L10L
sa(dp9
g6
L569L
sg7
L10L
sa(dp10
g6
L673L
sg7
L10L
sa(dp11
g6
L707L
sg7
L10L
sasVhhints
p12
(lp13
(dp14
g6
L-20L
sg7
L10L
sa(dp15
g6
L52L
sg7
L10L
sa(dp16
g6
L169L
sg7
L10L
sa(dp17
g6
L586L
sg7
L10L
sa(dp18
g6
L739L
sg7
L10L
sa(dp19
g6
L811L
sg7
L10L
sass."
Colour: ff00
EndChar

StartChar: D
Encoding: 68 68 40
GlifName: D_
Width: 770
VWidth: 0
Flags: HMW
AnchorPoint: "LatinBelow.mark" 260 0 basechar 0
AnchorPoint: "LatinAbove.mark" 292 150 basechar 0
LayerCount: 2
Fore
SplineSet
167 80 m 1
 194 79 226 78 250 78 c 0
 468 78 573 202 610 376 c 2
 616 404 l 2
 623 437 627 468 627 497 c 0
 627 620 558 702 382 702 c 0
 358 702 326 701 299 700 c 1
 167 80 l 1
196 780 m 1
 196 780 308 789 401 789 c 0
 660 789 747 655 747 502 c 0
 747 470 743 437 736 404 c 2
 730 376 l 2
 690 188 544 -9 231 -9 c 0
 138 -9 30 0 30 0 c 1
 196 780 l 1
EndSplineSet
PickledDataWithLists: "(dp0
Vcom.fontlab.hintData
p1
(dp2
Vvhints
p3
(lp4
(dp5
Vposition
p6
L26L
sVwidth
p7
L10L
sa(dp8
g6
L116L
sg7
L10L
sa(dp9
g6
L121L
sg7
L10L
sa(dp10
g6
L223L
sg7
L10L
sa(dp11
g6
L630L
sg7
L10L
sa(dp12
g6
L729L
sg7
L10L
sasVhhints
p13
(lp14
(dp15
g6
L-21L
sg7
L10L
sa(dp16
g6
L49L
sg7
L10L
sa(dp17
g6
L634L
sg7
L10L
sa(dp18
g6
L661L
sg7
L10L
sa(dp19
g6
L742L
sg7
L10L
sa(dp20
g6
L810L
sg7
L10L
sass."
EndChar

StartChar: E
Encoding: 69 69 41
GlifName: E_
Width: 675
VWidth: 0
Flags: HMW
AnchorPoint: "LatinOgonek.mark" 485 0 basechar 0
AnchorPoint: "LatinBelow.mark" 290 0 basechar 0
AnchorPoint: "LatinAbove.mark" 322 150 basechar 0
LayerCount: 2
Fore
SplineSet
30 0 m 1
 196 780 l 1
 711 780 l 1
 691 687 l 1
 296 687 l 1
 241 428 l 1
 600 428 l 1
 582 342 l 1
 223 342 l 1
 170 93 l 1
 580 93 l 1
 560 0 l 1
 30 0 l 1
EndSplineSet
PickledDataWithLists: "(dp0
Vcom.fontlab.hintData
p1
(dp2
Vvhints
p3
(lp4
(dp5
Vposition
p6
L66L
sVwidth
p7
L10L
sa(dp8
g6
L106L
sg7
L10L
sa(dp9
g6
L121L
sg7
L10L
sa(dp10
g6
L204L
sg7
L10L
sa(dp11
g6
L220L
sg7
L10L
sa(dp12
g6
L564L
sg7
L10L
sa(dp13
g6
L644L
sg7
L10L
sa(dp14
g6
L674L
sg7
L10L
sasVhhints
p15
(lp16
(dp17
g6
L-24L
sg7
L10L
sa(dp18
g6
L-9L
sg7
L10L
sa(dp19
g6
L46L
sg7
L10L
sa(dp20
g6
L59L
sg7
L10L
sa(dp21
g6
L361L
sg7
L10L
sa(dp22
g6
L423L
sg7
L10L
sa(dp23
g6
L726L
sg7
L10L
sa(dp24
g6
L794L
sg7
L10L
sa(dp25
g6
L799L
sg7
L10L
sa(dp26
g6
L804L
sg7
L10L
sass."
Colour: ff00
EndChar

StartChar: F
Encoding: 70 70 42
GlifName: F_
Width: 640
VWidth: 0
Flags: HMW
AnchorPoint: "LatinBelow.mark" 100 0 basechar 0
AnchorPoint: "LatinAbove.mark" 312 150 basechar 0
LayerCount: 2
Fore
SplineSet
30 0 m 1
 196 780 l 1
 701 780 l 1
 681 687 l 1
 298 687 l 1
 244 431 l 1
 591 431 l 1
 571 339 l 1
 224 339 l 1
 152 0 l 1
 30 0 l 1
EndSplineSet
PickledDataWithLists: "(dp0
Vcom.fontlab.hintData
p1
(dp2
Vvhints
p3
(lp4
(dp5
Vposition
p6
L59L
sVwidth
p7
L10L
sa(dp8
g6
L66L
sg7
L10L
sa(dp9
g6
L116L
sg7
L10L
sa(dp10
g6
L124L
sg7
L10L
sa(dp11
g6
L214L
sg7
L10L
sa(dp12
g6
L222L
sg7
L10L
sa(dp13
g6
L564L
sg7
L10L
sa(dp14
g6
L644L
sg7
L10L
sasVhhints
p15
(lp16
(dp17
g6
L-14L
sg7
L10L
sa(dp18
g6
L355L
sg7
L10L
sa(dp19
g6
L360L
sg7
L10L
sa(dp20
g6
L423L
sg7
L10L
sa(dp21
g6
L726L
sg7
L10L
sa(dp22
g6
L794L
sg7
L10L
sa(dp23
g6
L799L
sg7
L10L
sa(dp24
g6
L804L
sg7
L10L
sass."
Colour: ff00
EndChar

StartChar: G
Encoding: 71 71 43
GlifName: G_
Width: 770
VWidth: 0
Flags: HMW
AnchorPoint: "LatinBelow.mark" 350 0 basechar 0
AnchorPoint: "LatinAbove.mark" 382 150 basechar 0
LayerCount: 2
Fore
SplineSet
423 302 m 1
 441 388 l 1
 732 388 l 1
 679 137 l 1
 632 71 521 -19 348 -19 c 0
 134 -19 66 111 66 256 c 0
 66 295 71 335 79 374 c 2
 86 406 l 2
 125 590 250 799 522 799 c 0
 719 799 780 674 780 593 c 0
 780 592 780 590 780 589 c 1
 656 577 l 1
 656 578 656 578 656 579 c 0
 656 636 614 709 503 709 c 0
 350 709 249 592 209 406 c 2
 202 374 l 2
 193 334 189 297 189 264 c 0
 189 143 247 71 367 71 c 0
 474 71 536 112 572 151 c 1
 604 302 l 1
 423 302 l 1
EndSplineSet
PickledDataWithLists: "(dp0
Vcom.fontlab.hintData
p1
(dp2
Vvhints
p3
(lp4
(dp5
Vposition
p6
L71L
sVwidth
p7
L10L
sa(dp8
g6
L169L
sg7
L10L
sa(dp9
g6
L386L
sg7
L10L
sa(dp10
g6
L572L
sg7
L10L
sa(dp11
g6
L615L
sg7
L10L
sa(dp12
g6
L670L
sg7
L10L
sa(dp13
g6
L715L
sg7
L10L
sasVhhints
p14
(lp15
(dp16
g6
L-24L
sg7
L10L
sa(dp17
g6
L44L
sg7
L10L
sa(dp18
g6
L290L
sg7
L10L
sa(dp19
g6
L390L
sg7
L10L
sa(dp20
g6
L587L
sg7
L10L
sa(dp21
g6
L741L
sg7
L10L
sa(dp22
g6
L810L
sg7
L10L
sass."
Colour: ff00
EndChar

StartChar: H
Encoding: 72 72 44
GlifName: H_
Width: 790
VWidth: 0
Flags: HMW
AnchorPoint: "LatinBelow.mark" 335 0 basechar 0
AnchorPoint: "LatinAbove.mark" 367 150 basechar 0
LayerCount: 2
Fore
SplineSet
30 0 m 1
 196 780 l 1
 316 780 l 1
 243 436 l 1
 613 436 l 1
 686 780 l 1
 806 780 l 1
 640 0 l 1
 520 0 l 1
 593 344 l 1
 223 344 l 1
 150 0 l 1
 30 0 l 1
EndSplineSet
PickledDataWithLists: "(dp0
Vcom.fontlab.hintData
p1
(dp2
Vvhints
p3
(lp4
(dp5
Vposition
p6
L66L
sVwidth
p7
L10L
sa(dp8
g6
L101L
sg7
L10L
sa(dp9
g6
L111L
sg7
L10L
sa(dp10
g6
L211L
sg7
L10L
sa(dp11
g6
L605L
sg7
L10L
sa(dp12
g6
L704L
sg7
L10L
sa(dp13
g6
L744L
sg7
L10L
sasVhhints
p14
(lp15
(dp16
g6
L-14L
sg7
L10L
sa(dp17
g6
L355L
sg7
L10L
sa(dp18
g6
L423L
sg7
L10L
sa(dp19
g6
L794L
sg7
L10L
sa(dp20
g6
L799L
sg7
L10L
sass."
Colour: ff00
EndChar

StartChar: I
Encoding: 73 73 45
GlifName: I_
Width: 320
VWidth: 0
Flags: HMW
AnchorPoint: "LatinOgonek.mark" 105 0 basechar 0
AnchorPoint: "LatinBelow.mark" 100 0 basechar 0
AnchorPoint: "LatinAbove.mark" 132 150 basechar 0
LayerCount: 2
Fore
SplineSet
40 0 m 1
 206 780 l 1
 326 780 l 1
 160 0 l 1
 40 0 l 1
EndSplineSet
PickledDataWithLists: "(dp0
Vcom.fontlab.hintData
p1
(dp2
Vvhints
p3
(lp4
(dp5
Vposition
p6
L53L
sVwidth
p7
L10L
sa(dp8
g6
L77L
sg7
L10L
sa(dp9
g6
L188L
sg7
L10L
sa(dp10
g6
L194L
sg7
L10L
sa(dp11
g6
L282L
sg7
L10L
sa(dp12
g6
L288L
sg7
L10L
sa(dp13
g6
L414L
sg7
L10L
sasVhhints
p14
(lp15
(dp16
g6
L-3L
sg7
L10L
sa(dp17
g6
L3L
sg7
L10L
sa(dp18
g6
L59L
sg7
L10L
sa(dp19
g6
L67L
sg7
L10L
sa(dp20
g6
L729L
sg7
L10L
sa(dp21
g6
L788L
sg7
L10L
sass."
Colour: ff00
EndChar

StartChar: J
Encoding: 74 74 46
GlifName: J_
Width: 520
VWidth: 0
Flags: HMW
AnchorPoint: "LatinBelow.mark" 170 0 basechar 0
AnchorPoint: "LatinAbove.mark" 332 150 basechar 0
LayerCount: 2
Fore
SplineSet
-11 138 m 1
 112 147 l 1
 112 144 112 142 112 139 c 0
 112 91 137 67 179 67 c 0
 223 67 268 91 284 164 c 2
 415 780 l 1
 536 780 l 1
 405 164 l 2
 384 66 292 -19 161 -19 c 0
 36 -19 -11 56 -11 127 c 0
 -11 131 -11 134 -11 138 c 1
EndSplineSet
PickledDataWithLists: "(dp0
Vcom.fontlab.hintData
p1
(dp2
Vvhints
p3
(lp4
(dp5
Vposition
p6
L16L
sVwidth
p7
L10L
sa(dp8
g6
L152L
sg7
L10L
sa(dp9
g6
L318L
sg7
L10L
sa(dp10
g6
L412L
sg7
L10L
sa(dp11
g6
L492L
sg7
L10L
sasVhhints
p12
(lp13
(dp14
g6
L-14L
sg7
L10L
sa(dp15
g6
L55L
sg7
L9L
sa(dp16
g6
L129L
sg7
L10L
sa(dp17
g6
L730L
sg7
L10L
sa(dp18
g6
L788L
sg7
L10L
sass."
Colour: ff00
EndChar

StartChar: K
Encoding: 75 75 47
GlifName: K_
Width: 715
VWidth: 0
Flags: HMW
AnchorPoint: "LatinBelow.mark" 300 0 basechar 0
AnchorPoint: "LatinAbove.mark" 332 150 basechar 0
LayerCount: 2
Fore
SplineSet
30 0 m 1
 196 780 l 1
 312 780 l 1
 233 408 l 1
 640 780 l 1
 772 771 l 1
 771 765 l 1
 403 450 l 1
 651 6 l 1
 650 0 l 1
 509 0 l 1
 309 369 l 1
 206 281 l 1
 146 0 l 1
 30 0 l 1
EndSplineSet
PickledDataWithLists: "(dp0
Vcom.fontlab.hintData
p1
(dp2
Vvhints
p3
(lp4
(dp5
Vposition
p6
L64L
sVwidth
p7
L10L
sa(dp8
g6
L86L
sg7
L10L
sa(dp9
g6
L116L
sg7
L10L
sa(dp10
g6
L211L
sg7
L10L
sa(dp11
g6
L219L
sg7
L10L
sa(dp12
g6
L679L
sg7
L10L
sa(dp13
g6
L734L
sg7
L10L
sasVhhints
p14
(lp15
(dp16
g6
L-14L
sg7
L10L
sa(dp17
g6
L-9L
sg7
L10L
sa(dp18
g6
L799L
sg7
L10L
sass."
Colour: ff00
EndChar

StartChar: L
Encoding: 76 76 48
GlifName: L_
Width: 570
VWidth: 0
Flags: HMW
AnchorPoint: "LatinBelow.mark" 260 0 basechar 0
AnchorPoint: "LatinAbove.mark" 132 150 basechar 0
LayerCount: 2
Fore
SplineSet
30 0 m 1
 196 780 l 1
 318 780 l 1
 172 93 l 1
 505 93 l 1
 485 0 l 1
 30 0 l 1
EndSplineSet
PickledDataWithLists: "(dp0
Vcom.fontlab.hintData
p1
(dp2
Vvhints
p3
(lp4
(dp5
Vposition
p6
L126L
sVwidth
p7
L10L
sa(dp8
g6
L131L
sg7
L10L
sa(dp9
g6
L144L
sg7
L10L
sa(dp10
g6
L224L
sg7
L10L
sa(dp11
g6
L242L
sg7
L10L
sa(dp12
g6
L624L
sg7
L10L
sasVhhints
p13
(lp14
(dp15
g6
L-23L
sg7
L10L
sa(dp16
g6
L-9L
sg7
L10L
sa(dp17
g6
L45L
sg7
L10L
sa(dp18
g6
L59L
sg7
L10L
sa(dp19
g6
L794L
sg7
L10L
sass."
Colour: ff00
EndChar

StartChar: M
Encoding: 77 77 49
GlifName: M_
Width: 880
VWidth: 0
Flags: HMW
AnchorPoint: "LatinBelow.mark" 380 0 basechar 0
AnchorPoint: "LatinAbove.mark" 412 150 basechar 0
LayerCount: 2
Fore
SplineSet
730 0 m 1
 611 0 l 1
 729 554 l 1
 450 195 l 1
 392 195 l 1
 267 554 l 1
 149 0 l 1
 30 0 l 1
 193 769 l 1
 296 780 l 1
 448 318 l 1
 796 780 l 1
 893 769 l 1
 730 0 l 1
EndSplineSet
PickledDataWithLists: "(dp0
Vcom.fontlab.hintData
p1
(dp2
Vvhints
p3
(lp4
(dp5
Vposition
p6
L66L
sVwidth
p7
L10L
sa(dp8
g6
L102L
sg7
L10L
sa(dp9
g6
L197L
sg7
L10L
sa(dp10
g6
L691L
sg7
L10L
sa(dp11
g6
L785L
sg7
L10L
sa(dp12
g6
L824L
sg7
L10L
sasVhhints
p13
(lp14
(dp15
g6
L-19L
sg7
L10L
sa(dp16
g6
L-9L
sg7
L10L
sa(dp17
g6
L137L
sg7
L10L
sa(dp18
g6
L604L
sg7
L20L
sa(dp19
g6
L783L
sg7
L10L
sa(dp20
g6
L795L
sg7
L10L
sass."
Colour: ff00
EndChar

StartChar: N
Encoding: 78 78 50
GlifName: N_
Width: 790
VWidth: 0
Flags: HMW
AnchorPoint: "LatinBelow.mark" 335 0 basechar 0
AnchorPoint: "LatinAbove.mark" 367 150 basechar 0
LayerCount: 2
Fore
SplineSet
30 0 m 1
 193 769 l 1
 299 780 l 1
 564 193 l 1
 689 780 l 1
 806 780 l 1
 640 0 l 1
 537 0 l 1
 272 587 l 1
 147 0 l 1
 30 0 l 1
EndSplineSet
PickledDataWithLists: "(dp0
Vcom.fontlab.hintData
p1
(dp2
Vvhints
p3
(lp4
(dp5
Vposition
p6
L97L
sVwidth
p7
L10L
sa(dp8
g6
L111L
sg7
L10L
sa(dp9
g6
L209L
sg7
L10L
sa(dp10
g6
L601L
sg7
L10L
sa(dp11
g6
L613L
sg7
L10L
sa(dp12
g6
L699L
sg7
L10L
sa(dp13
g6
L711L
sg7
L10L
sasVhhints
p14
(lp15
(dp16
g6
L-14L
sg7
L10L
sa(dp17
g6
L-8L
sg7
L10L
sa(dp18
g6
L794L
sg7
L10L
sass."
Colour: ff00
EndChar

StartChar: O
Encoding: 79 79 51
GlifName: O_
Width: 820
VWidth: 0
Flags: HMW
AnchorPoint: "LatinOgonek.mark" 420 0 basechar 0
AnchorPoint: "LatinBelow.mark" 350 0 basechar 0
AnchorPoint: "LatinAbove.mark" 382 150 basechar 0
LayerCount: 2
Fore
SplineSet
79 372 m 2
 87 408 l 2
 126 590 248 799 520 799 c 0
 734 799 800 670 800 527 c 0
 800 488 795 447 787 408 c 2
 779 372 l 2
 740 190 618 -19 346 -19 c 0
 132 -19 66 110 66 253 c 0
 66 292 71 333 79 372 c 2
365 71 m 0
 518 71 617 189 656 372 c 2
 664 408 l 2
 672 448 677 485 677 518 c 0
 677 637 621 709 501 709 c 0
 348 709 249 591 210 408 c 2
 202 372 l 2
 194 332 189 295 189 262 c 0
 189 143 245 71 365 71 c 0
EndSplineSet
PickledDataWithLists: "(dp0
Vcom.fontlab.hintData
p1
(dp2
Vvhints
p3
(lp4
(dp5
Vposition
p6
L66L
sVwidth
p7
L10L
sa(dp8
g6
L164L
sg7
L10L
sa(dp9
g6
L572L
sg7
L10L
sa(dp10
g6
L659L
sg7
L10L
sa(dp11
g6
L690L
sg7
L10L
sa(dp12
g6
L757L
sg7
L10L
sasVhhints
p13
(lp14
(dp15
g6
L-22L
sg7
L10L
sa(dp16
g6
L47L
sg7
L10L
sa(dp17
g6
L742L
sg7
L10L
sa(dp18
g6
L811L
sg7
L10L
sass."
Colour: ff00
EndChar

StartChar: P
Encoding: 80 80 52
GlifName: P_
Width: 710
VWidth: 0
Flags: HMW
AnchorPoint: "LatinBelow.mark" 100 0 basechar 0
AnchorPoint: "LatinAbove.mark" 332 150 basechar 0
LayerCount: 2
Fore
SplineSet
236 410 m 1
 268 408 314 406 362 406 c 0
 481 406 585 443 609 554 c 0
 612 566 613 577 613 588 c 0
 613 673 531 703 425 703 c 0
 377 703 330 701 298 699 c 1
 236 410 l 1
218 323 m 1
 149 0 l 1
 30 0 l 1
 100 329 l 1
 196 780 l 1
 214 781 337 789 458 789 c 0
 624 789 733 722 733 602 c 0
 733 587 732 571 728 554 c 0
 696 405 545 320 358 320 c 0
 309 320 260 321 218 323 c 1
EndSplineSet
PickledDataWithLists: "(dp0
Vcom.fontlab.hintData
p1
(dp2
Vvhints
p3
(lp4
(dp5
Vposition
p6
L26L
sVwidth
p7
L10L
sa(dp8
g6
L36L
sg7
L10L
sa(dp9
g6
L116L
sg7
L10L
sa(dp10
g6
L130L
sg7
L10L
sa(dp11
g6
L228L
sg7
L10L
sa(dp12
g6
L592L
sg7
L10L
sa(dp13
g6
L693L
sg7
L10L
sasVhhints
p14
(lp15
(dp16
g6
L-24L
sg7
L10L
sa(dp17
g6
L302L
sg7
L10L
sa(dp18
g6
L369L
sg7
L10L
sa(dp19
g6
L429L
sg7
L10L
sa(dp20
g6
L634L
sg7
L10L
sa(dp21
g6
L661L
sg7
L10L
sa(dp22
g6
L744L
sg7
L10L
sa(dp23
g6
L813L
sg7
L10L
sass."
Colour: ff00
EndChar

StartChar: Q
Encoding: 81 81 53
GlifName: Q_
Width: 820
VWidth: 0
Flags: HMW
AnchorPoint: "LatinBelow.mark" 350 0 basechar 0
AnchorPoint: "LatinAbove.mark" 382 150 basechar 0
LayerCount: 2
Fore
SplineSet
79 372 m 2
 87 408 l 2
 126 590 248 799 520 799 c 0
 734 799 800 670 800 527 c 0
 800 488 795 447 787 408 c 2
 779 372 l 2
 761 285 723 192 659 119 c 1
 748 36 l 1
 682 -32 l 1
 592 56 l 1
 528 10 448 -19 346 -19 c 0
 132 -19 66 110 66 253 c 0
 66 292 71 333 79 372 c 2
381 263 m 1
 441 325 l 1
 584 191 l 1
 617 239 641 301 656 372 c 2
 664 408 l 2
 672 448 677 485 677 518 c 0
 677 637 621 709 501 709 c 0
 348 709 249 591 210 408 c 2
 202 372 l 2
 194 332 189 295 189 262 c 0
 189 143 245 71 365 71 c 0
 426 71 479 90 522 124 c 1
 381 263 l 1
EndSplineSet
PickledDataWithLists: "(dp0
Vcom.fontlab.hintData
p1
(dp2
Vvhints
p3
(lp4
(dp5
Vposition
p6
L66L
sVwidth
p7
L10L
sa(dp8
g6
L164L
sg7
L10L
sa(dp9
g6
L407L
sg7
L10L
sa(dp10
g6
L491L
sg7
L10L
sa(dp11
g6
L675L
sg7
L10L
sa(dp12
g6
L690L
sg7
L10L
sa(dp13
g6
L760L
sg7
L10L
sa(dp14
g6
L769L
sg7
L10L
sasVhhints
p15
(lp16
(dp17
g6
L-206L
sg7
L10L
sa(dp18
g6
L-17L
sg7
L10L
sa(dp19
g6
L46L
sg7
L10L
sa(dp20
g6
L514L
sg7
L10L
sa(dp21
g6
L576L
sg7
L10L
sa(dp22
g6
L598L
sg7
L10L
sa(dp23
g6
L742L
sg7
L10L
sa(dp24
g6
L811L
sg7
L10L
sass."
Colour: ff00
EndChar

StartChar: R
Encoding: 82 82 54
GlifName: R_
Width: 730
VWidth: 0
Flags: HMW
AnchorPoint: "LatinBelow.mark" 300 0 basechar 0
AnchorPoint: "LatinAbove.mark" 332 150 basechar 0
LayerCount: 2
Fore
SplineSet
312 320 m 1
 279 321 247 322 218 323 c 1
 149 0 l 1
 30 0 l 1
 100 329 l 1
 196 780 l 1
 214 781 337 789 458 789 c 0
 624 789 733 722 733 602 c 0
 733 587 732 571 728 554 c 0
 701 428 590 348 443 326 c 1
 641 6 l 1
 640 0 l 1
 504 0 l 1
 312 320 l 1
236 410 m 1
 268 408 314 406 362 406 c 0
 481 406 585 443 609 554 c 0
 612 566 613 577 613 588 c 0
 613 673 531 703 425 703 c 0
 377 703 330 701 298 699 c 1
 236 410 l 1
EndSplineSet
PickledDataWithLists: "(dp0
Vcom.fontlab.hintData
p1
(dp2
Vvhints
p3
(lp4
(dp5
Vposition
p6
L26L
sVwidth
p7
L10L
sa(dp8
g6
L116L
sg7
L10L
sa(dp9
g6
L126L
sg7
L10L
sa(dp10
g6
L228L
sg7
L10L
sa(dp11
g6
L605L
sg7
L10L
sa(dp12
g6
L705L
sg7
L10L
sa(dp13
g6
L734L
sg7
L10L
sasVhhints
p14
(lp15
(dp16
g6
L-29L
sg7
L10L
sa(dp17
g6
L-24L
sg7
L10L
sa(dp18
g6
L332L
sg7
L10L
sa(dp19
g6
L401L
sg7
L10L
sa(dp20
g6
L430L
sg7
L10L
sa(dp21
g6
L634L
sg7
L10L
sa(dp22
g6
L661L
sg7
L10L
sa(dp23
g6
L745L
sg7
L10L
sa(dp24
g6
L812L
sg7
L10L
sass."
Colour: ff00
EndChar

StartChar: S
Encoding: 83 83 55
GlifName: S_
Width: 710
VWidth: 0
Flags: HMW
AnchorPoint: "LatinCedilla.mark" 320 0 basechar 0
AnchorPoint: "LatinBelow.mark" 295 0 basechar 0
AnchorPoint: "LatinAbove.mark" 327 150 basechar 0
LayerCount: 2
Fore
SplineSet
33 179 m 1
 156 196 l 1
 156 194 156 192 156 190 c 0
 156 132 200 68 309 68 c 0
 429 68 504 118 521 200 c 0
 523 210 524 220 524 228 c 0
 524 284 482 307 448 317 c 0
 394 333 314 360 260 381 c 0
 203 404 132 452 132 540 c 0
 132 552 133 565 136 579 c 0
 163 706 297 799 465 799 c 0
 640 799 704 687 704 609 c 0
 704 608 704 606 704 605 c 1
 581 588 l 1
 581 589 581 589 581 590 c 0
 581 648 539 712 446 712 c 0
 345 712 270 661 254 584 c 0
 253 577 252 570 252 564 c 0
 252 516 293 495 333 478 c 0
 384 458 462 432 511 416 c 0
 577 394 644 347 644 254 c 0
 644 239 643 223 639 206 c 0
 612 78 478 -19 291 -19 c 0
 100 -19 33 95 33 175 c 0
 33 176 33 178 33 179 c 1
EndSplineSet
PickledDataWithLists: "(dp0
Vcom.fontlab.hintData
p1
(dp2
Vvhints
p3
(lp4
(dp5
Vposition
p6
L60L
sVwidth
p7
L10L
sa(dp8
g6
L68L
sg7
L10L
sa(dp9
g6
L159L
sg7
L10L
sa(dp10
g6
L494L
sg7
L10L
sa(dp11
g6
L555L
sg7
L10L
sa(dp12
g6
L594L
sg7
L10L
sa(dp13
g6
L654L
sg7
L10L
sasVhhints
p14
(lp15
(dp16
g6
L-22L
sg7
L10L
sa(dp17
g6
L46L
sg7
L10L
sa(dp18
g6
L192L
sg7
L10L
sa(dp19
g6
L584L
sg7
L10L
sa(dp20
g6
L744L
sg7
L10L
sa(dp21
g6
L812L
sg7
L10L
sass."
Colour: ff00
EndChar

StartChar: T
Encoding: 84 84 56
GlifName: T_
Width: 620
VWidth: 0
Flags: HMW
AnchorPoint: "LatinCedilla.mark" 260 0 basechar 0
AnchorPoint: "LatinBelow.mark" 250 0 basechar 0
AnchorPoint: "LatinAbove.mark" 282 150 basechar 0
LayerCount: 2
Fore
SplineSet
117 691 m 1
 136 780 l 1
 696 780 l 1
 677 691 l 1
 457 691 l 1
 310 0 l 1
 190 0 l 1
 337 691 l 1
 117 691 l 1
EndSplineSet
PickledDataWithLists: "(dp0
Vcom.fontlab.hintData
p1
(dp2
Vvhints
p3
(lp4
(dp5
Vposition
p6
L25L
sVwidth
p7
L10L
sa(dp8
g6
L301L
sg7
L10L
sa(dp9
g6
L306L
sg7
L10L
sa(dp10
g6
L407L
sg7
L10L
sa(dp11
g6
L674L
sg7
L10L
sasVhhints
p12
(lp13
(dp14
g6
L-19L
sg7
L10L
sa(dp15
g6
L722L
sg7
L10L
sa(dp16
g6
L731L
sg7
L10L
sa(dp17
g6
L790L
sg7
L10L
sa(dp18
g6
L800L
sg7
L10L
sass."
Colour: ff00
EndChar

StartChar: U
Encoding: 85 85 57
GlifName: U_
Width: 770
VWidth: 0
Flags: HMW
AnchorPoint: "LatinOgonek.mark" 420 0 basechar 0
AnchorPoint: "LatinBelow.mark" 325 0 basechar 0
AnchorPoint: "LatinAbove.mark" 357 150 basechar 0
LayerCount: 2
Fore
SplineSet
71 240 m 2
 186 780 l 1
 308 780 l 1
 193 240 l 2
 190 224 188 210 188 196 c 0
 188 113 249 71 340 71 c 0
 446 71 535 127 559 240 c 2
 674 780 l 1
 796 780 l 1
 681 240 l 2
 650 93 507 -18 321 -18 c 0
 158 -18 65 67 65 187 c 0
 65 204 67 222 71 240 c 2
EndSplineSet
PickledDataWithLists: "(dp0
Vcom.fontlab.hintData
p1
(dp2
Vvhints
p3
(lp4
(dp5
Vposition
p6
L96L
sVwidth
p7
L10L
sa(dp8
g6
L107L
sg7
L10L
sa(dp9
g6
L194L
sg7
L10L
sa(dp10
g6
L205L
sg7
L10L
sa(dp11
g6
L603L
sg7
L10L
sa(dp12
g6
L616L
sg7
L10L
sa(dp13
g6
L704L
sg7
L10L
sa(dp14
g6
L714L
sg7
L10L
sasVhhints
p15
(lp16
(dp17
g6
L-24L
sg7
L10L
sa(dp18
g6
L44L
sg7
L10L
sa(dp19
g6
L789L
sg7
L10L
sass."
EndChar

StartChar: V
Encoding: 86 86 58
GlifName: V_
Width: 750
VWidth: 0
Flags: HMW
AnchorPoint: "LatinBelow.mark" 315 0 basechar 0
AnchorPoint: "LatinAbove.mark" 347 150 basechar 0
LayerCount: 2
Fore
SplineSet
122 761 m 1
 123 769 l 1
 267 780 l 1
 346 148 l 1
 695 780 l 1
 833 769 l 1
 832 761 l 1
 365 0 l 1
 265 0 l 1
 122 761 l 1
EndSplineSet
PickledDataWithLists: "(dp0
Vcom.fontlab.hintData
p1
(dp2
Vvhints
p3
(lp4
(dp5
Vposition
p6
L41L
sVwidth
p7
L10L
sa(dp8
g6
L759L
sg7
L10L
sasVhhints
p9
(lp10
(dp11
g6
L-21L
sg7
L10L
sa(dp12
g6
L781L
sg7
L10L
sa(dp13
g6
L794L
sg7
L10L
sass."
EndChar

StartChar: W
Encoding: 87 87 59
GlifName: W_
Width: 1060
VWidth: 0
Flags: HMW
AnchorPoint: "LatinBelow.mark" 470 0 basechar 0
AnchorPoint: "LatinAbove.mark" 502 150 basechar 0
LayerCount: 2
Fore
SplineSet
1137 761 m 1
 747 0 l 1
 643 0 l 1
 595 590 l 1
 297 0 l 1
 193 0 l 1
 127 761 l 1
 128 769 l 1
 262 780 l 1
 290 168 l 1
 582 760 l 1
 682 760 l 1
 722 168 l 1
 1010 780 l 1
 1138 769 l 1
 1137 761 l 1
EndSplineSet
PickledDataWithLists: "(dp0
Vcom.fontlab.hintData
p1
(dp2
Vvhints
p3
(lp4
(dp5
Vposition
p6
L46L
sVwidth
p7
L10L
sa(dp8
g6
L1045L
sg7
L10L
sasVhhints
p9
(lp10
(dp11
g6
L-10L
sg7
L10L
sa(dp12
g6
L762L
sg7
L10L
sa(dp13
g6
L790L
sg7
L10L
sass."
Colour: ff00
EndChar

StartChar: X
Encoding: 88 88 60
GlifName: X_
Width: 740
VWidth: 0
Flags: HMW
AnchorPoint: "LatinBelow.mark" 310 0 basechar 0
AnchorPoint: "LatinAbove.mark" 342 150 basechar 0
LayerCount: 2
Fore
SplineSet
157 761 m 1
 158 768 l 1
 294 780 l 1
 414 490 l 1
 658 780 l 1
 788 768 l 1
 787 761 l 1
 466 415 l 1
 676 6 l 1
 675 0 l 1
 536 0 l 1
 378 319 l 1
 84 0 l 1
 -55 0 l 1
 -54 6 l 1
 330 415 l 1
 157 761 l 1
EndSplineSet
PickledDataWithLists: "(dp0
Vcom.fontlab.hintData
p1
(dp2
Vvhints
p3
(lp4
(dp5
Vposition
p6
L31L
sVwidth
p7
L10L
sa(dp8
g6
L91L
sg7
L10L
sa(dp9
g6
L687L
sg7
L10L
sa(dp10
g6
L734L
sg7
L10L
sasVhhints
p11
(lp12
(dp13
g6
L-9L
sg7
L10L
sa(dp14
g6
L4L
sg7
L10L
sa(dp15
g6
L789L
sg7
L10L
sass."
Colour: ff00
EndChar

StartChar: Y
Encoding: 89 89 61
GlifName: Y_
Width: 670
VWidth: 0
Flags: HMW
AnchorPoint: "LatinBelow.mark" 275 0 basechar 0
AnchorPoint: "LatinAbove.mark" 307 150 basechar 0
LayerCount: 2
Fore
SplineSet
112 761 m 1
 113 769 l 1
 251 780 l 1
 363 412 l 1
 631 780 l 1
 763 769 l 1
 762 761 l 1
 398 295 l 1
 335 0 l 1
 215 0 l 1
 278 295 l 1
 112 761 l 1
EndSplineSet
PickledDataWithLists: "(dp0
Vcom.fontlab.hintData
p1
(dp2
Vvhints
p3
(lp4
(dp5
Vposition
p6
L35L
sVwidth
p7
L10L
sa(dp8
g6
L310L
sg7
L10L
sa(dp9
g6
L408L
sg7
L10L
sa(dp10
g6
L414L
sg7
L10L
sa(dp11
g6
L675L
sg7
L10L
sasVhhints
p12
(lp13
(dp14
g6
L-20L
sg7
L10L
sa(dp15
g6
L789L
sg7
L10L
sa(dp16
g6
L800L
sg7
L10L
sass."
EndChar

StartChar: Z
Encoding: 90 90 62
GlifName: Z_
Width: 670
VWidth: 0
Flags: HMW
AnchorPoint: "LatinBelow.mark" 275 0 basechar 0
AnchorPoint: "LatinAbove.mark" 307 150 basechar 0
LayerCount: 2
Fore
SplineSet
-10 69 m 1
 550 687 l 1
 147 687 l 1
 167 780 l 1
 722 780 l 1
 716 711 l 1
 157 93 l 1
 595 93 l 1
 575 0 l 1
 -16 0 l 1
 -10 69 l 1
EndSplineSet
PickledDataWithLists: "(dp0
Vcom.fontlab.hintData
p1
(dp2
Vvhints
p3
(lp4
(dp5
Vposition
p6
L46L
sVwidth
p7
L10L
sa(dp8
g6
L66L
sg7
L10L
sa(dp9
g6
L679L
sg7
L10L
sa(dp10
g6
L699L
sg7
L10L
sasVhhints
p11
(lp12
(dp13
g6
L-13L
sg7
L10L
sa(dp14
g6
L64L
sg7
L10L
sa(dp15
g6
L75L
sg7
L10L
sa(dp16
g6
L709L
sg7
L10L
sa(dp17
g6
L779L
sg7
L10L
sa(dp18
g6
L785L
sg7
L10L
sa(dp19
g6
L790L
sg7
L10L
sass."
Colour: ff00
EndChar

StartChar: bracketleft
Encoding: 91 91 63
GlifName: bracketleft
Width: 435
VWidth: 0
Flags: HMW
LayerCount: 2
Fore
SplineSet
34 -120 m 1
 251 900 l 1
 476 900 l 1
 462 831 l 1
 334 831 l 1
 146 -51 l 1
 272 -51 l 1
 257 -120 l 1
 34 -120 l 1
EndSplineSet
PickledDataWithLists: "(dp0
Vcom.fontlab.hintData
p1
(dp2
Vvhints
p3
(lp4
(dp5
Vposition
p6
L71L
sVwidth
p7
L10L
sa(dp8
g6
L92L
sg7
L10L
sa(dp9
g6
L161L
sg7
L10L
sa(dp10
g6
L289L
sg7
L10L
sasVhhints
p11
(lp12
(dp13
g6
L-91L
sg7
L10L
sa(dp14
g6
L-44L
sg7
L10L
sa(dp15
g6
L830L
sg7
L10L
sa(dp16
g6
L877L
sg7
L10L
sass."
EndChar

StartChar: backslash
Encoding: 92 92 64
GlifName: backslash
Width: 510
VWidth: 0
Flags: HMW
LayerCount: 2
Fore
SplineSet
410 0 m 1
 307 0 l 1
 145 774 l 1
 146 780 l 1
 248 780 l 1
 411 6 l 1
 410 0 l 1
EndSplineSet
PickledDataWithLists: "(dp0
Vcom.fontlab.hintData
p1
(dp2
Vvhints
p3
(lp4
(dp5
Vposition
p6
L40L
sVwidth
p7
L10L
sa(dp8
g6
L430L
sg7
L10L
sasVhhints
p9
(lp10
(dp11
g6
L-29L
sg7
L10L
sa(dp12
g6
L819L
sg7
L10L
sass."
EndChar

StartChar: bracketright
Encoding: 93 93 65
GlifName: bracketright
Width: 435
VWidth: 0
Flags: HMW
LayerCount: 2
Fore
SplineSet
446 900 m 1
 229 -120 l 1
 4 -120 l 1
 19 -51 l 1
 147 -51 l 1
 335 831 l 1
 209 831 l 1
 223 900 l 1
 446 900 l 1
EndSplineSet
PickledDataWithLists: "(dp0
Vcom.fontlab.hintData
p1
(dp2
Vvhints
p3
(lp4
(dp5
Vposition
p6
L61L
sVwidth
p7
L10L
sa(dp8
g6
L189L
sg7
L10L
sa(dp9
g6
L258L
sg7
L10L
sa(dp10
g6
L279L
sg7
L10L
sasVhhints
p11
(lp12
(dp13
g6
L-90L
sg7
L10L
sa(dp14
g6
L-42L
sg7
L10L
sa(dp15
g6
L829L
sg7
L10L
sa(dp16
g6
L879L
sg7
L10L
sass."
EndChar

StartChar: asciicircum
Encoding: 94 94 66
GlifName: asciicircum
Width: 630
VWidth: 0
Flags: HMW
LayerCount: 2
Fore
SplineSet
95 589 m 1
 422 889 l 1
 466 889 l 1
 665 589 l 1
 599 549 l 1
 418 768 l 1
 145 549 l 1
 95 589 l 1
EndSplineSet
PickledDataWithLists: "(dp0
Vcom.fontlab.hintData
p1
(dp2
Vvhints
p3
(lp4
(dp5
Vposition
p6
L23L
sVwidth
p7
L10L
sasVhhints
p8
(lp9
(dp10
g6
L532L
sg7
L10L
sa(dp11
g6
L839L
sg7
L10L
sass."
EndChar

StartChar: underscore
Encoding: 95 95 67
GlifName: underscore
Width: 600
VWidth: 0
Flags: HMW
LayerCount: 2
Fore
SplineSet
-60 0 m 25
 540 0 l 25
 522 -86 l 25
 -78 -86 l 25
 -60 0 l 25
EndSplineSet
PickledDataWithLists: "(dp0
Vcom.fontlab.hintData
p1
(dp2
Vvhints
p3
(lp4
(dp5
Vposition
p6
L30L
sVwidth
p7
L10L
sa(dp8
g6
L559L
sg7
L10L
sasVhhints
p9
(lp10
(dp11
g6
L-69L
sg7
L10L
sa(dp12
g6
L-6L
sg7
L10L
sa(dp13
g6
L1L
sg7
L10L
sass."
EndChar

StartChar: grave
Encoding: 96 96 68
GlifName: grave
Width: 390
VWidth: 0
Flags: HMW
LayerCount: 2
Fore
SplineSet
115 824 m 1
 215 888 l 1
 425 589 l 1
 359 549 l 1
 115 824 l 1
EndSplineSet
PickledDataWithLists: "(dp0
Vcom.fontlab.hintData
p1
(dp2
Vvhints
p3
(lp4
(dp5
Vposition
p6
L20L
sVwidth
p7
L10L
sasVhhints
p8
(lp9
(dp10
g6
L541L
sg7
L10L
sa(dp11
g6
L838L
sg7
L10L
sass."
EndChar

StartChar: a
Encoding: 97 97 69
GlifName: a
Width: 625
VWidth: 0
Flags: HMW
AnchorPoint: "LatinOgonek.mark" 455 0 basechar 0
AnchorPoint: "LatinBelow.mark" 270 0 basechar 0
AnchorPoint: "LatinAbove.mark" 250 0 basechar 0
LayerCount: 2
Fore
SplineSet
32 173 m 0
 48 249 127 323 261 323 c 0
 326 323 389 318 437 313 c 1
 459 419 l 2
 461 431 463 441 463 451 c 0
 463 512 417 537 354 537 c 0
 285 537 229 497 203 424 c 1
 92 433 l 1
 125 526 221 619 372 619 c 0
 501 619 573 553 573 460 c 0
 573 447 572 433 569 419 c 2
 510 143 l 2
 507 129 505 118 505 108 c 0
 505 78 520 65 558 60 c 1
 514 -14 l 1
 474 -9 415 9 409 75 c 1
 364 26 299 -14 210 -14 c 0
 93 -14 27 40 27 129 c 0
 27 143 29 158 32 173 c 0
428 245 m 1
 385 251 323 257 253 257 c 0
 205 257 153 228 141 171 c 0
 139 160 137 149 137 140 c 0
 137 80 184 55 239 55 c 0
 337 55 393 135 421 210 c 1
 428 245 l 1
EndSplineSet
PickledDataWithLists: "(dp0
Vcom.fontlab.hintData
p1
(dp2
Vvhints
p3
(lp4
(dp5
Vposition
p6
L60L
sVwidth
p7
L10L
sa(dp8
g6
L149L
sg7
L10L
sa(dp9
g6
L441L
sg7
L10L
sa(dp10
g6
L529L
sg7
L10L
sa(dp11
g6
L649L
sg7
L10L
sasVhhints
p12
(lp13
(dp14
g6
L-21L
sg7
L10L
sa(dp15
g6
L-11L
sg7
L10L
sa(dp16
g6
L41L
sg7
L10L
sa(dp17
g6
L362L
sg7
L10L
sa(dp18
g6
L432L
sg7
L10L
sa(dp19
g6
L549L
sg7
L10L
sa(dp20
g6
L611L
sg7
L10L
sass."
Substitution2: "Latin.ss20 subtable" uni0251
Substitution2: "Latin.ss19 subtable" uni0251
Colour: ff00
EndChar

StartChar: b
Encoding: 98 98 70
GlifName: b
Width: 675
VWidth: 0
Flags: HMW
AnchorPoint: "LatinBelow.mark" 300 0 basechar 0
AnchorPoint: "LatinAbove.mark" 113 180 basechar 0
LayerCount: 2
Fore
SplineSet
626 311 m 2
 621 289 l 2
 592 151 492 -14 305 -14 c 0
 221 -14 174 33 150 92 c 1
 121 0 l 1
 25 0 l 1
 197 810 l 1
 307 810 l 1
 245 518 l 1
 294 572 360 614 439 614 c 0
 586 614 636 511 636 400 c 0
 636 370 632 340 626 311 c 2
214 374 m 1
 183 226 l 1
 186 145 220 69 310 69 c 0
 407 69 478 148 508 289 c 2
 513 311 l 2
 520 343 523 371 523 396 c 0
 523 483 483 531 408 531 c 0
 318 531 251 455 214 374 c 1
EndSplineSet
PickledDataWithLists: "(dp0
Vcom.fontlab.hintData
p1
(dp2
Vvhints
p3
(lp4
(dp5
Vposition
p6
L81L
sVwidth
p7
L10L
sa(dp8
g6
L91L
sg7
L10L
sa(dp9
g6
L179L
sg7
L10L
sa(dp10
g6
L211L
sg7
L10L
sa(dp11
g6
L504L
sg7
L10L
sa(dp12
g6
L593L
sg7
L10L
sasVhhints
p13
(lp14
(dp15
g6
L-21L
sg7
L10L
sa(dp16
g6
L41L
sg7
L10L
sa(dp17
g6
L524L
sg7
L10L
sa(dp18
g6
L546L
sg7
L10L
sa(dp19
g6
L607L
sg7
L10L
sa(dp20
g6
L836L
sg7
L10L
sass."
Colour: ff00
EndChar

StartChar: c
Encoding: 99 99 71
GlifName: c
Width: 605
VWidth: 0
Flags: HMW
AnchorPoint: "LatinCedilla.mark" 270 0 basechar 0
AnchorPoint: "LatinBelow.mark" 270 0 basechar 0
AnchorPoint: "LatinAbove.mark" 270 0 basechar 0
LayerCount: 2
Fore
SplineSet
56 287 m 2
 62 313 l 2
 91 451 185 619 403 619 c 0
 560 619 606 519 606 456 c 0
 606 455 606 453 606 452 c 1
 490 442 l 1
 490 443 490 443 490 444 c 0
 490 486 458 536 385 536 c 0
 284 536 208 453 178 313 c 2
 172 287 l 2
 166 257 163 230 163 206 c 0
 163 116 205 64 285 64 c 0
 359 64 413 116 430 158 c 1
 541 148 l 1
 517 85 427 -19 267 -19 c 0
 96 -19 46 84 46 195 c 0
 46 226 50 257 56 287 c 2
EndSplineSet
PickledDataWithLists: "(dp0
Vcom.fontlab.hintData
p1
(dp2
Vvhints
p3
(lp4
(dp5
Vposition
p6
L58L
sVwidth
p7
L10L
sa(dp8
g6
L152L
sg7
L10L
sa(dp9
g6
L433L
sg7
L10L
sa(dp10
g6
L527L
sg7
L10L
sa(dp11
g6
L552L
sg7
L10L
sasVhhints
p12
(lp13
(dp14
g6
L-22L
sg7
L10L
sa(dp15
g6
L44L
sg7
L10L
sa(dp16
g6
L133L
sg7
L10L
sa(dp17
g6
L433L
sg7
L10L
sa(dp18
g6
L548L
sg7
L10L
sa(dp19
g6
L614L
sg7
L10L
sass."
Colour: ff00
EndChar

StartChar: d
Encoding: 100 100 72
GlifName: d
Width: 680
VWidth: 0
Flags: HMW
AnchorPoint: "LatinBelow.mark" 300 0 basechar 0
AnchorPoint: "LatinAbove.mark" 503 180 basechar 0
LayerCount: 2
Fore
SplineSet
56 289 m 2
 61 311 l 2
 90 449 191 614 378 614 c 0
 458 614 504 570 529 515 c 1
 592 810 l 1
 702 810 l 1
 560 143 l 2
 557 129 555 118 555 108 c 0
 555 78 570 65 608 60 c 1
 564 -14 l 1
 521 -9 458 11 458 87 c 0
 458 94 459 102 460 110 c 1
 408 44 336 -14 244 -14 c 0
 96 -14 46 90 46 201 c 0
 46 230 50 260 56 289 c 2
499 374 m 1
 496 455 463 531 373 531 c 0
 276 531 204 452 174 311 c 2
 169 289 l 2
 162 258 159 230 159 205 c 0
 159 117 199 69 275 69 c 0
 365 69 431 145 468 226 c 1
 499 374 l 1
EndSplineSet
PickledDataWithLists: "(dp0
Vcom.fontlab.hintData
p1
(dp2
Vvhints
p3
(lp4
(dp5
Vposition
p6
L61L
sVwidth
p7
L10L
sa(dp8
g6
L149L
sg7
L10L
sa(dp9
g6
L476L
sg7
L10L
sa(dp10
g6
L564L
sg7
L10L
sa(dp11
g6
L679L
sg7
L10L
sasVhhints
p12
(lp13
(dp14
g6
L-21L
sg7
L10L
sa(dp15
g6
L41L
sg7
L10L
sa(dp16
g6
L544L
sg7
L10L
sa(dp17
g6
L606L
sg7
L10L
sa(dp18
g6
L836L
sg7
L10L
sass."
Colour: ff00
EndChar

StartChar: e
Encoding: 101 101 73
GlifName: e
Width: 640
VWidth: 0
Flags: HMW
AnchorPoint: "LatinOgonek.mark" 350 0 basechar 0
AnchorPoint: "LatinBelow.mark" 270 0 basechar 0
AnchorPoint: "LatinAbove.mark" 270 0 basechar 0
LayerCount: 2
Fore
SplineSet
56 286 m 2
 62 314 l 2
 91 452 188 619 399 619 c 0
 545 619 609 529 609 422 c 0
 609 402 606 381 602 360 c 0
 596 333 587 306 576 279 c 1
 165 279 l 1
 159 251 157 226 157 203 c 0
 157 114 198 61 280 61 c 0
 360 61 417 115 433 158 c 1
 539 148 l 1
 514 83 421 -19 263 -19 c 0
 96 -19 45 82 45 192 c 0
 45 223 49 255 56 286 c 2
182 351 m 1
 494 351 l 2
 495 354 495 358 496 361 c 0
 501 382 503 401 503 418 c 0
 503 499 455 539 382 539 c 0
 287 539 216 468 182 351 c 1
EndSplineSet
PickledDataWithLists: "(dp0
Vcom.fontlab.hintData
p1
(dp2
Vvhints
p3
(lp4
(dp5
Vposition
p6
L45L
sVwidth
p7
L10L
sa(dp8
g6
L71L
sg7
L10L
sa(dp9
g6
L159L
sg7
L10L
sa(dp10
g6
L471L
sg7
L10L
sa(dp11
g6
L559L
sg7
L10L
sa(dp12
g6
L570L
sg7
L10L
sasVhhints
p13
(lp14
(dp15
g6
L-20L
sg7
L10L
sa(dp16
g6
L42L
sg7
L10L
sa(dp17
g6
L131L
sg7
L10L
sa(dp18
g6
L552L
sg7
L10L
sa(dp19
g6
L613L
sg7
L10L
sass."
Colour: ff00
EndChar

StartChar: f
Encoding: 102 102 74
GlifName: f
Width: 400
VWidth: 0
Flags: HMW
AnchorPoint: "LatinBelow.mark" 120 0 basechar 0
AnchorPoint: "LatinAbove.mark" 248 180 basechar 0
LayerCount: 2
Fore
SplineSet
82 528 m 1
 98 600 l 1
 188 600 l 1
 204 677 l 2
 217 736 273 829 399 829 c 0
 478 829 519 794 531 783 c 1
 470 722 l 1
 459 731 433 750 390 750 c 0
 350 750 323 719 314 677 c 2
 298 600 l 1
 448 600 l 1
 432 528 l 1
 285 528 l 1
 173 0 l 1
 60 0 l 1
 172 528 l 1
 82 528 l 1
EndSplineSet
PickledDataWithLists: "(dp0
Vcom.fontlab.hintData
p1
(dp2
Vvhints
p3
(lp4
(dp5
Vposition
p6
L20L
sVwidth
p7
L10L
sa(dp8
g6
L132L
sg7
L10L
sa(dp9
g6
L166L
sg7
L10L
sa(dp10
g6
L219L
sg7
L9L
sa(dp11
g6
L255L
sg7
L10L
sa(dp12
g6
L399L
sg7
L10L
sa(dp13
g6
L469L
sg7
L10L
sasVhhints
p14
(lp15
(dp16
g6
L-20L
sg7
L10L
sa(dp17
g6
L521L
sg7
L10L
sa(dp18
g6
L586L
sg7
L10L
sa(dp19
g6
L591L
sg7
L10L
sa(dp20
g6
L759L
sg7
L10L
sa(dp21
g6
L803L
sg7
L10L
sa(dp22
g6
L864L
sg7
L10L
sass."
Colour: ff00
EndChar

StartChar: h
Encoding: 104 104 76
GlifName: h
Width: 665
VWidth: 0
Flags: HMW
AnchorPoint: "LatinBelow.mark" 300 0 basechar 0
AnchorPoint: "LatinAbove.mark" 113 180 basechar 0
LayerCount: 2
Fore
SplineSet
25 0 m 1
 197 810 l 1
 307 810 l 1
 230 448 l 1
 290 534 380 614 493 614 c 0
 589 614 629 553 629 474 c 0
 629 456 627 436 623 416 c 2
 535 0 l 1
 422 0 l 1
 510 412 l 2
 513 427 515 440 515 451 c 0
 515 505 482 524 443 524 c 0
 347 524 241 407 201 298 c 1
 138 0 l 1
 25 0 l 1
EndSplineSet
PickledDataWithLists: "(dp0
Vcom.fontlab.hintData
p1
(dp2
Vvhints
p3
(lp4
(dp5
Vposition
p6
L65L
sVwidth
p7
L10L
sa(dp8
g6
L106L
sg7
L10L
sa(dp9
g6
L187L
sg7
L10L
sa(dp10
g6
L491L
sg7
L10L
sa(dp11
g6
L496L
sg7
L10L
sa(dp12
g6
L579L
sg7
L10L
sa(dp13
g6
L584L
sg7
L10L
sasVhhints
p14
(lp15
(dp16
g6
L-14L
sg7
L10L
sa(dp17
g6
L549L
sg7
L10L
sa(dp18
g6
L611L
sg7
L10L
sa(dp19
g6
L836L
sg7
L10L
sass."
Colour: ff00
EndChar

StartChar: i
Encoding: 105 105 77
GlifName: i
Width: 300
VWidth: 0
GlyphClass: 3
Flags: HMW
AnchorPoint: "LatinOgonek.mark" 95 0 basechar 0
AnchorPoint: "LatinBelow.mark" 90 0 basechar 0
AnchorPoint: "LatinAbove.mark" 128 180 basechar 0
LayerCount: 2
Fore
SplineSet
33 0 m 1
 161 600 l 1
 275 600 l 1
 147 0 l 1
 33 0 l 1
272 854 m 0
 311 854 338 833 338 797 c 0
 338 792 337 786 336 780 c 0
 326 734 285 706 240 706 c 0
 201 706 174 727 174 763 c 0
 174 768 175 774 176 780 c 0
 186 826 227 854 272 854 c 0
EndSplineSet
PickledDataWithLists: "(dp0
Vcom.fontlab.hintData
p1
(dp2
Vvhints
p3
(lp4
(dp5
Vposition
p6
L86L
sVwidth
p7
L10L
sa(dp8
g6
L116L
sg7
L10L
sa(dp9
g6
L204L
sg7
L10L
sa(dp10
g6
L234L
sg7
L10L
sa(dp11
g6
L244L
sg7
L10L
sasVhhints
p12
(lp13
(dp14
g6
L-21L
sg7
L10L
sa(dp15
g6
L595L
sg7
L10L
sa(dp16
g6
L725L
sg7
L10L
sa(dp17
g6
L826L
sg7
L20L
sa(dp18
g6
L852L
sg7
L10L
sass."
Substitution2: "Latin.ij.dotless subtable" dotlessi
Ligature2: "Latin.ij subtable" dotlessi uni0307
EndChar

StartChar: j
Encoding: 106 106 78
GlifName: j
Width: 310
VWidth: 0
GlyphClass: 3
Flags: HMW
AnchorPoint: "LatinBelow.mark" 52 -180 basechar 0
AnchorPoint: "LatinAbove.mark" 128 180 basechar 0
LayerCount: 2
Fore
SplineSet
-97 -151 m 1
 -24 -129 23 -95 40 -14 c 2
 171 600 l 1
 285 600 l 1
 153 -21 l 2
 129 -134 26 -198 -77 -224 c 1
 -97 -151 l 1
282 854 m 0
 321 854 348 833 348 797 c 0
 348 792 347 786 346 780 c 0
 336 734 295 706 250 706 c 0
 211 706 184 727 184 763 c 0
 184 768 185 774 186 780 c 0
 196 826 237 854 282 854 c 0
EndSplineSet
PickledDataWithLists: "(dp0
Vcom.fontlab.hintData
p1
(dp2
Vvhints
p3
(lp4
(dp5
Vposition
p6
L31L
sVwidth
p7
L10L
sa(dp8
g6
L86L
sg7
L10L
sa(dp9
g6
L126L
sg7
L10L
sa(dp10
g6
L146L
sg7
L10L
sa(dp11
g6
L234L
sg7
L10L
sa(dp12
g6
L244L
sg7
L10L
sasVhhints
p13
(lp14
(dp15
g6
L-246L
sg7
L10L
sa(dp16
g6
L596L
sg7
L10L
sa(dp17
g6
L725L
sg7
L10L
sa(dp18
g6
L826L
sg7
L20L
sa(dp19
g6
L852L
sg7
L10L
sass."
Substitution2: "Latin.ij.dotless subtable" uni0237
Ligature2: "Latin.ij subtable" uni0237 uni200D uni0307
Ligature2: "Latin.ij subtable" uni0237 uni0307
Ligature2: "Latin.ij subtable" dotlessi uni200D uni0307
EndChar

StartChar: k
Encoding: 107 107 79
GlifName: k
Width: 605
VWidth: 0
Flags: HMW
AnchorPoint: "LatinBelow.mark" 300 0 basechar 0
AnchorPoint: "LatinAbove.mark" 113 180 basechar 0
LayerCount: 2
Fore
SplineSet
35 0 m 1
 207 810 l 1
 315 810 l 1
 213 329 l 1
 514 600 l 1
 636 593 l 1
 635 588 l 1
 346 344 l 1
 541 5 l 1
 540 0 l 1
 410 0 l 1
 260 271 l 1
 188 211 l 1
 143 0 l 1
 35 0 l 1
EndSplineSet
PickledDataWithLists: "(dp0
Vcom.fontlab.hintData
p1
(dp2
Vvhints
p3
(lp4
(dp5
Vposition
p6
L75L
sVwidth
p7
L10L
sa(dp8
g6
L105L
sg7
L10L
sa(dp9
g6
L194L
sg7
L10L
sa(dp10
g6
L539L
sg7
L10L
sa(dp11
g6
L580L
sg7
L10L
sasVhhints
p12
(lp13
(dp14
g6
L-11L
sg7
L10L
sa(dp15
g6
L596L
sg7
L10L
sa(dp16
g6
L836L
sg7
L10L
sass."
Colour: ff00
EndChar

StartChar: l
Encoding: 108 108 80
GlifName: l
Width: 315
VWidth: 0
Flags: HMW
AnchorPoint: "LatinBelow.mark" 130 0 basechar 0
AnchorPoint: "LatinAbove.mark" 118 180 basechar 0
LayerCount: 2
Fore
SplineSet
57 128 m 2
 202 810 l 1
 315 810 l 1
 172 138 l 2
 170 131 170 124 170 118 c 0
 170 79 202 65 258 60 c 1
 220 -14 l 1
 148 -9 54 11 54 98 c 0
 54 107 55 117 57 128 c 2
EndSplineSet
PickledDataWithLists: "(dp0
Vcom.fontlab.hintData
p1
(dp2
Vvhints
p3
(lp4
(dp5
Vposition
p6
L106L
sVwidth
p7
L10L
sa(dp8
g6
L111L
sg7
L10L
sa(dp9
g6
L194L
sg7
L10L
sa(dp10
g6
L199L
sg7
L10L
sa(dp11
g6
L315L
sg7
L10L
sasVhhints
p12
(lp13
(dp14
g6
L-23L
sg7
L10L
sa(dp15
g6
L830L
sg7
L10L
sass."
EndChar

StartChar: m
Encoding: 109 109 81
GlifName: m
Width: 945
VWidth: 0
Flags: HMW
AnchorPoint: "LatinBelow.mark" 420 0 basechar 0
AnchorPoint: "LatinAbove.mark" 420 0 basechar 0
LayerCount: 2
Fore
SplineSet
141 594 m 1
 246 603 l 1
 234 479 l 1
 282 550 350 610 442 610 c 0
 531 610 570 554 572 480 c 1
 620 551 688 610 780 610 c 0
 872 610 910 550 910 474 c 0
 910 455 907 436 903 416 c 2
 815 0 l 1
 702 0 l 1
 790 412 l 2
 793 428 795 442 795 454 c 0
 795 505 767 521 731 521 c 0
 652 521 582 421 545 322 c 1
 477 0 l 1
 363 0 l 1
 451 412 l 2
 454 428 456 443 456 455 c 0
 456 505 428 521 393 521 c 0
 314 521 243 420 206 321 c 1
 138 0 l 1
 25 0 l 1
 114 420 l 1
 141 594 l 1
EndSplineSet
PickledDataWithLists: "(dp0
Vcom.fontlab.hintData
p1
(dp2
Vvhints
p3
(lp4
(dp5
Vposition
p6
L76L
sVwidth
p7
L10L
sa(dp8
g6
L96L
sg7
L10L
sa(dp9
g6
L167L
sg7
L10L
sa(dp10
g6
L436L
sg7
L10L
sa(dp11
g6
L441L
sg7
L10L
sa(dp12
g6
L776L
sg7
L10L
sa(dp13
g6
L781L
sg7
L10L
sa(dp14
g6
L864L
sg7
L10L
sa(dp15
g6
L869L
sg7
L10L
sasVhhints
p16
(lp17
(dp18
g6
L-19L
sg7
L10L
sa(dp19
g6
L-10L
sg7
L10L
sa(dp20
g6
L549L
sg7
L10L
sa(dp21
g6
L606L
sg7
L10L
sa(dp22
g6
L611L
sg7
L10L
sass."
Colour: ff00
EndChar

StartChar: n
Encoding: 110 110 82
GlifName: n
Width: 655
VWidth: 0
Flags: HMW
AnchorPoint: "LatinBelow.mark" 300 0 basechar 0
AnchorPoint: "LatinAbove.mark" 270 0 basechar 0
LayerCount: 2
Fore
SplineSet
25 0 m 1
 114 420 l 1
 141 594 l 1
 246 603 l 1
 230 453 l 1
 288 537 374 614 484 614 c 0
 579 614 619 552 619 473 c 0
 619 455 617 436 613 416 c 2
 525 0 l 1
 412 0 l 1
 500 412 l 2
 503 427 505 440 505 451 c 0
 505 505 472 524 434 524 c 0
 340 524 241 408 202 299 c 1
 138 0 l 1
 25 0 l 1
EndSplineSet
PickledDataWithLists: "(dp0
Vcom.fontlab.hintData
p1
(dp2
Vvhints
p3
(lp4
(dp5
Vposition
p6
L55L
sVwidth
p7
L10L
sa(dp8
g6
L96L
sg7
L10L
sa(dp9
g6
L481L
sg7
L10L
sa(dp10
g6
L486L
sg7
L10L
sa(dp11
g6
L569L
sg7
L10L
sa(dp12
g6
L574L
sg7
L10L
sasVhhints
p13
(lp14
(dp15
g6
L-15L
sg7
L10L
sa(dp16
g6
L-10L
sg7
L10L
sa(dp17
g6
L549L
sg7
L10L
sa(dp18
g6
L606L
sg7
L10L
sa(dp19
g6
L611L
sg7
L10L
sass."
Substitution2: "Latin.sups subtable" n.sups
Substitution2: "Latin.sups subtable" n.sups
Colour: ff00
EndChar

StartChar: o
Encoding: 111 111 83
GlifName: o
Width: 660
VWidth: 0
Flags: HMW
AnchorPoint: "LatinOgonek.mark" 340 0 basechar 0
AnchorPoint: "LatinBelow.mark" 270 0 basechar 0
AnchorPoint: "LatinAbove.mark" 270 0 basechar 0
LayerCount: 2
Fore
SplineSet
56 286 m 2
 62 314 l 2
 91 452 185 619 402 619 c 0
 572 619 622 517 622 406 c 0
 622 375 618 344 612 314 c 2
 606 286 l 2
 577 148 483 -19 266 -19 c 0
 96 -19 46 83 46 194 c 0
 46 225 50 256 56 286 c 2
283 63 m 0
 388 63 463 146 493 286 c 2
 499 314 l 2
 505 344 509 371 509 396 c 0
 509 486 466 537 384 537 c 0
 279 537 205 454 175 314 c 2
 169 286 l 2
 162 255 159 228 159 203 c 0
 159 114 201 63 283 63 c 0
EndSplineSet
PickledDataWithLists: "(dp0
Vcom.fontlab.hintData
p1
(dp2
Vvhints
p3
(lp4
(dp5
Vposition
p6
L61L
sVwidth
p7
L10L
sa(dp8
g6
L149L
sg7
L10L
sa(dp9
g6
L441L
sg7
L10L
sa(dp10
g6
L506L
sg7
L10L
sa(dp11
g6
L594L
sg7
L10L
sasVhhints
p12
(lp13
(dp14
g6
L-21L
sg7
L10L
sa(dp15
g6
L42L
sg7
L9L
sa(dp16
g6
L552L
sg7
L10L
sa(dp17
g6
L614L
sg7
L10L
sass."
Colour: ff00
EndChar

StartChar: p
Encoding: 112 112 84
GlifName: p
Width: 675
VWidth: 0
Flags: HMW
AnchorPoint: "LatinBelow.mark" 52 -180 basechar 0
AnchorPoint: "LatinAbove.mark" 270 0 basechar 0
LayerCount: 2
Fore
SplineSet
626 311 m 2
 621 289 l 2
 592 151 492 -14 305 -14 c 0
 227 -14 181 27 155 80 c 1
 93 -210 l 1
 -20 -210 l 1
 114 420 l 1
 141 594 l 1
 246 603 l 1
 236 508 l 1
 286 566 356 614 439 614 c 0
 586 614 636 511 636 400 c 0
 636 370 632 340 626 311 c 2
184 215 m 1
 189 138 224 69 310 69 c 0
 407 69 478 148 508 289 c 2
 513 311 l 2
 520 343 523 371 523 396 c 0
 523 483 483 531 408 531 c 0
 322 531 257 462 220 385 c 1
 184 215 l 1
EndSplineSet
PickledDataWithLists: "(dp0
Vcom.fontlab.hintData
p1
(dp2
Vvhints
p3
(lp4
(dp5
Vposition
p6
L41L
sVwidth
p7
L10L
sa(dp8
g6
L101L
sg7
L10L
sa(dp9
g6
L108L
sg7
L10L
sa(dp10
g6
L193L
sg7
L10L
sa(dp11
g6
L523L
sg7
L10L
sa(dp12
g6
L612L
sg7
L10L
sasVhhints
p13
(lp14
(dp15
g6
L-246L
sg7
L10L
sa(dp16
g6
L-16L
sg7
L10L
sa(dp17
g6
L46L
sg7
L10L
sa(dp18
g6
L549L
sg7
L10L
sa(dp19
g6
L610L
sg7
L10L
sass."
Colour: ff00
EndChar

StartChar: q
Encoding: 113 113 85
GlifName: q
Width: 675
VWidth: 0
Flags: HMW
AnchorPoint: "LatinBelow.mark" 424 -240 basechar 0
AnchorPoint: "LatinAbove.mark" 300 0 basechar 0
LayerCount: 2
Fore
SplineSet
56 289 m 2
 61 311 l 2
 90 449 191 614 378 614 c 0
 462 614 509 567 533 508 c 1
 562 600 l 1
 658 600 l 1
 485 -210 l 1
 375 -210 l 1
 437 82 l 1
 388 28 323 -14 244 -14 c 0
 96 -14 46 90 46 201 c 0
 46 230 50 260 56 289 c 2
468 226 m 1
 499 374 l 1
 496 455 463 531 373 531 c 0
 276 531 204 452 174 311 c 2
 169 289 l 2
 162 258 159 230 159 205 c 0
 159 117 199 69 275 69 c 0
 365 69 431 145 468 226 c 1
EndSplineSet
PickledDataWithLists: "(dp0
Vcom.fontlab.hintData
p1
(dp2
Vvhints
p3
(lp4
(dp5
Vposition
p6
L59L
sVwidth
p7
L10L
sa(dp8
g6
L149L
sg7
L10L
sa(dp9
g6
L444L
sg7
L10L
sa(dp10
g6
L459L
sg7
L10L
sa(dp11
g6
L471L
sg7
L10L
sa(dp12
g6
L547L
sg7
L10L
sa(dp13
g6
L559L
sg7
L10L
sa(dp14
g6
L649L
sg7
L10L
sasVhhints
p15
(lp16
(dp17
g6
L-261L
sg7
L10L
sa(dp18
g6
L-184L
sg7
L10L
sa(dp19
g6
L-17L
sg7
L10L
sa(dp20
g6
L44L
sg7
L10L
sa(dp21
g6
L66L
sg7
L10L
sa(dp22
g6
L549L
sg7
L10L
sa(dp23
g6
L611L
sg7
L10L
sass."
Colour: ff00
EndChar

StartChar: r
Encoding: 114 114 86
GlifName: r
Width: 435
VWidth: 0
Flags: HMW
AnchorPoint: "LatinBelow.mark" 110 0 basechar 0
AnchorPoint: "LatinAbove.mark" 180 0 basechar 0
LayerCount: 2
Fore
SplineSet
136 592 m 1
 233 603 l 1
 238 465 l 1
 280 543 342 614 435 614 c 0
 463 614 484 608 502 599 c 1
 439 505 l 1
 427 512 415 517 396 517 c 0
 321 517 259 418 226 318 c 1
 158 0 l 1
 45 0 l 1
 137 435 l 1
 136 592 l 1
EndSplineSet
PickledDataWithLists: "(dp0
Vcom.fontlab.hintData
p1
(dp2
Vvhints
p3
(lp4
(dp5
Vposition
p6
L20L
sVwidth
p7
L10L
sa(dp8
g6
L171L
sg7
L10L
sa(dp9
g6
L261L
sg7
L10L
sa(dp10
g6
L479L
sg7
L10L
sasVhhints
p11
(lp12
(dp13
g6
L-13L
sg7
L10L
sa(dp14
g6
L524L
sg7
L10L
sa(dp15
g6
L549L
sg7
L10L
sa(dp16
g6
L596L
sg7
L10L
sa(dp17
g6
L611L
sg7
L10L
sass."
Colour: ff00
EndChar

StartChar: s
Encoding: 115 115 87
GlifName: s
Width: 570
VWidth: 0
Flags: HMW
AnchorPoint: "LatinCedilla.mark" 250 0 basechar 0
AnchorPoint: "LatinBelow.mark" 225 0 basechar 0
AnchorPoint: "LatinAbove.mark" 225 0 basechar 0
LayerCount: 2
Fore
SplineSet
15 139 m 1
 128 153 l 1
 128 152 128 150 128 149 c 0
 128 106 161 61 242 61 c 0
 324 61 378 99 390 156 c 0
 391 163 392 168 392 174 c 0
 392 215 360 233 336 241 c 0
 294 254 235 272 194 288 c 0
 148 306 91 340 91 411 c 0
 91 421 92 432 95 444 c 0
 116 544 221 619 357 619 c 0
 500 619 548 532 548 469 c 0
 548 468 548 466 548 465 c 1
 435 450 l 1
 435 452 435 453 435 455 c 0
 435 497 408 539 340 539 c 0
 269 539 216 504 204 448 c 0
 203 443 202 439 202 434 c 0
 202 399 234 380 261 370 c 0
 301 356 361 337 396 326 c 0
 449 309 503 275 503 200 c 0
 503 188 502 174 499 160 c 0
 478 59 370 -19 221 -19 c 0
 67 -19 15 70 15 135 c 0
 15 136 15 138 15 139 c 1
EndSplineSet
PickledDataWithLists: "(dp0
Vcom.fontlab.hintData
p1
(dp2
Vvhints
p3
(lp4
(dp5
Vposition
p6
L60L
sVwidth
p7
L10L
sa(dp8
g6
L139L
sg7
L10L
sa(dp9
g6
L381L
sg7
L10L
sa(dp10
g6
L431L
sg7
L10L
sa(dp11
g6
L470L
sg7
L10L
sa(dp12
g6
L516L
sg7
L10L
sasVhhints
p13
(lp14
(dp15
g6
L-20L
sg7
L10L
sa(dp16
g6
L42L
sg7
L10L
sa(dp17
g6
L151L
sg7
L10L
sa(dp18
g6
L434L
sg7
L10L
sa(dp19
g6
L554L
sg7
L10L
sa(dp20
g6
L616L
sg7
L10L
sass."
Colour: ff00
EndChar

StartChar: t
Encoding: 116 116 88
GlifName: t
Width: 415
VWidth: 0
Flags: HMW
AnchorPoint: "LatinCedilla.mark" 210 0 basechar 0
AnchorPoint: "LatinBelow.mark" 220 0 basechar 0
AnchorPoint: "LatinAbove.mark" 146 120 basechar 0
LayerCount: 2
Fore
SplineSet
82 528 m 1
 98 600 l 1
 192 600 l 1
 218 726 l 1
 327 735 l 1
 299 600 l 1
 448 600 l 1
 432 528 l 1
 285 528 l 1
 204 144 l 2
 201 129 199 117 199 107 c 0
 199 76 214 67 242 67 c 0
 283 67 326 82 343 92 c 1
 354 18 l 1
 322 2 271 -14 211 -14 c 0
 133 -14 82 15 82 86 c 0
 82 99 84 113 87 128 c 2
 172 528 l 1
 82 528 l 1
EndSplineSet
PickledDataWithLists: "(dp0
Vcom.fontlab.hintData
p1
(dp2
Vvhints
p3
(lp4
(dp5
Vposition
p6
L20L
sVwidth
p7
L10L
sa(dp8
g6
L131L
sg7
L10L
sa(dp9
g6
L136L
sg7
L10L
sa(dp10
g6
L141L
sg7
L10L
sa(dp11
g6
L219L
sg7
L10L
sa(dp12
g6
L225L
sg7
L10L
sa(dp13
g6
L399L
sg7
L10L
sa(dp14
g6
L439L
sg7
L10L
sasVhhints
p15
(lp16
(dp17
g6
L-18L
sg7
L10L
sa(dp18
g6
L41L
sg7
L10L
sa(dp19
g6
L86L
sg7
L10L
sa(dp20
g6
L524L
sg7
L10L
sa(dp21
g6
L586L
sg7
L10L
sa(dp22
g6
L741L
sg7
L10L
sass."
Colour: ff00
EndChar

StartChar: u
Encoding: 117 117 89
GlifName: u
Width: 620
VWidth: 0
Flags: HMW
AnchorPoint: "LatinOgonek.mark" 320 0 basechar 0
AnchorPoint: "LatinBelow.mark" 250 0 basechar 0
AnchorPoint: "LatinAbove.mark" 250 0 basechar 0
LayerCount: 2
Fore
SplineSet
45 187 m 2
 133 600 l 1
 246 600 l 1
 158 187 l 2
 155 175 154 163 154 153 c 0
 154 91 199 63 263 63 c 0
 338 63 404 101 422 187 c 2
 510 600 l 1
 623 600 l 1
 535 187 l 2
 511 72 397 -19 246 -19 c 0
 114 -19 41 50 41 145 c 0
 41 158 42 173 45 187 c 2
EndSplineSet
PickledDataWithLists: "(dp0
Vcom.fontlab.hintData
p1
(dp2
Vvhints
p3
(lp4
(dp5
Vposition
p6
L81L
sVwidth
p7
L10L
sa(dp8
g6
L86L
sg7
L10L
sa(dp9
g6
L174L
sg7
L10L
sa(dp10
g6
L471L
sg7
L10L
sa(dp11
g6
L649L
sg7
L10L
sasVhhints
p12
(lp13
(dp14
g6
L-21L
sg7
L10L
sa(dp15
g6
L-16L
sg7
L10L
sa(dp16
g6
L41L
sg7
L10L
sa(dp17
g6
L601L
sg7
L10L
sass."
EndChar

StartChar: v
Encoding: 118 118 90
GlifName: v
Width: 600
VWidth: 0
Flags: HMW
AnchorPoint: "LatinBelow.mark" 240 0 basechar 0
AnchorPoint: "LatinAbove.mark" 240 0 basechar 0
LayerCount: 2
Fore
SplineSet
79 585 m 1
 81 591 l 1
 206 600 l 1
 268 133 l 1
 530 600 l 1
 651 591 l 1
 649 585 l 1
 286 0 l 1
 194 0 l 1
 79 585 l 1
EndSplineSet
PickledDataWithLists: "(dp0
Vcom.fontlab.hintData
p1
(dp2
Vvhints
p3
(lp4
(dp5
Vposition
p6
L35L
sVwidth
p7
L10L
sa(dp8
g6
L584L
sg7
L10L
sasVhhints
p9
(lp10
(dp11
g6
L-18L
sg7
L10L
sa(dp12
g6
L581L
sg7
L10L
sa(dp13
g6
L591L
sg7
L10L
sass."
Colour: ff00
EndChar

StartChar: w
Encoding: 119 119 91
GlifName: w
Width: 830
VWidth: 0
Flags: HMW
AnchorPoint: "LatinBelow.mark" 355 0 basechar 0
AnchorPoint: "LatinAbove.mark" 355 0 basechar 0
LayerCount: 2
Fore
SplineSet
874 585 m 1
 575 0 l 1
 478 0 l 1
 446 428 l 1
 232 0 l 1
 135 0 l 1
 84 585 l 1
 86 591 l 1
 209 600 l 1
 226 159 l 1
 434 585 l 1
 524 585 l 1
 552 159 l 1
 757 600 l 1
 876 591 l 1
 874 585 l 1
EndSplineSet
PickledDataWithLists: "(dp0
Vcom.fontlab.hintData
p1
(dp2
Vvhints
p3
(lp4
(dp5
Vposition
p6
L41L
sVwidth
p7
L10L
sa(dp8
g6
L790L
sg7
L10L
sasVhhints
p9
(lp10
(dp11
g6
L-11L
sg7
L10L
sa(dp12
g6
L568L
sg7
L10L
sa(dp13
g6
L590L
sg7
L10L
sass."
Colour: ff00
EndChar

StartChar: x
Encoding: 120 120 92
GlifName: x
Width: 600
VWidth: 0
Flags: HMW
AnchorPoint: "LatinBelow.mark" 240 0 basechar 0
AnchorPoint: "LatinAbove.mark" 240 0 basechar 0
LayerCount: 2
Fore
SplineSet
114 585 m 1
 116 591 l 1
 238 600 l 1
 324 394 l 1
 498 600 l 1
 616 591 l 1
 614 585 l 1
 371 323 l 1
 531 5 l 1
 530 0 l 1
 403 0 l 1
 290 234 l 1
 77 0 l 1
 -50 0 l 1
 -49 5 l 1
 247 323 l 1
 114 585 l 1
EndSplineSet
PickledDataWithLists: "(dp0
Vcom.fontlab.hintData
p1
(dp2
Vvhints
p3
(lp4
(dp5
Vposition
p6
L26L
sVwidth
p7
L10L
sa(dp8
g6
L71L
sg7
L10L
sa(dp9
g6
L524L
sg7
L10L
sa(dp10
g6
L559L
sg7
L10L
sasVhhints
p11
(lp12
(dp13
g6
L-6L
sg7
L10L
sa(dp14
g6
L5L
sg7
L10L
sa(dp15
g6
L591L
sg7
L10L
sass."
Colour: ff00
EndChar

StartChar: y
Encoding: 121 121 93
GlifName: y
Width: 600
VWidth: 0
Flags: HMW
AnchorPoint: "LatinBelow.mark" 202 -180 basechar 0
AnchorPoint: "LatinAbove.mark" 240 0 basechar 0
LayerCount: 2
Fore
SplineSet
79 585 m 1
 81 591 l 1
 206 600 l 1
 268 132 l 1
 530 600 l 1
 651 591 l 1
 649 585 l 1
 275 -24 l 1
 213 -117 148 -229 30 -229 c 0
 -23 -229 -54 -207 -75 -187 c 1
 -5 -119 l 1
 9 -134 21 -150 43 -150 c 0
 88 -150 131 -90 187 -3 c 2
 193 6 l 1
 79 585 l 1
EndSplineSet
PickledDataWithLists: "(dp0
Vcom.fontlab.hintData
p1
(dp2
Vvhints
p3
(lp4
(dp5
Vposition
p6
L56L
sVwidth
p7
L10L
sa(dp8
g6
L130L
sg7
L10L
sasVhhints
p9
(lp10
(dp11
g6
L-257L
sg7
L10L
sa(dp12
g6
L-195L
sg7
L10L
sa(dp13
g6
L-164L
sg7
L10L
sa(dp14
g6
L4L
sg7
L10L
sa(dp15
g6
L584L
sg7
L10L
sa(dp16
g6
L595L
sg7
L10L
sass."
Colour: ff00
EndChar

StartChar: z
Encoding: 122 122 94
GlifName: z
Width: 530
VWidth: 0
Flags: HMW
AnchorPoint: "LatinBelow.mark" 205 0 basechar 0
AnchorPoint: "LatinAbove.mark" 205 0 basechar 0
LayerCount: 2
Fore
SplineSet
-18 57 m 1
 396 521 l 1
 103 521 l 1
 120 600 l 1
 555 600 l 1
 549 543 l 1
 136 79 l 1
 457 79 l 1
 440 0 l 1
 -23 0 l 1
 -18 57 l 1
EndSplineSet
PickledDataWithLists: "(dp0
Vcom.fontlab.hintData
p1
(dp2
Vvhints
p3
(lp4
(dp5
Vposition
p6
L46L
sVwidth
p7
L10L
sa(dp8
g6
L61L
sg7
L10L
sa(dp9
g6
L531L
sg7
L10L
sa(dp10
g6
L544L
sg7
L10L
sasVhhints
p11
(lp12
(dp13
g6
L-17L
sg7
L10L
sa(dp14
g6
L51L
sg7
L10L
sa(dp15
g6
L59L
sg7
L10L
sa(dp16
g6
L525L
sg7
L15L
sa(dp17
g6
L587L
sg7
L10L
sa(dp18
g6
L592L
sg7
L10L
sass."
Colour: ff00
EndChar

StartChar: braceleft
Encoding: 123 123 95
GlifName: braceleft
Width: 390
VWidth: 0
Flags: HMW
LayerCount: 2
Fore
SplineSet
64 370 m 1
 68 390 l 1
 72 410 l 1
 118 419 178 453 196 538 c 0
 198 549 199 564 199 582 c 0
 199 604 198 629 198 655 c 0
 198 684 199 712 204 735 c 0
 224 828 295 900 396 900 c 2
 446 900 l 1
 434 841 l 1
 397 841 l 2
 367 841 323 823 303 728 c 0
 292 678 301 579 290 528 c 0
 274 454 228 410 175 390 c 1
 211 374 237 343 237 292 c 0
 237 280 235 266 232 252 c 0
 221 201 170 102 159 52 c 0
 155 33 153 17 153 4 c 0
 153 -49 181 -61 205 -61 c 2
 242 -61 l 1
 229 -120 l 1
 179 -120 l 2
 95 -120 53 -70 53 1 c 0
 53 15 55 30 58 45 c 0
 71 105 125 203 133 242 c 0
 136 255 137 267 137 278 c 0
 137 337 99 362 64 370 c 1
EndSplineSet
PickledDataWithLists: "(dp0
Vcom.fontlab.hintData
p1
(dp2
Vvhints
p3
(lp4
(dp5
Vposition
p6
L22L
sVwidth
p7
L10L
sa(dp8
g6
L112L
sg7
L10L
sa(dp9
g6
L128L
sg7
L10L
sa(dp10
g6
L182L
sg7
L10L
sa(dp11
g6
L197L
sg7
L10L
sa(dp12
g6
L205L
sg7
L10L
sa(dp13
g6
L289L
sg7
L10L
sasVhhints
p14
(lp15
(dp16
g6
L-89L
sg7
L10L
sa(dp17
g6
L-41L
sg7
L10L
sa(dp18
g6
L830L
sg7
L10L
sa(dp19
g6
L879L
sg7
L10L
sass."
EndChar

StartChar: bar
Encoding: 124 124 96
GlifName: bar
Width: 360
VWidth: 0
Flags: HMW
LayerCount: 2
Fore
SplineSet
44 -120 m 1
 261 900 l 1
 361 900 l 1
 144 -120 l 1
 44 -120 l 1
EndSplineSet
PickledDataWithLists: "(dp0
Vcom.fontlab.hintData
p1
(dp2
Vvhints
p3
(lp4
(dp5
Vposition
p6
L131L
sVwidth
p7
L10L
sa(dp8
g6
L209L
sg7
L10L
sa(dp9
g6
L216L
sg7
L10L
sasVhhints
p10
(lp11
(dp12
g6
L-92L
sg7
L10L
sa(dp13
g6
L882L
sg7
L10L
sass."
EndChar

StartChar: braceright
Encoding: 125 125 97
GlifName: braceright
Width: 390
VWidth: 0
Flags: HMW
LayerCount: 2
Fore
SplineSet
372 410 m 1
 368 390 l 1
 364 370 l 1
 318 361 257 327 239 242 c 0
 237 232 236 219 236 203 c 0
 236 178 238 148 238 119 c 0
 238 92 237 66 232 45 c 0
 212 -48 140 -120 39 -120 c 2
 -11 -120 l 1
 2 -61 l 1
 39 -61 l 2
 69 -61 113 -43 133 52 c 0
 144 102 135 201 146 252 c 0
 162 326 208 370 261 390 c 1
 225 406 199 437 199 488 c 0
 199 500 201 514 204 528 c 0
 215 579 266 678 277 728 c 0
 281 747 283 763 283 776 c 0
 283 829 255 841 231 841 c 2
 194 841 l 1
 206 900 l 1
 256 900 l 2
 340 900 383 850 383 779 c 0
 383 765 381 750 378 735 c 0
 365 675 310 577 302 538 c 0
 299 525 298 513 298 502 c 0
 298 443 336 418 372 410 c 1
EndSplineSet
PickledDataWithLists: "(dp0
Vcom.fontlab.hintData
p1
(dp2
Vvhints
p3
(lp4
(dp5
Vposition
p6
L61L
sVwidth
p7
L10L
sa(dp8
g6
L145L
sg7
L10L
sa(dp9
g6
L153L
sg7
L10L
sa(dp10
g6
L166L
sg7
L10L
sa(dp11
g6
L216L
sg7
L10L
sa(dp12
g6
L222L
sg7
L10L
sa(dp13
g6
L237L
sg7
L10L
sa(dp14
g6
L328L
sg7
L10L
sasVhhints
p15
(lp16
(dp17
g6
L-89L
sg7
L10L
sa(dp18
g6
L-41L
sg7
L10L
sa(dp19
g6
L831L
sg7
L10L
sa(dp20
g6
L879L
sg7
L10L
sass."
EndChar

StartChar: asciitilde
Encoding: 126 126 98
GlifName: asciitilde
Width: 600
VWidth: 0
Flags: HMW
LayerCount: 2
Fore
SplineSet
54 324 m 1
 96 399 153 489 246 489 c 0
 308 489 339 447 360 420 c 0
 384 390 400 373 421 373 c 0
 459 373 499 426 524 478 c 1
 592 456 l 1
 550 380 492 291 400 291 c 0
 338 291 307 333 286 360 c 0
 262 390 246 407 225 407 c 0
 187 407 148 355 122 302 c 1
 54 324 l 1
EndSplineSet
PickledDataWithLists: "(dp0
Vcom.fontlab.hintData
p1
(dp2
Vvhints
p3
(lp4
(dp5
Vposition
p6
L51L
sVwidth
p7
L10L
sa(dp8
g6
L539L
sg7
L10L
sasVhhints
p9
(lp10
(dp11
g6
L249L
sg7
L10L
sa(dp12
g6
L260L
sg7
L10L
sa(dp13
g6
L311L
sg7
L10L
sa(dp14
g6
L359L
sg7
L10L
sa(dp15
g6
L411L
sg7
L10L
sa(dp16
g6
L421L
sg7
L10L
sass."
EndChar

StartChar: copyright
Encoding: 169 169 100
GlifName: copyright
Width: 1020
VWidth: 0
Flags: HMW
LayerCount: 2
Fore
SplineSet
364 411 m 2
 383 501 446 608 586 608 c 0
 687 608 718 543 718 503 c 0
 718 502 718 502 718 501 c 1
 642 494 l 1
 642 495 642 495 642 496 c 0
 642 523 623 553 575 553 c 0
 508 553 459 501 440 411 c 2
 437 395 l 2
 433 376 431 359 431 343 c 0
 431 285 458 253 511 253 c 0
 560 253 592 285 603 312 c 1
 677 305 l 1
 660 265 602 198 499 198 c 0
 388 198 355 265 355 337 c 0
 355 356 357 376 361 395 c 2
 364 411 l 2
448 -9 m 0
 227 -9 102 121 102 307 c 0
 102 338 106 371 113 405 c 0
 163 641 366 819 624 819 c 0
 845 819 970 689 970 503 c 0
 970 472 966 439 959 405 c 0
 909 169 706 -9 448 -9 c 0
460 49 m 0
 676 49 848 193 893 405 c 0
 900 437 903 467 903 495 c 0
 903 657 796 761 612 761 c 0
 396 761 224 617 179 405 c 0
 172 373 169 343 169 315 c 0
 169 153 276 49 460 49 c 0
EndSplineSet
PickledDataWithLists: "(dp0
Vcom.fontlab.hintData
p1
(dp2
Vvhints
p3
(lp4
(dp5
Vposition
p6
L83L
sVwidth
p7
L10L
sa(dp8
g6
L147L
sg7
L10L
sa(dp9
g6
L315L
sg7
L10L
sa(dp10
g6
L395L
sg7
L10L
sa(dp11
g6
L565L
sg7
L10L
sa(dp12
g6
L645L
sg7
L10L
sa(dp13
g6
L661L
sg7
L10L
sa(dp14
g6
L798L
sg7
L10L
sa(dp15
g6
L863L
sg7
L10L
sa(dp16
g6
L927L
sg7
L10L
sasVhhints
p17
(lp18
(dp19
g6
L-27L
sg7
L10L
sa(dp20
g6
L17L
sg7
L10L
sa(dp21
g6
L170L
sg7
L10L
sa(dp22
g6
L224L
sg7
L10L
sa(dp23
g6
L283L
sg7
L10L
sa(dp24
g6
L472L
sg7
L10L
sa(dp25
g6
L549L
sg7
L10L
sa(dp26
g6
L603L
sg7
L10L
sa(dp27
g6
L773L
sg7
L10L
sa(dp28
g6
L817L
sg7
L10L
sass."
EndChar

StartChar: registered
Encoding: 174 174 101
GlifName: registered
Width: 870
VWidth: 0
Flags: HMW
LayerCount: 2
Fore
SplineSet
432 266 m 0
 253 266 152 373 152 522 c 0
 152 547 155 573 161 600 c 0
 201 789 365 934 574 934 c 0
 753 934 854 827 854 678 c 0
 854 653 851 627 845 600 c 0
 805 411 641 266 432 266 c 0
441 312 m 0
 614 312 754 427 791 600 c 0
 796 626 799 650 799 673 c 0
 799 805 711 888 564 888 c 0
 391 888 252 773 215 600 c 0
 209 574 207 549 207 526 c 0
 207 395 294 312 441 312 c 0
464 555 m 1
 453 555 441 556 431 556 c 1
 398 400 l 1
 326 400 l 1
 360 560 l 1
 409 790 l 1
 413 790 480 794 544 794 c 0
 630 794 685 759 685 699 c 0
 685 691 684 683 682 675 c 0
 669 614 616 572 543 559 c 1
 639 404 l 1
 638 400 l 1
 556 400 l 1
 464 555 l 1
442 608 m 1
 456 607 476 606 496 606 c 0
 552 606 599 623 610 675 c 0
 611 681 612 686 612 691 c 0
 612 730 575 743 525 743 c 0
 505 743 485 742 471 741 c 1
 442 608 l 1
EndSplineSet
PickledDataWithLists: "(dp0
Vcom.fontlab.hintData
p1
(dp2
Vvhints
p3
(lp4
(dp5
Vposition
p6
L90L
sVwidth
p7
L10L
sa(dp8
g6
L140L
sg7
L10L
sa(dp9
g6
L263L
sg7
L10L
sa(dp10
g6
L301L
sg7
L10L
sa(dp11
g6
L303L
sg7
L10L
sa(dp12
g6
L363L
sg7
L10L
sa(dp13
g6
L480L
sg7
L10L
sa(dp14
g6
L544L
sg7
L10L
sa(dp15
g6
L557L
sg7
L10L
sa(dp16
g6
L628L
sg7
L10L
sa(dp17
g6
L677L
sg7
L10L
sa(dp18
g6
L727L
sg7
L10L
sasVhhints
p19
(lp20
(dp21
g6
L319L
sg7
L10L
sa(dp22
g6
L351L
sg7
L10L
sa(dp23
g6
L469L
sg7
L10L
sa(dp24
g6
L596L
sg7
L20L
sa(dp25
g6
L644L
sg7
L10L
sa(dp26
g6
L654L
sg7
L10L
sa(dp27
g6
L725L
sg7
L11L
sa(dp28
g6
L757L
sg7
L10L
sa(dp29
g6
L799L
sg7
L10L
sa(dp30
g6
L919L
sg7
L10L
sa(dp31
g6
L951L
sg7
L10L
sass."
EndChar

StartChar: guillemotleft
Encoding: 171 171 102
GlifName: guillemotleft
Width: 780
VWidth: 0
Flags: HMW
LayerCount: 2
Fore
SplineSet
87 338 m 1
 96 382 l 1
 452 645 l 1
 480 588 l 1
 212 360 l 1
 383 132 l 1
 331 75 l 1
 87 338 l 1
377 338 m 1
 386 382 l 1
 742 645 l 1
 770 588 l 1
 502 360 l 1
 673 132 l 1
 621 75 l 1
 377 338 l 1
EndSplineSet
PickledDataWithLists: "(dp0
Vcom.fontlab.hintData
p1
(dp2
Vvhints
p3
(lp4
(dp5
Vposition
p6
L66L
sVwidth
p7
L10L
sa(dp8
g6
L336L
sg7
L10L
sa(dp9
g6
L356L
sg7
L10L
sa(dp10
g6
L368L
sg7
L10L
sa(dp11
g6
L626L
sg7
L10L
sa(dp12
g6
L638L
sg7
L10L
sasVhhints
p13
(lp14
(dp15
g6
L65L
sg7
L10L
sa(dp16
g6
L605L
sg7
L10L
sass."
EndChar

StartChar: guillemotright
Encoding: 187 187 103
GlifName: guillemotright
Width: 780
VWidth: 0
Flags: HMW
LayerCount: 2
Fore
SplineSet
726 382 m 1
 717 338 l 1
 361 75 l 1
 333 132 l 1
 602 360 l 1
 430 588 l 1
 482 645 l 1
 726 382 l 1
436 382 m 1
 427 338 l 1
 71 75 l 1
 43 132 l 1
 312 360 l 1
 140 588 l 1
 192 645 l 1
 436 382 l 1
EndSplineSet
PickledDataWithLists: "(dp0
Vcom.fontlab.hintData
p1
(dp2
Vvhints
p3
(lp4
(dp5
Vposition
p6
L72L
sVwidth
p7
L10L
sa(dp8
g6
L84L
sg7
L10L
sa(dp9
g6
L342L
sg7
L10L
sa(dp10
g6
L354L
sg7
L10L
sa(dp11
g6
L374L
sg7
L10L
sa(dp12
g6
L644L
sg7
L10L
sasVhhints
p13
(lp14
(dp15
g6
L64L
sg7
L10L
sa(dp16
g6
L605L
sg7
L10L
sass."
EndChar

StartChar: uni2010
Encoding: 8208 8208 111
GlifName: uni2010
Width: 600
VWidth: 0
Flags: HMW
LayerCount: 2
Fore
SplineSet
116 403 m 1
 536 403 l 1
 517 317 l 1
 97 317 l 1
 116 403 l 1
EndSplineSet
PickledDataWithLists: "(dp0
Vcom.fontlab.hintData
p1
(dp2
Vvhints
p3
(lp4
(dp5
Vposition
p6
L75L
sVwidth
p7
L10L
sa(dp8
g6
L514L
sg7
L10L
sasVhhints
p9
(lp10
(dp11
g6
L301L
sg7
L10L
sa(dp12
g6
L363L
sg7
L10L
sa(dp13
g6
L371L
sg7
L10L
sass."
EndChar

StartChar: uni2011
Encoding: 8209 8209 112
GlifName: uni2011
Width: 600
VWidth: 0
Flags: HMW
LayerCount: 2
Fore
SplineSet
116 403 m 1
 536 403 l 1
 517 317 l 1
 97 317 l 1
 116 403 l 1
EndSplineSet
PickledDataWithLists: "(dp0
Vcom.fontlab.hintData
p1
(dp2
Vvhints
p3
(lp4
(dp5
Vposition
p6
L75L
sVwidth
p7
L10L
sa(dp8
g6
L514L
sg7
L10L
sasVhhints
p9
(lp10
(dp11
g6
L301L
sg7
L10L
sa(dp12
g6
L363L
sg7
L10L
sa(dp13
g6
L371L
sg7
L10L
sass."
EndChar

StartChar: figuredash
Encoding: 8210 8210 113
GlifName: figuredash
Width: 660
VWidth: 0
Flags: HMW
LayerCount: 2
Fore
SplineSet
116 403 m 1
 596 403 l 1
 577 317 l 1
 97 317 l 1
 116 403 l 1
EndSplineSet
PickledDataWithLists: "(dp0
Vcom.fontlab.hintData
p1
(dp2
Vvhints
p3
(lp4
(dp5
Vposition
p6
L105L
sVwidth
p7
L10L
sa(dp8
g6
L604L
sg7
L10L
sasVhhints
p9
(lp10
(dp11
g6
L301L
sg7
L10L
sa(dp12
g6
L364L
sg7
L10L
sa(dp13
g6
L371L
sg7
L10L
sass."
EndChar

StartChar: uni2015
Encoding: 8213 8213 114
GlifName: uni2015
Width: 1200
VWidth: 0
Flags: HMW
LayerCount: 2
Fore
SplineSet
116 403 m 1
 1136 403 l 1
 1117 317 l 1
 97 317 l 1
 116 403 l 1
EndSplineSet
PickledDataWithLists: "(dp0
Vcom.fontlab.hintData
p1
(dp2
Vvhints
p3
(lp4
(dp5
Vposition
p6
L90L
sVwidth
p7
L10L
sa(dp8
g6
L1099L
sg7
L10L
sasVhhints
p9
(lp10
(dp11
g6
L299L
sg7
L10L
sa(dp12
g6
L304L
sg7
L10L
sa(dp13
g6
L309L
sg7
L10L
sa(dp14
g6
L361L
sg7
L10L
sa(dp15
g6
L366L
sg7
L10L
sa(dp16
g6
L371L
sg7
L10L
sass."
EndChar

StartChar: endash
Encoding: 8211 8211 115
GlifName: endash
Width: 660
VWidth: 0
Flags: HMW
LayerCount: 2
Fore
SplineSet
116 403 m 1
 596 403 l 1
 577 317 l 1
 97 317 l 1
 116 403 l 1
EndSplineSet
PickledDataWithLists: "(dp0
Vcom.fontlab.hintData
p1
(dp2
Vvhints
p3
(lp4
(dp5
Vposition
p6
L75L
sVwidth
p7
L10L
sa(dp8
g6
L574L
sg7
L10L
sasVhhints
p9
(lp10
(dp11
g6
L301L
sg7
L10L
sa(dp12
g6
L364L
sg7
L10L
sa(dp13
g6
L371L
sg7
L10L
sass."
EndChar

StartChar: emdash
Encoding: 8212 8212 116
GlifName: emdash
Width: 1200
VWidth: 0
Flags: HMW
LayerCount: 2
Fore
SplineSet
116 403 m 1
 1136 403 l 1
 1117 317 l 1
 97 317 l 1
 116 403 l 1
EndSplineSet
PickledDataWithLists: "(dp0
Vcom.fontlab.hintData
p1
(dp2
Vvhints
p3
(lp4
(dp5
Vposition
p6
L90L
sVwidth
p7
L10L
sa(dp8
g6
L1099L
sg7
L10L
sasVhhints
p9
(lp10
(dp11
g6
L299L
sg7
L10L
sa(dp12
g6
L304L
sg7
L10L
sa(dp13
g6
L309L
sg7
L10L
sa(dp14
g6
L361L
sg7
L10L
sa(dp15
g6
L366L
sg7
L10L
sa(dp16
g6
L371L
sg7
L10L
sass."
EndChar

StartChar: quoteleft
Encoding: 8216 8216 117
GlifName: quoteleft
Width: 330
VWidth: 0
Flags: HMW
LayerCount: 2
Fore
SplineSet
321 642 m 0
 311 597 274 564 225 564 c 0
 171 564 150 600 150 644 c 0
 150 655 152 666 154 678 c 0
 177 788 267 867 343 910 c 1
 368 863 l 1
 315 833 264 783 239 712 c 1
 245 713 253 714 260 714 c 0
 297 714 323 693 323 658 c 0
 323 653 322 648 321 642 c 0
EndSplineSet
PickledDataWithLists: "(dp0
Vcom.fontlab.hintData
p1
(dp2
Vvhints
p3
(lp4
(dp5
Vposition
p6
L69L
sVwidth
p7
L10L
sa(dp8
g6
L150L
sg7
L10L
sa(dp9
g6
L255L
sg7
L10L
sasVhhints
p10
(lp11
(dp12
g6
L533L
sg7
L10L
sa(dp13
g6
L602L
sg7
L10L
sa(dp14
g6
L832L
sg7
L10L
sass."
EndChar

StartChar: quoteright
Encoding: 8217 8217 118
GlifName: quoteright
Width: 330
VWidth: 0
Flags: HMW
LayerCount: 2
Fore
SplineSet
197 808 m 0
 207 853 244 886 293 886 c 0
 347 886 368 850 368 806 c 0
 368 795 366 784 364 772 c 0
 341 662 251 583 175 540 c 1
 150 587 l 1
 203 617 254 667 279 738 c 1
 273 737 265 736 258 736 c 0
 221 736 195 757 195 792 c 0
 195 797 196 802 197 808 c 0
EndSplineSet
PickledDataWithLists: "(dp0
Vcom.fontlab.hintData
p1
(dp2
Vvhints
p3
(lp4
(dp5
Vposition
p6
L61L
sVwidth
p7
L10L
sa(dp8
g6
L170L
sg7
L10L
sa(dp9
g6
L251L
sg7
L10L
sasVhhints
p10
(lp11
(dp12
g6
L538L
sg7
L10L
sa(dp13
g6
L768L
sg7
L10L
sa(dp14
g6
L837L
sg7
L10L
sass."
EndChar

StartChar: quotedblleft
Encoding: 8220 8220 119
GlifName: quotedblleft
Width: 570
VWidth: 0
Flags: HMW
LayerCount: 2
Fore
SplineSet
331 642 m 0
 321 597 284 564 235 564 c 0
 181 564 160 600 160 644 c 0
 160 655 162 666 164 678 c 0
 187 788 277 867 353 910 c 1
 378 863 l 1
 325 833 274 783 249 712 c 1
 255 713 263 714 270 714 c 0
 307 714 333 693 333 658 c 0
 333 653 332 648 331 642 c 0
551 642 m 0
 541 597 504 564 455 564 c 0
 401 564 380 600 380 644 c 0
 380 655 382 666 384 678 c 0
 407 788 497 867 573 910 c 1
 598 863 l 1
 545 833 494 783 469 712 c 1
 475 713 483 714 490 714 c 0
 527 714 553 693 553 658 c 0
 553 653 552 648 551 642 c 0
EndSplineSet
PickledDataWithLists: "(dp0
Vcom.fontlab.hintData
p1
(dp2
Vvhints
p3
(lp4
(dp5
Vposition
p6
L69L
sVwidth
p7
L10L
sa(dp8
g6
L150L
sg7
L10L
sa(dp9
g6
L255L
sg7
L10L
sa(dp10
g6
L309L
sg7
L10L
sa(dp11
g6
L390L
sg7
L10L
sa(dp12
g6
L495L
sg7
L10L
sasVhhints
p13
(lp14
(dp15
g6
L533L
sg7
L10L
sa(dp16
g6
L602L
sg7
L10L
sa(dp17
g6
L832L
sg7
L10L
sass."
EndChar

StartChar: quotedblright
Encoding: 8221 8221 120
GlifName: quotedblright
Width: 570
VWidth: 0
Flags: HMW
LayerCount: 2
Fore
SplineSet
207 808 m 0
 217 853 254 886 303 886 c 0
 357 886 378 850 378 806 c 0
 378 795 376 784 374 772 c 0
 351 662 261 583 185 540 c 1
 160 587 l 1
 213 617 264 667 289 738 c 1
 283 737 275 736 268 736 c 0
 231 736 205 757 205 792 c 0
 205 797 206 802 207 808 c 0
427 808 m 0
 437 853 474 886 523 886 c 0
 577 886 598 850 598 806 c 0
 598 795 596 784 594 772 c 0
 571 662 481 583 405 540 c 1
 380 587 l 1
 433 617 484 667 509 738 c 1
 503 737 495 736 488 736 c 0
 451 736 425 757 425 792 c 0
 425 797 426 802 427 808 c 0
EndSplineSet
PickledDataWithLists: "(dp0
Vcom.fontlab.hintData
p1
(dp2
Vvhints
p3
(lp4
(dp5
Vposition
p6
L61L
sVwidth
p7
L10L
sa(dp8
g6
L170L
sg7
L10L
sa(dp9
g6
L251L
sg7
L10L
sa(dp10
g6
L301L
sg7
L10L
sa(dp11
g6
L410L
sg7
L10L
sa(dp12
g6
L491L
sg7
L10L
sasVhhints
p13
(lp14
(dp15
g6
L538L
sg7
L10L
sa(dp16
g6
L768L
sg7
L10L
sa(dp17
g6
L837L
sg7
L10L
sass."
EndChar

StartChar: bullet
Encoding: 8226 8226 121
GlifName: bullet
Width: 660
VWidth: 0
Flags: HMW
LayerCount: 2
Fore
SplineSet
217 360 m 0
 233 434 298 481 372 481 c 0
 436 481 480 446 480 388 c 0
 480 379 479 370 477 360 c 0
 461 286 395 239 321 239 c 0
 257 239 214 274 214 332 c 0
 214 341 215 350 217 360 c 0
EndSplineSet
PickledDataWithLists: "(dp0
Vcom.fontlab.hintData
p1
(dp2
Vvhints
p3
(lp4
(dp5
Vposition
p6
L231L
sVwidth
p7
L10L
sa(dp8
g6
L479L
sg7
L10L
sasVhhints
p9
(lp10
(dp11
g6
L234L
sg7
L10L
sa(dp12
g6
L456L
sg7
L10L
sass."
EndChar

StartChar: ellipsis
Encoding: 8230 8230 122
GlifName: ellipsis
Width: 870
VWidth: 0
GlyphClass: 3
Flags: HMW
LayerCount: 2
Fore
SplineSet
136 144 m 128
 175 144 202 123 202 87 c 0
 202 82 201 76 200 70 c 128
 190 24 149 -4 104 -4 c 128
 65 -4 38 17 38 53 c 0
 38 58 39 64 40 70 c 128
 50 116 91 144 136 144 c 128
406 144 m 128
 445 144 472 123 472 87 c 0
 472 82 471 76 470 70 c 128
 460 24 419 -4 374 -4 c 128
 335 -4 308 17 308 53 c 0
 308 58 309 64 310 70 c 128
 320 116 361 144 406 144 c 128
676 144 m 128
 715 144 742 123 742 87 c 0
 742 82 741 76 740 70 c 128
 730 24 689 -4 644 -4 c 128
 605 -4 578 17 578 53 c 0
 578 58 579 64 580 70 c 128
 590 116 631 144 676 144 c 128
EndSplineSet
PickledDataWithLists: "(dp0
Vcom.fontlab.hintData
p1
(dp2
Vvhints
p3
(lp4
(dp5
Vposition
p6
L60L
sVwidth
p7
L10L
sa(dp8
g6
L200L
sg7
L10L
sa(dp9
g6
L285L
sg7
L10L
sa(dp10
g6
L425L
sg7
L10L
sa(dp11
g6
L510L
sg7
L10L
sa(dp12
g6
L650L
sg7
L10L
sasVhhints
p13
(lp14
(dp15
g6
L2L
sg7
L10L
sa(dp16
g6
L115L
sg7
L10L
sass."
Ligature2: "Latin.liga subtable" period uni200D period uni200D period
Ligature2: "Latin.liga subtable" period period period
EndChar

StartChar: Euro
Encoding: 8364 8364 124
GlifName: E_uro
Width: 660
VWidth: 0
Flags: HMW
LayerCount: 2
Fore
SplineSet
47 432 m 1
 61 498 l 1
 140 498 l 1
 190 650 291 799 482 799 c 0
 643 799 684 677 684 602 c 0
 684 597 684 593 684 589 c 1
 569 579 l 1
 569 582 569 586 569 589 c 0
 569 651 535 712 463 712 c 0
 375 712 300 634 253 498 c 1
 521 498 l 1
 507 432 l 1
 234 432 l 1
 232 424 231 415 229 407 c 2
 221 373 l 2
 219 365 218 356 216 348 c 1
 489 348 l 1
 475 282 l 1
 207 282 l 1
 206 268 205 254 205 241 c 0
 205 130 247 68 326 68 c 0
 402 68 465 136 489 201 c 1
 600 191 l 1
 573 118 479 -19 308 -19 c 0
 140 -19 91 96 91 227 c 0
 91 245 92 263 94 282 c 1
 15 282 l 1
 29 348 l 1
 103 348 l 1
 105 356 106 365 108 373 c 2
 116 407 l 2
 118 415 119 424 121 432 c 1
 47 432 l 1
EndSplineSet
PickledDataWithLists: "(dp0
Vcom.fontlab.hintData
p1
(dp2
Vvhints
p3
(lp4
(dp5
Vposition
p6
L21L
sVwidth
p7
L10L
sa(dp8
g6
L115L
sg7
L10L
sa(dp9
g6
L203L
sg7
L10L
sa(dp10
g6
L484L
sg7
L10L
sa(dp11
g6
L659L
sg7
L10L
sasVhhints
p12
(lp13
(dp14
g6
L-15L
sg7
L10L
sa(dp15
g6
L48L
sg7
L9L
sa(dp16
g6
L165L
sg7
L10L
sa(dp17
g6
L268L
sg7
L10L
sa(dp18
g6
L323L
sg7
L10L
sa(dp19
g6
L448L
sg7
L10L
sa(dp20
g6
L453L
sg7
L10L
sa(dp21
g6
L503L
sg7
L10L
sa(dp22
g6
L590L
sg7
L10L
sa(dp23
g6
L745L
sg7
L10L
sa(dp24
g6
L806L
sg7
L10L
sass."
EndChar

StartChar: trademark
Encoding: 8482 8482 125
GlifName: trademark
Width: 765
VWidth: 0
Flags: HMW
LayerCount: 2
Fore
SplineSet
134 846 m 1
 145 900 l 1
 433 900 l 1
 422 846 l 1
 314 846 l 1
 242 510 l 1
 169 510 l 1
 241 846 l 1
 134 846 l 1
767 510 m 1
 696 510 l 1
 751 766 l 1
 626 608 l 1
 592 608 l 1
 535 766 l 1
 480 510 l 1
 409 510 l 1
 491 894 l 1
 552 900 l 1
 625 680 l 1
 790 900 l 1
 849 894 l 1
 767 510 l 1
EndSplineSet
PickledDataWithLists: "(dp0
Vcom.fontlab.hintData
p1
(dp2
Vvhints
p3
(lp4
(dp5
Vposition
p6
L39L
sVwidth
p7
L10L
sa(dp8
g6
L180L
sg7
L10L
sa(dp9
g6
L251L
sg7
L10L
sa(dp10
g6
L383L
sg7
L10L
sa(dp11
g6
L421L
sg7
L10L
sa(dp12
g6
L440L
sg7
L10L
sa(dp13
g6
L504L
sg7
L10L
sa(dp14
g6
L735L
sg7
L10L
sa(dp15
g6
L800L
sg7
L10L
sa(dp16
g6
L819L
sg7
L10L
sasVhhints
p17
(lp18
(dp19
g6
L381L
sg7
L10L
sa(dp20
g6
L390L
sg7
L10L
sa(dp21
g6
L395L
sg7
L10L
sa(dp22
g6
L473L
sg7
L10L
sa(dp23
g6
L745L
sg7
L10L
sa(dp24
g6
L751L
sg7
L10L
sa(dp25
g6
L803L
sg7
L10L
sass."
EndChar

StartChar: uni25CC
Encoding: 9676 9676 126
GlifName: uni25C_C_
Width: 720
VWidth: 0
GlyphClass: 2
Flags: HMW
AnchorPoint: "LatinCedilla.mark" 320 0 basechar 0
AnchorPoint: "LatinBelow.mark" 300 0 basechar 0
AnchorPoint: "LatinAbove.mark" 300 0 basechar 0
LayerCount: 2
Fore
SplineSet
333 15 m 0
 329 -2 314 -15 297 -15 c 0
 282 -15 272 -6 272 8 c 0
 272 10 272 13 273 15 c 0
 277 32 293 45 310 45 c 0
 324 45 334 35 334 22 c 0
 334 20 334 18 333 15 c 0
454 585 m 0
 450 568 435 555 418 555 c 0
 403 555 393 564 393 578 c 0
 393 580 393 583 394 585 c 0
 398 602 414 615 431 615 c 0
 445 615 455 605 455 592 c 0
 455 590 455 588 454 585 c 0
655 330 m 0
 670 330 680 321 680 307 c 0
 680 305 680 302 679 300 c 0
 675 283 659 270 642 270 c 0
 628 270 618 280 618 293 c 0
 618 295 618 297 619 300 c 0
 623 317 638 330 655 330 c 0
85 330 m 0
 100 330 110 321 110 307 c 0
 110 305 110 302 109 300 c 0
 105 283 89 270 72 270 c 0
 58 270 48 280 48 293 c 0
 48 295 48 297 49 300 c 0
 53 317 68 330 85 330 c 0
130 439 m 0
 145 439 155 430 155 416 c 0
 155 414 155 411 154 409 c 0
 150 392 135 379 118 379 c 0
 103 379 93 388 93 402 c 0
 93 404 93 407 94 409 c 0
 98 426 113 439 130 439 c 0
84 221 m 0
 99 221 109 212 109 198 c 0
 109 196 109 193 108 191 c 0
 104 174 88 161 71 161 c 0
 57 161 47 171 47 184 c 0
 47 186 47 188 48 191 c 0
 52 208 67 221 84 221 c 0
656 439 m 0
 671 439 681 430 681 416 c 0
 681 414 681 411 680 409 c 0
 676 392 661 379 644 379 c 0
 629 379 619 388 619 402 c 0
 619 404 619 407 620 409 c 0
 624 426 639 439 656 439 c 0
610 221 m 0
 625 221 635 212 635 198 c 0
 635 196 635 193 634 191 c 0
 630 174 614 161 597 161 c 0
 583 161 573 171 573 184 c 0
 573 186 573 188 574 191 c 0
 578 208 593 221 610 221 c 0
211 531 m 0
 225 531 235 521 235 508 c 0
 235 506 235 504 234 501 c 0
 230 484 215 471 198 471 c 0
 183 471 173 480 173 494 c 0
 173 496 173 499 174 501 c 0
 178 518 194 531 211 531 c 0
614 531 m 0
 628 531 638 521 638 508 c 0
 638 506 638 504 637 501 c 0
 633 484 618 471 601 471 c 0
 586 471 576 480 576 494 c 0
 576 496 576 499 577 501 c 0
 581 518 597 531 614 531 c 0
125 128 m 0
 140 128 150 119 150 105 c 0
 150 103 150 100 149 98 c 0
 145 81 129 68 112 68 c 0
 98 68 88 78 88 91 c 0
 88 93 88 95 89 98 c 0
 93 115 108 128 125 128 c 0
528 128 m 0
 543 128 553 119 553 105 c 0
 553 103 553 100 552 98 c 0
 548 81 532 68 515 68 c 0
 501 68 491 78 491 91 c 0
 491 93 491 95 492 98 c 0
 496 115 511 128 528 128 c 0
423 67 m 0
 438 67 448 58 448 44 c 0
 448 42 448 39 447 37 c 0
 443 20 427 7 410 7 c 0
 396 7 386 17 386 30 c 0
 386 32 386 34 387 37 c 0
 391 54 406 67 423 67 c 0
205 67 m 0
 220 67 230 58 230 44 c 0
 230 42 230 39 229 37 c 0
 225 20 209 7 192 7 c 0
 178 7 168 17 168 30 c 0
 168 32 168 34 169 37 c 0
 173 54 188 67 205 67 c 0
535 593 m 0
 550 593 560 584 560 570 c 0
 560 568 560 565 559 563 c 0
 555 546 539 533 522 533 c 0
 508 533 498 543 498 556 c 0
 498 558 498 560 499 563 c 0
 503 580 518 593 535 593 c 0
317 593 m 0
 332 593 342 584 342 570 c 0
 342 568 342 565 341 563 c 0
 337 546 321 533 304 533 c 0
 290 533 280 543 280 556 c 0
 280 558 280 560 281 563 c 0
 285 580 300 593 317 593 c 0
EndSplineSet
PickledDataWithLists: "(dp0
Vcom.fontlab.hintData
p1
(dp2
Vvhints
p3
(lp4
(dp5
Vposition
p6
L40L
sVwidth
p7
L10L
sa(dp8
g6
L76L
sg7
L10L
sa(dp9
g6
L90L
sg7
L10L
sa(dp10
g6
L132L
sg7
L10L
sa(dp11
g6
L180L
sg7
L10L
sa(dp12
g6
L238L
sg7
L10L
sa(dp13
g6
L325L
sg7
L10L
sa(dp14
g6
L385L
sg7
L10L
sa(dp15
g6
L472L
sg7
L10L
sa(dp16
g6
L528L
sg7
L10L
sa(dp17
g6
L581L
sg7
L10L
sa(dp18
g6
L620L
sg7
L10L
sa(dp19
g6
L631L
sg7
L10L
sa(dp20
g6
L670L
sg7
L10L
sasVhhints
p21
(lp22
(dp23
g6
L-20L
sg7
L10L
sa(dp24
g6
L16L
sg7
L10L
sa(dp25
g6
L30L
sg7
L10L
sa(dp26
g6
L69L
sg7
L10L
sa(dp27
g6
L122L
sg7
L10L
sa(dp28
g6
L178L
sg7
L10L
sa(dp29
g6
L265L
sg7
L10L
sa(dp30
g6
L325L
sg7
L10L
sa(dp31
g6
L410L
sg7
L10L
sa(dp32
g6
L468L
sg7
L10L
sa(dp33
g6
L518L
sg7
L10L
sa(dp34
g6
L560L
sg7
L10L
sa(dp35
g6
L574L
sg7
L10L
sa(dp36
g6
L610L
sg7
L10L
sass."
Colour: ff00
EndChar

StartChar: uni0E01
Encoding: 3585 3585 127
GlifName: uni0E_01
Width: 655
VWidth: 0
GlyphClass: 2
Flags: HMW
LayerCount: 2
Fore
SplineSet
41 0 m 9
 103 294 l 2
 114 344 147 378 193 392 c 1
 78 416 l 1
 115 520 224 619 387 619 c 0
 527 619 610 549 610 445 c 0
 610 430 608 415 605 399 c 2
 520 0 l 1
 413 0 l 1
 498 399 l 2
 501 412 502 425 502 436 c 0
 502 506 451 540 370 540 c 0
 292 540 233 502 199 440 c 1
 335 410 l 1
 315 366 l 2
 313 366 295 369 283 369 c 0
 243 369 222 344 213 304 c 2
 148 0 l 17
 41 0 l 9
EndSplineSet
PickledDataWithLists: "(dp0
Vcom.fontlab.hintData
p1
(dp2
Vvhints
p3
(lp4
(dp5
Vposition
p6
L91L
sVwidth
p7
L10L
sa(dp8
g6
L105L
sg7
L10L
sa(dp9
g6
L179L
sg7
L10L
sa(dp10
g6
L193L
sg7
L10L
sa(dp11
g6
L467L
sg7
L10L
sa(dp12
g6
L476L
sg7
L10L
sa(dp13
g6
L559L
sg7
L10L
sa(dp14
g6
L564L
sg7
L10L
sasVhhints
p15
(lp16
(dp17
g6
L-16L
sg7
L10L
sa(dp18
g6
L4L
sg7
L10L
sa(dp19
g6
L544L
sg7
L10L
sa(dp20
g6
L606L
sg7
L10L
sass."
EndChar

StartChar: uni0E02
Encoding: 3586 3586 128
GlifName: uni0E_02
Width: 635
VWidth: 0
GlyphClass: 2
Flags: HMW
LayerCount: 2
Fore
SplineSet
173 520 m 0
 146 520 124 501 118 474 c 0
 117 470 117 466 117 462 c 0
 117 441 130 428 153 428 c 0
 180 428 202 447 208 474 c 0
 209 478 209 482 209 486 c 0
 209 507 196 520 173 520 c 0
56 474 m 0
 72 547 149 613 264 613 c 0
 363 613 418 567 418 497 c 0
 418 487 416 475 414 464 c 0
 384 321 222 285 195 158 c 0
 193 150 192 142 192 135 c 0
 192 86 232 60 288 60 c 0
 351 60 408 94 426 177 c 2
 516 600 l 1
 623 600 l 1
 533 177 l 2
 510 68 408 -19 271 -19 c 0
 151 -19 83 37 83 117 c 0
 83 128 85 139 87 150 c 0
 123 321 308 345 335 470 c 0
 337 477 337 485 337 491 c 0
 337 534 303 557 242 557 c 2
 241 557 l 1
 260 543 272 522 272 495 c 0
 272 488 272 481 270 474 c 0
 257 414 203 375 142 375 c 0
 89 375 53 404 53 451 c 0
 53 458 54 466 56 474 c 0
EndSplineSet
PickledDataWithLists: "(dp0
Vcom.fontlab.hintData
p1
(dp2
Vvhints
p3
(lp4
(dp5
Vposition
p6
L14L
sVwidth
p7
L10L
sa(dp8
g6
L547L
sg7
L10L
sasVhhints
p9
(lp10
(dp11
g6
L-19L
sg7
L10L
sa(dp12
g6
L432L
sg7
L10L
sa(dp13
g6
L584L
sg7
L10L
sa(dp14
g6
L594L
sg7
L10L
sass."
EndChar

StartChar: uni0E03
Encoding: 3587 3587 129
GlifName: uni0E_03
Width: 635
VWidth: 0
GlyphClass: 2
Flags: HMW
LayerCount: 2
Fore
SplineSet
180 556 m 0
 153 556 131 537 125 510 c 0
 124 506 124 503 124 499 c 0
 124 478 138 464 161 464 c 0
 188 464 209 483 215 510 c 0
 216 514 216 518 216 522 c 0
 216 543 203 556 180 556 c 0
191 609 m 0
 244 609 280 580 280 533 c 0
 280 526 279 518 277 510 c 0
 274 495 269 482 261 470 c 1
 304 500 338 549 360 599 c 1
 399 604 l 1
 410 586 421 559 421 522 c 0
 421 508 419 494 416 477 c 0
 386 334 222 286 195 159 c 0
 193 151 192 143 192 136 c 0
 192 87 232 61 288 61 c 0
 351 61 408 94 426 177 c 2
 516 600 l 1
 623 600 l 1
 533 177 l 2
 510 68 408 -19 271 -19 c 0
 151 -19 83 38 83 118 c 0
 83 129 85 140 87 151 c 0
 123 322 313 351 343 489 c 1
 304 438 249 400 167 400 c 0
 97 400 60 434 60 484 c 0
 60 492 61 501 63 510 c 0
 76 570 130 609 191 609 c 0
EndSplineSet
PickledDataWithLists: "(dp0
Vcom.fontlab.hintData
p1
(dp2
Vvhints
p3
(lp4
(dp5
Vposition
p6
L11L
sVwidth
p7
L10L
sa(dp8
g6
L224L
sg7
L10L
sa(dp9
g6
L230L
sg7
L10L
sa(dp10
g6
L297L
sg7
L10L
sasVhhints
p11
(lp12
(dp13
g6
L-24L
sg7
L10L
sa(dp14
g6
L400L
sg7
L10L
sa(dp15
g6
L584L
sg7
L10L
sa(dp16
g6
L603L
sg7
L10L
sass."
EndChar

StartChar: uni0E04
Encoding: 3588 3588 130
GlifName: uni0E_04
Width: 665
VWidth: 0
GlyphClass: 2
Flags: HMW
LayerCount: 2
Fore
SplineSet
348 365 m 0
 321 365 299 346 293 319 c 0
 292 315 292 311 292 307 c 0
 292 286 305 273 328 273 c 0
 355 273 377 292 383 319 c 0
 384 323 384 327 384 331 c 0
 384 352 371 365 348 365 c 0
359 418 m 0
 412 418 448 389 448 342 c 0
 448 335 447 327 445 319 c 0
 432 259 378 220 317 220 c 0
 279 220 249 235 236 261 c 1
 209 224 183 172 164 100 c 2
 140 0 l 1
 25 0 l 1
 25 0 50 71 60 118 c 0
 81 219 62 246 95 399 c 0
 122 526 244 619 402 619 c 0
 540 619 620 548 620 445 c 0
 620 430 618 415 615 399 c 2
 530 0 l 1
 423 0 l 1
 444 100 l 2
 455 153 485 271 512 399 c 0
 515 413 516 425 516 437 c 0
 516 507 466 540 385 540 c 0
 291 540 218 495 198 399 c 0
 182 326 175 277 170 241 c 1
 197 301 233 357 278 390 c 0
 301 407 329 418 359 418 c 0
EndSplineSet
PickledDataWithLists: "(dp0
Vcom.fontlab.hintData
p1
(dp2
Vvhints
p3
(lp4
(dp5
Vposition
p6
L59L
sVwidth
p7
L10L
sa(dp8
g6
L142L
sg7
L10L
sa(dp9
g6
L381L
sg7
L10L
sa(dp10
g6
L439L
sg7
L10L
sa(dp11
g6
L508L
sg7
L10L
sa(dp12
g6
L590L
sg7
L10L
sasVhhints
p13
(lp14
(dp15
g6
L-19L
sg7
L10L
sa(dp16
g6
L-4L
sg7
L10L
sa(dp17
g6
L363L
sg7
L10L
sa(dp18
g6
L551L
sg7
L10L
sa(dp19
g6
L608L
sg7
L10L
sass."
EndChar

StartChar: uni0E05
Encoding: 3589 3589 131
GlifName: uni0E_05
Width: 665
VWidth: 0
GlyphClass: 2
Flags: HMW
LayerCount: 2
Fore
SplineSet
348 365 m 0
 321 365 299 346 293 319 c 0
 292 315 292 311 292 307 c 0
 292 286 305 273 328 273 c 0
 355 273 377 292 383 319 c 0
 384 323 384 327 384 331 c 0
 384 352 371 365 348 365 c 0
359 418 m 0
 412 418 448 389 448 342 c 0
 448 335 447 327 445 319 c 0
 432 259 378 220 317 220 c 0
 279 220 249 235 236 261 c 1
 209 224 183 172 164 100 c 2
 140 0 l 1
 25 0 l 1
 25 0 50 71 60 118 c 0
 81 219 62 246 95 399 c 0
 112 480 165 613 309 613 c 1
 383 533 l 1
 491 613 l 1
 596 613 623 542 623 472 c 0
 623 446 620 421 615 399 c 2
 530 0 l 1
 423 0 l 1
 444 100 l 2
 455 153 485 271 512 399 c 0
 518 427 521 451 521 470 c 0
 521 512 507 533 481 537 c 1
 381 468 l 1
 369 468 l 1
 357 468 l 1
 287 537 l 1
 247 532 213 488 194 399 c 0
 178 322 172 273 168 236 c 1
 195 298 232 356 278 390 c 0
 301 407 329 418 359 418 c 0
EndSplineSet
PickledDataWithLists: "(dp0
Vcom.fontlab.hintData
p1
(dp2
Vvhints
p3
(lp4
(dp5
Vposition
p6
L60L
sVwidth
p7
L10L
sa(dp8
g6
L142L
sg7
L10L
sa(dp9
g6
L444L
sg7
L10L
sa(dp10
g6
L508L
sg7
L10L
sa(dp11
g6
L590L
sg7
L10L
sasVhhints
p12
(lp13
(dp14
g6
L-18L
sg7
L10L
sa(dp15
g6
L-4L
sg7
L10L
sa(dp16
g6
L363L
sg7
L10L
sa(dp17
g6
L469L
sg7
L10L
sa(dp18
g6
L549L
sg7
L10L
sa(dp19
g6
L606L
sg7
L10L
sass."
EndChar

StartChar: uni0E06
Encoding: 3590 3590 132
GlifName: uni0E_06
Width: 650
VWidth: 0
GlyphClass: 2
Flags: HMW
LayerCount: 2
Fore
SplineSet
131 136 m 0
 104 136 82 117 76 90 c 0
 75 86 75 82 75 78 c 0
 75 57 88 44 111 44 c 0
 138 44 160 63 166 90 c 0
 167 94 167 98 167 102 c 0
 167 123 154 136 131 136 c 0
190 556 m 0
 163 556 141 537 135 510 c 0
 134 506 134 503 134 499 c 0
 134 478 148 464 171 464 c 0
 198 464 219 483 225 510 c 0
 226 514 226 518 226 522 c 0
 226 543 213 556 190 556 c 0
201 609 m 0
 254 609 290 580 290 533 c 0
 290 526 289 518 287 510 c 0
 284 495 279 482 271 470 c 1
 314 500 348 549 370 599 c 1
 410 604 l 1
 421 586 431 560 431 524 c 0
 431 510 430 494 426 477 c 0
 398 346 258 293 215 189 c 1
 316 179 380 138 421 93 c 1
 426 124 431 159 438 190 c 2
 526 600 l 1
 633 600 l 1
 505 0 l 1
 407 0 l 1
 375 54 319 107 230 124 c 1
 232 114 231 102 228 90 c 0
 215 30 161 -9 100 -9 c 0
 47 -9 11 20 11 67 c 0
 11 74 12 82 14 90 c 0
 24 138 60 172 106 184 c 1
 158 325 325 361 353 489 c 1
 314 438 259 400 177 400 c 0
 107 400 70 434 70 484 c 0
 70 492 71 501 73 510 c 0
 86 570 140 609 201 609 c 0
EndSplineSet
PickledDataWithLists: "(dp0
Vcom.fontlab.hintData
p1
(dp2
Vvhints
p3
(lp4
(dp5
Vposition
p6
L11L
sVwidth
p7
L10L
sa(dp8
g6
L35L
sg7
L10L
sa(dp9
g6
L110L
sg7
L10L
sa(dp10
g6
L239L
sg7
L10L
sa(dp11
g6
L251L
sg7
L10L
sa(dp12
g6
L317L
sg7
L10L
sa(dp13
g6
L325L
sg7
L10L
sa(dp14
g6
L486L
sg7
L10L
sa(dp15
g6
L494L
sg7
L10L
sa(dp16
g6
L566L
sg7
L10L
sa(dp17
g6
L576L
sg7
L10L
sasVhhints
p18
(lp19
(dp20
g6
L-27L
sg7
L10L
sa(dp21
g6
L223L
sg7
L10L
sa(dp22
g6
L277L
sg7
L10L
sa(dp23
g6
L403L
sg7
L10L
sa(dp24
g6
L598L
sg7
L10L
sa(dp25
g6
L608L
sg7
L10L
sass."
EndChar

StartChar: uni0E07
Encoding: 3591 3591 133
GlifName: uni0E_07
Width: 525
VWidth: 0
GlyphClass: 2
Flags: HMW
AnchorPoint: "ThaiAbove.mark" 485 0 basechar 0
LayerCount: 2
Fore
SplineSet
364 556 m 0
 337 556 315 537 309 510 c 0
 308 506 308 503 308 499 c 0
 308 478 322 464 345 464 c 0
 372 464 393 483 399 510 c 0
 400 514 400 518 400 522 c 0
 400 543 387 556 364 556 c 0
20 328 m 1
 97 388 l 1
 311 86 l 1
 310 95 309 106 309 118 c 0
 309 133 310 151 314 170 c 2
 342 300 l 2
 355 359 372 382 386 421 c 1
 370 414 352 411 333 411 c 0
 280 411 244 440 244 487 c 0
 244 494 245 502 247 510 c 0
 260 570 314 609 375 609 c 0
 455 609 493 570 493 506 c 0
 493 493 492 479 489 465 c 0
 477 409 459 362 444 290 c 2
 382 0 l 1
 268 0 l 1
 20 328 l 1
EndSplineSet
PickledDataWithLists: "(dp0
Vcom.fontlab.hintData
p1
(dp2
Vvhints
p3
(lp4
(dp5
Vposition
p6
L41L
sVwidth
p7
L10L
sa(dp8
g6
L151L
sg7
L10L
sa(dp9
g6
L381L
sg7
L10L
sa(dp10
g6
L469L
sg7
L10L
sasVhhints
p11
(lp12
(dp13
g6
L-26L
sg7
L10L
sa(dp14
g6
L355L
sg7
L10L
sa(dp15
g6
L504L
sg7
L10L
sa(dp16
g6
L549L
sg7
L10L
sa(dp17
g6
L611L
sg7
L10L
sass."
EndChar

StartChar: uni0E08
Encoding: 3592 3592 134
GlifName: uni0E_08
Width: 590
VWidth: 0
GlyphClass: 2
Flags: HMW
AnchorPoint: "ThaiBelow.mark" 500 0 basechar 0
LayerCount: 2
Fore
SplineSet
62 431 m 1
 95 527 196 619 347 619 c 0
 477 619 554 555 554 459 c 0
 554 446 552 431 549 417 c 0
 517 268 442 197 419 90 c 2
 400 0 l 1
 286 0 l 1
 291 28 293 57 293 84 c 0
 293 132 286 175 273 208 c 1
 249 179 211 162 171 162 c 0
 118 162 82 191 82 238 c 0
 82 245 83 253 85 261 c 0
 98 321 153 360 214 360 c 0
 320 360 348 251 349 146 c 1
 373 245 417 293 443 417 c 0
 446 429 447 440 447 450 c 0
 447 512 401 540 330 540 c 0
 251 540 193 498 167 424 c 1
 62 431 l 1
183 215 m 0
 210 215 231 234 237 261 c 0
 238 265 238 269 238 273 c 0
 238 294 225 307 202 307 c 0
 175 307 153 288 147 261 c 0
 146 257 146 254 146 250 c 0
 146 229 160 215 183 215 c 0
EndSplineSet
PickledDataWithLists: "(dp0
Vcom.fontlab.hintData
p1
(dp2
Vvhints
p3
(lp4
(dp5
Vposition
p6
L31L
sVwidth
p7
L10L
sa(dp8
g6
L101L
sg7
L10L
sa(dp9
g6
L444L
sg7
L10L
sa(dp10
g6
L529L
sg7
L10L
sasVhhints
p11
(lp12
(dp13
g6
L-11L
sg7
L10L
sa(dp14
g6
L229L
sg7
L10L
sa(dp15
g6
L307L
sg7
L10L
sa(dp16
g6
L429L
sg7
L10L
sa(dp17
g6
L552L
sg7
L9L
sa(dp18
g6
L614L
sg7
L10L
sass."
EndChar

StartChar: uni0E09
Encoding: 3593 3593 135
GlifName: uni0E_09
Width: 645
VWidth: 0
GlyphClass: 2
Flags: HMW
LayerCount: 2
Fore
SplineSet
77 0 m 1
 101 112 l 2
 105 132 114 149 125 162 c 1
 75 164 42 193 42 239 c 0
 42 246 42 253 44 261 c 0
 57 321 112 360 173 360 c 0
 226 360 261 331 261 284 c 0
 261 277 260 269 258 261 c 0
 247 209 219 187 208 136 c 2
 198 89 l 1
 255 137 331 185 429 192 c 1
 433 199 437 206 439 215 c 2
 480 409 l 2
 483 422 484 433 484 444 c 0
 484 509 436 540 360 540 c 0
 275 540 213 493 185 415 c 1
 80 423 l 1
 115 523 220 619 377 619 c 0
 512 619 592 552 592 453 c 0
 592 439 590 424 587 409 c 2
 550 235 l 2
 545 212 529 196 510 183 c 1
 542 172 561 147 561 112 c 0
 561 105 561 98 559 90 c 0
 546 30 492 -9 431 -9 c 0
 378 -9 342 20 342 67 c 0
 342 74 343 82 345 90 c 0
 347 100 350 110 355 119 c 1
 283 97 223 49 175 0 c 1
 77 0 l 1
462 136 m 0
 435 136 413 117 407 90 c 0
 406 86 406 82 406 78 c 0
 406 57 419 44 442 44 c 0
 469 44 491 63 497 90 c 0
 498 94 498 98 498 102 c 0
 498 123 485 136 462 136 c 0
161 307 m 0
 134 307 112 288 106 261 c 0
 105 257 105 254 105 250 c 0
 105 229 119 215 142 215 c 0
 169 215 190 234 196 261 c 0
 197 265 197 269 197 273 c 0
 197 294 184 307 161 307 c 0
EndSplineSet
PickledDataWithLists: "(dp0
Vcom.fontlab.hintData
p1
(dp2
Vvhints
p3
(lp4
(dp5
Vposition
p6
L33L
sVwidth
p7
L10L
sa(dp8
g6
L87L
sg7
L10L
sa(dp9
g6
L156L
sg7
L10L
sa(dp10
g6
L410L
sg7
L10L
sa(dp11
g6
L426L
sg7
L10L
sa(dp12
g6
L480L
sg7
L10L
sa(dp13
g6
L498L
sg7
L10L
sa(dp14
g6
L570L
sg7
L10L
sa(dp15
g6
L640L
sg7
L10L
sasVhhints
p16
(lp17
(dp18
g6
L-19L
sg7
L10L
sa(dp19
g6
L29L
sg7
L10L
sa(dp20
g6
L231L
sg7
L10L
sa(dp21
g6
L279L
sg7
L10L
sa(dp22
g6
L318L
sg7
L10L
sa(dp23
g6
L431L
sg7
L10L
sa(dp24
g6
L557L
sg7
L10L
sa(dp25
g6
L616L
sg7
L10L
sass."
EndChar

StartChar: uni0E0A
Encoding: 3594 3594 136
GlifName: uni0E_0A_
Width: 640
VWidth: 0
GlyphClass: 2
Flags: HMW
LayerCount: 2
Fore
SplineSet
173 520 m 0
 146 520 124 501 118 474 c 0
 117 470 117 466 117 462 c 0
 117 441 130 428 153 428 c 0
 180 428 202 447 208 474 c 0
 209 478 209 482 209 486 c 0
 209 507 196 520 173 520 c 0
417 484 m 1
 499 495 550 544 570 623 c 1
 676 614 l 1
 658 539 591 480 505 455 c 1
 547 441 574 417 574 379 c 0
 574 373 573 367 572 360 c 2
 533 177 l 2
 510 68 408 -19 271 -19 c 0
 151 -19 83 37 83 117 c 0
 83 128 85 139 87 150 c 0
 123 321 308 345 335 470 c 0
 337 477 337 485 337 491 c 0
 337 534 303 557 242 557 c 2
 241 557 l 1
 260 543 272 522 272 495 c 0
 272 488 272 481 270 474 c 0
 257 414 203 375 142 375 c 0
 89 375 53 404 53 451 c 0
 53 458 54 466 56 474 c 0
 72 547 149 613 264 613 c 0
 363 613 418 567 418 497 c 0
 418 493 417 488 417 484 c 1
402 427 m 1
 355 313 219 273 195 158 c 0
 193 150 192 142 192 135 c 0
 192 86 232 60 288 60 c 0
 351 60 408 94 426 177 c 2
 465 360 l 2
 466 366 467 372 467 377 c 0
 467 405 449 422 402 427 c 1
EndSplineSet
PickledDataWithLists: "(dp0
Vcom.fontlab.hintData
p1
(dp2
Vvhints
p3
(lp4
(dp5
Vposition
p6
L44L
sVwidth
p7
L10L
sa(dp8
g6
L186L
sg7
L10L
sa(dp9
g6
L197L
sg7
L10L
sa(dp10
g6
L268L
sg7
L10L
sa(dp11
g6
L279L
sg7
L10L
sa(dp12
g6
L473L
sg7
L10L
sa(dp13
g6
L555L
sg7
L10L
sa(dp14
g6
L586L
sg7
L10L
sasVhhints
p15
(lp16
(dp17
g6
L-29L
sg7
L10L
sa(dp18
g6
L29L
sg7
L10L
sa(dp19
g6
L437L
sg7
L10L
sa(dp20
g6
L599L
sg7
L10L
sa(dp21
g6
L644L
sg7
L10L
sass."
EndChar

StartChar: uni0E0B
Encoding: 3595 3595 137
GlifName: uni0E_0B_
Width: 640
VWidth: 0
GlyphClass: 2
Flags: HMW
LayerCount: 2
Fore
SplineSet
180 556 m 0
 153 556 131 537 125 510 c 0
 124 506 124 503 124 499 c 0
 124 478 138 464 161 464 c 0
 188 464 209 483 215 510 c 0
 216 514 216 518 216 522 c 0
 216 543 203 556 180 556 c 0
191 609 m 0
 244 609 280 580 280 533 c 0
 280 526 279 518 277 510 c 0
 274 495 269 482 261 470 c 1
 304 500 338 549 360 599 c 1
 399 604 l 1
 410 585 421 558 421 520 c 0
 421 509 420 497 418 484 c 1
 501 496 550 544 570 623 c 1
 676 614 l 1
 658 539 591 480 505 455 c 1
 547 441 574 417 574 379 c 0
 574 373 573 367 572 360 c 2
 533 177 l 2
 510 68 408 -19 271 -19 c 0
 151 -19 83 38 83 118 c 0
 83 129 85 140 87 151 c 0
 123 322 313 351 343 489 c 1
 304 438 249 400 167 400 c 0
 97 400 60 434 60 484 c 0
 60 492 61 501 63 510 c 0
 76 570 130 609 191 609 c 0
465 360 m 2
 466 366 467 372 467 377 c 0
 467 405 448 423 399 428 c 1
 347 321 219 270 195 159 c 0
 193 151 192 143 192 136 c 0
 192 87 232 61 288 61 c 0
 351 61 408 94 426 177 c 2
 465 360 l 2
EndSplineSet
PickledDataWithLists: "(dp0
Vcom.fontlab.hintData
p1
(dp2
Vvhints
p3
(lp4
(dp5
Vposition
p6
L11L
sVwidth
p7
L10L
sa(dp8
g6
L199L
sg7
L10L
sa(dp9
g6
L226L
sg7
L10L
sa(dp10
g6
L278L
sg7
L10L
sa(dp11
g6
L296L
sg7
L10L
sa(dp12
g6
L474L
sg7
L10L
sa(dp13
g6
L556L
sg7
L10L
sa(dp14
g6
L586L
sg7
L10L
sasVhhints
p15
(lp16
(dp17
g6
L-24L
sg7
L10L
sa(dp18
g6
L34L
sg7
L10L
sa(dp19
g6
L398L
sg7
L10L
sa(dp20
g6
L603L
sg7
L10L
sa(dp21
g6
L608L
sg7
L10L
sa(dp22
g6
L644L
sg7
L10L
sass."
EndChar

StartChar: uni0E0C
Encoding: 3596 3596 138
GlifName: uni0E_0C_
Width: 950
VWidth: 0
GlyphClass: 2
Flags: HMW
LayerCount: 2
Fore
SplineSet
460 136 m 0
 433 136 411 117 405 90 c 0
 404 86 404 82 404 78 c 0
 404 57 417 44 440 44 c 0
 467 44 489 63 495 90 c 0
 496 94 496 98 496 102 c 0
 496 123 483 136 460 136 c 0
387 619 m 0
 527 619 610 549 610 445 c 0
 610 430 608 415 605 399 c 2
 566 215 l 2
 564 205 563 196 562 187 c 1
 643 177 690 138 721 95 c 1
 726 126 732 160 738 190 c 2
 826 600 l 1
 933 600 l 1
 805 0 l 1
 707 0 l 1
 678 56 638 109 561 123 c 1
 561 113 560 103 557 90 c 0
 544 30 490 -9 429 -9 c 0
 376 -9 340 20 340 67 c 0
 340 74 341 82 343 90 c 0
 355 148 407 187 466 189 c 1
 463 197 462 206 462 216 c 0
 462 223 462 231 464 240 c 2
 498 399 l 2
 501 412 502 425 502 436 c 0
 502 506 451 540 370 540 c 0
 292 540 233 502 199 440 c 1
 335 410 l 1
 315 366 l 2
 313 366 295 369 283 369 c 0
 243 369 222 344 213 304 c 2
 199 240 l 2
 195 220 187 203 177 189 c 1
 230 189 265 160 265 113 c 0
 265 106 264 98 262 90 c 0
 249 30 195 -9 134 -9 c 0
 81 -9 45 20 45 67 c 0
 45 74 46 82 48 90 c 0
 58 136 76 165 86 210 c 2
 103 294 l 2
 114 344 147 378 193 392 c 1
 78 416 l 1
 115 520 224 619 387 619 c 0
165 136 m 0
 138 136 116 117 110 90 c 0
 109 86 109 82 109 78 c 0
 109 57 122 44 145 44 c 0
 172 44 194 63 200 90 c 0
 201 94 201 98 201 102 c 0
 201 123 188 136 165 136 c 0
EndSplineSet
PickledDataWithLists: "(dp0
Vcom.fontlab.hintData
p1
(dp2
Vvhints
p3
(lp4
(dp5
Vposition
p6
L84L
sVwidth
p7
L10L
sa(dp8
g6
L93L
sg7
L10L
sa(dp9
g6
L114L
sg7
L10L
sa(dp10
g6
L166L
sg7
L10L
sa(dp11
g6
L196L
sg7
L10L
sa(dp12
g6
L343L
sg7
L10L
sa(dp13
g6
L414L
sg7
L10L
sa(dp14
g6
L502L
sg7
L10L
sa(dp15
g6
L507L
sg7
L10L
sa(dp16
g6
L576L
sg7
L10L
sa(dp17
g6
L780L
sg7
L10L
sa(dp18
g6
L789L
sg7
L10L
sa(dp19
g6
L861L
sg7
L10L
sa(dp20
g6
L871L
sg7
L10L
sasVhhints
p21
(lp22
(dp23
g6
L-26L
sg7
L10L
sa(dp24
g6
L-17L
sg7
L10L
sa(dp25
g6
L41L
sg7
L10L
sa(dp26
g6
L234L
sg7
L10L
sa(dp27
g6
L286L
sg7
L10L
sa(dp28
g6
L546L
sg7
L10L
sa(dp29
g6
L593L
sg7
L10L
sa(dp30
g6
L604L
sg7
L10L
sass."
EndChar

StartChar: uni0E0D
Encoding: 3597 3597 139
GlifName: uni0E_0D_
Width: 950
VWidth: 0
GlyphClass: 2
Flags: HMW
LayerCount: 2
Fore
SplineSet
165 136 m 0
 138 136 116 117 110 90 c 0
 109 86 109 82 109 78 c 0
 109 57 122 44 145 44 c 0
 172 44 194 63 200 90 c 0
 201 94 201 98 201 102 c 0
 201 123 188 136 165 136 c 0
387 619 m 0
 527 619 610 549 610 445 c 0
 610 430 608 415 605 399 c 2
 553 157 l 2
 551 146 550 137 550 128 c 0
 550 80 583 60 625 60 c 0
 675 60 721 87 736 157 c 2
 831 600 l 1
 938 600 l 1
 843 157 l 2
 823 61 732 -19 608 -19 c 0
 500 -19 442 42 442 121 c 0
 442 133 443 145 446 157 c 2
 498 399 l 2
 501 412 502 425 502 436 c 0
 502 506 451 540 370 540 c 0
 292 540 233 502 199 440 c 1
 335 410 l 1
 315 366 l 2
 313 366 295 369 283 369 c 0
 243 369 222 344 213 304 c 2
 199 240 l 2
 195 220 187 203 177 189 c 1
 230 189 265 160 265 113 c 0
 265 106 264 98 262 90 c 0
 249 30 195 -9 134 -9 c 0
 81 -9 45 20 45 67 c 0
 45 74 46 82 48 90 c 0
 58 136 76 165 86 210 c 2
 103 294 l 2
 114 344 147 378 193 392 c 1
 78 416 l 1
 115 520 224 619 387 619 c 0
488 -113 m 0
 466 -113 449 -128 444 -150 c 0
 443 -154 443 -157 443 -160 c 0
 443 -176 454 -187 472 -187 c 0
 494 -187 511 -172 516 -150 c 0
 517 -146 517 -143 517 -140 c 0
 517 -124 506 -113 488 -113 c 0
498 -66 m 0
 543 -66 572 -90 572 -130 c 0
 572 -136 571 -143 570 -150 c 0
 565 -173 553 -192 537 -206 c 1
 541 -206 546 -206 550 -206 c 2
 570 -206 l 2
 631 -206 685 -176 705 -81 c 1
 783 -90 l 1
 761 -195 675 -258 572 -258 c 2
 512 -258 l 2
 434 -258 388 -226 388 -172 c 0
 388 -165 388 -158 390 -150 c 0
 401 -99 446 -66 498 -66 c 0
EndSplineSet
PickledDataWithLists: "(dp0
Vcom.fontlab.hintData
p1
(dp2
Vvhints
p3
(lp4
(dp5
Vposition
p6
L81L
sVwidth
p7
L10L
sa(dp8
g6
L101L
sg7
L10L
sa(dp9
g6
L169L
sg7
L10L
sa(dp10
g6
L189L
sg7
L10L
sa(dp11
g6
L315L
sg7
L10L
sa(dp12
g6
L471L
sg7
L10L
sa(dp13
g6
L476L
sg7
L10L
sa(dp14
g6
L513L
sg7
L10L
sa(dp15
g6
L559L
sg7
L10L
sa(dp16
g6
L564L
sg7
L10L
sa(dp17
g6
L591L
sg7
L10L
sa(dp18
g6
L771L
sg7
L10L
sa(dp19
g6
L781L
sg7
L10L
sa(dp20
g6
L859L
sg7
L10L
sa(dp21
g6
L869L
sg7
L10L
sa(dp22
g6
L879L
sg7
L10L
sasVhhints
p23
(lp24
(dp25
g6
L-252L
sg7
L10L
sa(dp26
g6
L-197L
sg7
L10L
sa(dp27
g6
L-98L
sg7
L10L
sa(dp28
g6
L-19L
sg7
L10L
sa(dp29
g6
L43L
sg7
L10L
sa(dp30
g6
L56L
sg7
L10L
sa(dp31
g6
L544L
sg7
L10L
sa(dp32
g6
L595L
sg7
L10L
sa(dp33
g6
L606L
sg7
L10L
sass."
Substitution2: "ThaiRC.rd subtable" uni0E0D.rd
Colour: ff00ff
EndChar

StartChar: uni0E0D.rd
Encoding: 63642 63642 140
GlifName: uni0E_0D_.rd
Width: 950
VWidth: 0
GlyphClass: 2
Flags: HMW
LayerCount: 2
Fore
SplineSet
165 136 m 0
 138 136 116 117 110 90 c 0
 109 86 109 82 109 78 c 0
 109 57 122 44 145 44 c 0
 172 44 194 63 200 90 c 0
 201 94 201 98 201 102 c 0
 201 123 188 136 165 136 c 0
387 619 m 0
 527 619 610 549 610 445 c 0
 610 430 608 415 605 399 c 2
 553 157 l 2
 551 146 550 137 550 128 c 0
 550 80 583 60 625 60 c 0
 675 60 721 87 736 157 c 2
 831 600 l 1
 938 600 l 1
 843 157 l 2
 823 61 732 -19 608 -19 c 0
 500 -19 442 42 442 121 c 0
 442 133 443 145 446 157 c 2
 498 399 l 2
 501 412 502 425 502 436 c 0
 502 506 451 540 370 540 c 0
 292 540 233 502 199 440 c 1
 335 410 l 1
 315 366 l 2
 313 366 295 369 283 369 c 0
 243 369 222 344 213 304 c 2
 199 240 l 2
 195 220 187 203 177 189 c 1
 230 189 265 160 265 113 c 0
 265 106 264 98 262 90 c 0
 249 30 195 -9 134 -9 c 0
 81 -9 45 20 45 67 c 0
 45 74 46 82 48 90 c 0
 58 136 76 165 86 210 c 2
 103 294 l 2
 114 344 147 378 193 392 c 1
 78 416 l 1
 115 520 224 619 387 619 c 0
EndSplineSet
PickledDataWithLists: "(dp0
Vcom.fontlab.hintData
p1
(dp2
Vvhints
p3
(lp4
(dp5
Vposition
p6
L81L
sVwidth
p7
L10L
sa(dp8
g6
L101L
sg7
L10L
sa(dp9
g6
L169L
sg7
L10L
sa(dp10
g6
L189L
sg7
L10L
sa(dp11
g6
L315L
sg7
L10L
sa(dp12
g6
L471L
sg7
L10L
sa(dp13
g6
L476L
sg7
L10L
sa(dp14
g6
L559L
sg7
L10L
sa(dp15
g6
L564L
sg7
L10L
sa(dp16
g6
L771L
sg7
L10L
sa(dp17
g6
L781L
sg7
L10L
sa(dp18
g6
L859L
sg7
L10L
sa(dp19
g6
L869L
sg7
L10L
sasVhhints
p20
(lp21
(dp22
g6
L-19L
sg7
L10L
sa(dp23
g6
L43L
sg7
L10L
sa(dp24
g6
L56L
sg7
L10L
sa(dp25
g6
L544L
sg7
L10L
sa(dp26
g6
L595L
sg7
L10L
sa(dp27
g6
L606L
sg7
L10L
sass."
EndChar

StartChar: uni0E0E
Encoding: 3598 3598 141
GlifName: uni0E_0E_
Width: 665
VWidth: 0
GlyphClass: 2
Flags: HMW
LayerCount: 2
Fore
SplineSet
116 136 m 0
 89 136 67 117 61 90 c 0
 60 86 60 82 60 78 c 0
 60 57 73 44 96 44 c 0
 123 44 145 63 151 90 c 0
 152 94 152 98 152 102 c 0
 152 123 139 136 116 136 c 0
397 619 m 0
 537 619 620 549 620 445 c 0
 620 430 618 415 615 399 c 2
 514 -75 l 1
 480 -235 l 1
 384 -235 l 1
 340 -199 279 -160 224 -135 c 1
 224 -137 224 -139 224 -141 c 0
 224 -145 224 -150 223 -155 c 0
 214 -197 168 -247 101 -247 c 0
 47 -247 17 -217 17 -175 c 0
 17 -168 18 -162 19 -155 c 0
 31 -100 81 -62 144 -62 c 0
 219 -62 315 -112 391 -165 c 1
 394 -141 400 -110 407 -75 c 2
 508 399 l 2
 511 412 512 425 512 436 c 0
 512 506 461 540 380 540 c 0
 303 540 243 503 209 441 c 1
 365 410 l 1
 345 366 l 2
 343 366 325 369 313 369 c 0
 273 369 252 344 243 304 c 2
 223 210 l 2
 218 187 218 169 218 150 c 0
 218 131 218 113 213 90 c 0
 200 30 146 -9 85 -9 c 0
 32 -9 -4 20 -4 67 c 0
 -4 74 -3 82 -1 90 c 0
 12 149 64 187 123 189 c 1
 121 197 119 205 119 215 c 0
 119 223 120 231 122 240 c 2
 133 294 l 2
 144 344 175 377 221 392 c 1
 88 415 l 1
 88 416 l 1
 125 520 234 619 397 619 c 0
165 -114 m 1
 154 -112 146 -110 137 -110 c 0
 115 -110 89 -123 82 -155 c 0
 81 -159 81 -163 81 -166 c 0
 81 -188 97 -199 115 -199 c 0
 143 -199 166 -180 171 -155 c 0
 172 -150 173 -145 173 -141 c 0
 173 -130 169 -121 165 -114 c 1
EndSplineSet
PickledDataWithLists: "(dp0
Vcom.fontlab.hintData
p1
(dp2
Vvhints
p3
(lp4
(dp5
Vposition
p6
L26L
sVwidth
p7
L10L
sa(dp8
g6
L81L
sg7
L10L
sa(dp9
g6
L126L
sg7
L10L
sa(dp10
g6
L219L
sg7
L10L
sa(dp11
g6
L470L
sg7
L10L
sa(dp12
g6
L476L
sg7
L10L
sa(dp13
g6
L556L
sg7
L10L
sa(dp14
g6
L564L
sg7
L10L
sasVhhints
p15
(lp16
(dp17
g6
L-242L
sg7
L10L
sa(dp18
g6
L-235L
sg7
L10L
sa(dp19
g6
L-137L
sg7
L10L
sa(dp20
g6
L-87L
sg7
L10L
sa(dp21
g6
L-16L
sg7
L10L
sa(dp22
g6
L66L
sg7
L10L
sa(dp23
g6
L544L
sg7
L10L
sa(dp24
g6
L606L
sg7
L10L
sass."
EndChar

StartChar: uni0E0F
Encoding: 3599 3599 142
GlifName: uni0E_0F_
Width: 665
VWidth: 0
GlyphClass: 2
Flags: HMW
LayerCount: 2
Fore
SplineSet
116 136 m 0
 89 136 67 117 61 90 c 0
 60 86 60 82 60 78 c 0
 60 57 73 44 96 44 c 0
 123 44 145 63 151 90 c 0
 152 94 152 98 152 102 c 0
 152 123 139 136 116 136 c 0
397 619 m 0
 537 619 620 549 620 445 c 0
 620 430 618 415 615 399 c 2
 514 -75 l 1
 480 -235 l 1
 384 -235 l 1
 281 -138 l 1
 266 -156 246 -178 220 -197 c 0
 184 -223 137 -247 88 -247 c 0
 33 -247 1 -218 1 -175 c 0
 1 -168 1 -161 3 -154 c 0
 14 -101 63 -62 125 -62 c 0
 183 -62 209 -101 209 -138 c 0
 209 -143 209 -147 208 -151 c 1
 238 -122 262 -85 267 -75 c 1
 300 -75 l 1
 391 -165 l 1
 394 -141 400 -110 407 -75 c 2
 508 399 l 2
 511 412 512 425 512 436 c 0
 512 506 461 540 380 540 c 0
 303 540 243 503 209 441 c 1
 365 410 l 1
 345 366 l 2
 343 366 325 369 313 369 c 0
 273 369 252 344 243 304 c 2
 223 210 l 2
 218 188 218 169 218 151 c 0
 218 132 218 113 213 90 c 0
 200 30 146 -9 85 -9 c 0
 32 -9 -4 20 -4 67 c 0
 -4 74 -3 82 -1 90 c 0
 12 149 64 187 123 189 c 1
 121 197 119 205 119 215 c 0
 119 223 120 231 122 240 c 2
 133 294 l 2
 144 344 175 377 221 392 c 1
 88 415 l 1
 88 416 l 1
 125 520 234 619 397 619 c 0
66 -154 m 0
 65 -158 65 -162 65 -166 c 0
 65 -189 83 -198 102 -198 c 0
 112 -198 122 -197 133 -194 c 1
 143 -185 151 -172 155 -154 c 0
 156 -151 156 -147 156 -144 c 0
 156 -124 142 -110 118 -110 c 0
 97 -110 72 -124 66 -154 c 0
EndSplineSet
PickledDataWithLists: "(dp0
Vcom.fontlab.hintData
p1
(dp2
Vvhints
p3
(lp4
(dp5
Vposition
p6
L26L
sVwidth
p7
L10L
sa(dp8
g6
L81L
sg7
L10L
sa(dp9
g6
L97L
sg7
L10L
sa(dp10
g6
L131L
sg7
L10L
sa(dp11
g6
L166L
sg7
L10L
sa(dp12
g6
L179L
sg7
L10L
sa(dp13
g6
L221L
sg7
L10L
sa(dp14
g6
L470L
sg7
L10L
sa(dp15
g6
L476L
sg7
L10L
sa(dp16
g6
L553L
sg7
L10L
sa(dp17
g6
L564L
sg7
L10L
sasVhhints
p18
(lp19
(dp20
g6
L-240L
sg7
L10L
sa(dp21
g6
L-234L
sg7
L10L
sa(dp22
g6
L-191L
sg7
L10L
sa(dp23
g6
L-88L
sg7
L10L
sa(dp24
g6
L-83L
sg7
L10L
sa(dp25
g6
L-16L
sg7
L10L
sa(dp26
g6
L66L
sg7
L10L
sa(dp27
g6
L544L
sg7
L10L
sa(dp28
g6
L606L
sg7
L10L
sass."
EndChar

StartChar: uni0E10
Encoding: 3600 3600 143
GlifName: uni0E_10
Width: 555
VWidth: 0
GlyphClass: 2
Flags: HMW
AnchorPoint: "ThaiTone.mark" 475 0 basechar 0
AnchorPoint: "ThaiAbove.mark" 515 0 basechar 0
LayerCount: 2
Fore
SplineSet
156 277 m 0
 129 277 107 258 101 231 c 0
 100 227 100 223 100 219 c 0
 100 198 113 185 136 185 c 0
 163 185 185 204 191 231 c 0
 192 235 192 239 192 243 c 0
 192 264 179 277 156 277 c 0
167 330 m 0
 278 330 306 217 307 116 c 1
 323 172 356 234 369 293 c 0
 370 299 371 305 371 310 c 0
 371 375 279 399 75 399 c 1
 80 424 l 2
 105 541 210 619 336 619 c 0
 413 619 456 589 480 560 c 1
 483 565 486 569 489 572 c 2
 521 613 l 1
 597 598 l 1
 596 593 l 1
 489 485 l 1
 456 485 l 1
 445 507 412 547 336 547 c 0
 275 547 214 520 188 450 c 1
 369 444 478 414 478 330 c 0
 478 322 477 315 475 306 c 0
 458 226 390 139 373 60 c 2
 360 0 l 1
 246 0 l 1
 250 26 252 52 252 78 c 0
 252 119 247 159 235 189 c 1
 212 154 170 132 125 132 c 0
 72 132 36 161 36 208 c 0
 36 215 37 223 39 231 c 0
 52 291 106 330 167 330 c 0
40 -154 m 0
 39 -158 39 -162 39 -166 c 0
 39 -189 57 -198 76 -198 c 0
 86 -198 96 -197 107 -194 c 1
 117 -185 125 -172 129 -154 c 0
 130 -151 130 -147 130 -144 c 0
 130 -124 116 -110 92 -110 c 0
 71 -110 46 -124 40 -154 c 0
182 -151 m 1
 212 -122 236 -85 241 -75 c 1
 274 -75 l 1
 336 -156 l 1
 340 -133 344 -106 351 -75 c 1
 431 -75 l 1
 397 -235 l 1
 328 -235 l 1
 252 -141 l 1
 237 -159 218 -179 194 -197 c 0
 158 -223 111 -247 62 -247 c 0
 7 -247 -25 -218 -25 -175 c 0
 -25 -168 -25 -161 -23 -154 c 0
 -12 -101 37 -62 99 -62 c 0
 157 -62 183 -101 183 -138 c 0
 183 -143 183 -147 182 -151 c 1
EndSplineSet
PickledDataWithLists: "(dp0
Vcom.fontlab.hintData
p1
(dp2
Vvhints
p3
(lp4
(dp5
Vposition
p6
L30L
sVwidth
p7
L10L
sa(dp8
g6
L80L
sg7
L10L
sa(dp9
g6
L89L
sg7
L10L
sa(dp10
g6
L110L
sg7
L10L
sa(dp11
g6
L149L
sg7
L10L
sa(dp12
g6
L160L
sg7
L10L
sa(dp13
g6
L434L
sg7
L10L
sa(dp14
g6
L504L
sg7
L10L
sa(dp15
g6
L510L
sg7
L10L
sa(dp16
g6
L516L
sg7
L10L
sa(dp17
g6
L569L
sg7
L10L
sasVhhints
p18
(lp19
(dp20
g6
L-237L
sg7
L10L
sa(dp21
g6
L-229L
sg7
L10L
sa(dp22
g6
L-189L
sg7
L10L
sa(dp23
g6
L-92L
sg7
L10L
sa(dp24
g6
L-87L
sg7
L10L
sa(dp25
g6
L-72L
sg7
L10L
sa(dp26
g6
L-9L
sg7
L10L
sa(dp27
g6
L197L
sg7
L10L
sa(dp28
g6
L215L
sg7
L10L
sa(dp29
g6
L272L
sg7
L10L
sa(dp30
g6
L366L
sg7
L10L
sa(dp31
g6
L420L
sg7
L10L
sa(dp32
g6
L558L
sg7
L10L
sa(dp33
g6
L612L
sg7
L10L
sa(dp34
g6
L652L
sg7
L10L
sass."
Substitution2: "ThaiRC.rd subtable" uni0E10.rd
Colour: ff00ff
EndChar

StartChar: uni0E10.rd
Encoding: 63646 63646 144
GlifName: uni0E_10.rd
Width: 555
VWidth: 0
GlyphClass: 2
Flags: HMW
AnchorPoint: "ThaiBelow.mark" 450 0 basechar 0
AnchorPoint: "ThaiTone.mark" 475 0 basechar 0
AnchorPoint: "ThaiAbove.mark" 515 0 basechar 0
LayerCount: 2
Fore
SplineSet
156 277 m 0
 129 277 107 258 101 231 c 0
 100 227 100 223 100 219 c 0
 100 198 113 185 136 185 c 0
 163 185 185 204 191 231 c 0
 192 235 192 239 192 243 c 0
 192 264 179 277 156 277 c 0
167 330 m 0
 278 330 306 217 307 116 c 1
 323 172 356 234 369 293 c 0
 370 299 371 305 371 310 c 0
 371 375 279 399 75 399 c 1
 80 424 l 2
 105 541 210 619 336 619 c 0
 413 619 456 589 480 560 c 1
 483 565 486 569 489 572 c 2
 521 613 l 1
 597 598 l 1
 596 593 l 1
 489 485 l 1
 456 485 l 1
 445 507 412 547 336 547 c 0
 275 547 214 520 188 450 c 1
 369 444 478 414 478 330 c 0
 478 322 477 315 475 306 c 0
 458 226 390 139 373 60 c 2
 360 0 l 1
 246 0 l 1
 250 26 252 52 252 78 c 0
 252 119 247 159 235 189 c 1
 212 154 170 132 125 132 c 0
 72 132 36 161 36 208 c 0
 36 215 37 223 39 231 c 0
 52 291 106 330 167 330 c 0
EndSplineSet
PickledDataWithLists: "(dp0
Vcom.fontlab.hintData
p1
(dp2
Vvhints
p3
(lp4
(dp5
Vposition
p6
L30L
sVwidth
p7
L10L
sa(dp8
g6
L89L
sg7
L10L
sa(dp9
g6
L110L
sg7
L10L
sa(dp10
g6
L430L
sg7
L10L
sa(dp11
g6
L510L
sg7
L10L
sa(dp12
g6
L569L
sg7
L10L
sasVhhints
p13
(lp14
(dp15
g6
L-9L
sg7
L10L
sa(dp16
g6
L197L
sg7
L10L
sa(dp17
g6
L215L
sg7
L10L
sa(dp18
g6
L272L
sg7
L10L
sa(dp19
g6
L366L
sg7
L10L
sa(dp20
g6
L420L
sg7
L10L
sa(dp21
g6
L558L
sg7
L10L
sa(dp22
g6
L612L
sg7
L10L
sa(dp23
g6
L652L
sg7
L10L
sass."
EndChar

StartChar: uni0E11
Encoding: 3601 3601 145
GlifName: uni0E_11
Width: 665
VWidth: 0
GlyphClass: 2
Flags: HMW
LayerCount: 2
Fore
SplineSet
180 556 m 0
 153 556 131 537 125 510 c 0
 124 506 124 503 124 499 c 0
 124 478 138 464 161 464 c 0
 188 464 209 483 215 510 c 0
 216 514 216 518 216 522 c 0
 216 543 203 556 180 556 c 0
191 609 m 0
 244 609 280 580 280 533 c 0
 280 526 279 518 277 510 c 0
 274 495 269 482 261 470 c 1
 304 500 338 549 360 599 c 1
 400 604 l 1
 410 586 422 561 422 525 c 0
 422 522 422 520 422 517 c 1
 468 568 519 609 564 609 c 0
 620 609 634 572 634 534 c 0
 634 518 632 501 629 487 c 2
 525 0 l 1
 418 0 l 1
 517 468 l 2
 519 478 521 487 521 495 c 0
 521 508 517 518 506 520 c 1
 478 512 432 464 398 423 c 1
 348 319 234 269 211 159 c 2
 177 0 l 1
 70 0 l 1
 102 151 l 2
 138 322 313 351 343 489 c 1
 304 438 249 400 167 400 c 0
 97 400 60 434 60 484 c 0
 60 492 61 501 63 510 c 0
 76 570 130 609 191 609 c 0
EndSplineSet
PickledDataWithLists: "(dp0
Vcom.fontlab.hintData
p1
(dp2
Vvhints
p3
(lp4
(dp5
Vposition
p6
L11L
sVwidth
p7
L10L
sa(dp8
g6
L161L
sg7
L10L
sa(dp9
g6
L235L
sg7
L10L
sa(dp10
g6
L283L
sg7
L10L
sa(dp11
g6
L524L
sg7
L10L
sa(dp12
g6
L529L
sg7
L10L
sa(dp13
g6
L606L
sg7
L10L
sa(dp14
g6
L608L
sg7
L10L
sasVhhints
p15
(lp16
(dp17
g6
L-15L
sg7
L10L
sa(dp18
g6
L-8L
sg7
L10L
sa(dp19
g6
L398L
sg7
L10L
sa(dp20
g6
L602L
sg7
L10L
sa(dp21
g6
L611L
sg7
L10L
sass."
EndChar

StartChar: uni0E12
Encoding: 3602 3602 146
GlifName: uni0E_12
Width: 960
VWidth: 0
GlyphClass: 2
Flags: HMW
LayerCount: 2
Fore
SplineSet
348 365 m 0
 321 365 299 346 293 319 c 0
 292 315 292 311 292 307 c 0
 292 286 305 273 328 273 c 0
 355 273 377 292 383 319 c 0
 384 323 384 327 384 331 c 0
 384 352 371 365 348 365 c 0
470 136 m 0
 443 136 421 117 415 90 c 0
 414 86 414 82 414 78 c 0
 414 57 427 44 450 44 c 0
 477 44 499 63 505 90 c 0
 506 94 506 98 506 102 c 0
 506 123 493 136 470 136 c 0
309 613 m 1
 383 533 l 1
 491 613 l 1
 596 613 623 542 623 472 c 0
 623 446 620 421 615 399 c 2
 576 215 l 2
 574 205 573 196 572 187 c 1
 653 177 700 138 731 95 c 1
 736 126 742 160 748 190 c 2
 836 600 l 1
 943 600 l 1
 815 0 l 1
 717 0 l 1
 688 56 648 109 571 123 c 1
 571 113 570 103 567 90 c 0
 554 30 500 -9 439 -9 c 0
 386 -9 350 20 350 67 c 0
 350 74 351 82 353 90 c 0
 366 150 420 188 480 189 c 1
 478 197 476 207 476 218 c 0
 476 225 476 232 478 240 c 2
 512 399 l 2
 518 427 521 451 521 470 c 0
 521 512 507 533 481 537 c 1
 381 468 l 1
 369 468 l 1
 357 468 l 1
 287 537 l 1
 247 532 213 488 194 399 c 0
 164 256 176 224 162 157 c 0
 157 134 150 108 145 92 c 1
 202 147 273 178 326 220 c 1
 323 220 320 220 317 220 c 0
 264 220 228 249 228 296 c 0
 228 303 229 311 231 319 c 0
 244 379 298 418 359 418 c 0
 412 418 448 389 448 342 c 0
 448 335 447 327 445 319 c 0
 412 162 206 121 146 0 c 1
 25 0 l 1
 25 0 50 71 60 118 c 0
 81 219 62 246 95 399 c 0
 112 480 165 613 309 613 c 1
EndSplineSet
PickledDataWithLists: "(dp0
Vcom.fontlab.hintData
p1
(dp2
Vvhints
p3
(lp4
(dp5
Vposition
p6
L64L
sVwidth
p7
L10L
sa(dp8
g6
L146L
sg7
L10L
sa(dp9
g6
L322L
sg7
L10L
sa(dp10
g6
L328L
sg7
L10L
sa(dp11
g6
L375L
sg7
L10L
sa(dp12
g6
L445L
sg7
L10L
sa(dp13
g6
L535L
sg7
L10L
sa(dp14
g6
L605L
sg7
L10L
sa(dp15
g6
L781L
sg7
L10L
sa(dp16
g6
L789L
sg7
L10L
sa(dp17
g6
L861L
sg7
L10L
sa(dp18
g6
L871L
sg7
L10L
sasVhhints
p19
(lp20
(dp21
g6
L-19L
sg7
L10L
sa(dp22
g6
L-15L
sg7
L10L
sa(dp23
g6
L37L
sg7
L10L
sa(dp24
g6
L241L
sg7
L10L
sa(dp25
g6
L289L
sg7
L10L
sa(dp26
g6
L412L
sg7
L10L
sa(dp27
g6
L546L
sg7
L10L
sa(dp28
g6
L587L
sg7
L10L
sa(dp29
g6
L593L
sg7
L10L
sa(dp30
g6
L603L
sg7
L10L
sass."
EndChar

StartChar: uni0E13
Encoding: 3603 3603 147
GlifName: uni0E_13
Width: 960
VWidth: 0
GlyphClass: 2
Flags: HMW
LayerCount: 2
Fore
SplineSet
165 136 m 0
 138 136 116 117 110 90 c 0
 109 86 109 82 109 78 c 0
 109 57 122 44 145 44 c 0
 172 44 194 63 200 90 c 0
 201 94 201 98 201 102 c 0
 201 123 188 136 165 136 c 0
773 136 m 0
 746 136 724 117 718 90 c 0
 717 86 717 82 717 78 c 0
 717 57 730 44 753 44 c 0
 780 44 802 63 808 90 c 0
 809 94 809 98 809 102 c 0
 809 123 796 136 773 136 c 0
199 440 m 1
 335 410 l 1
 315 366 l 2
 313 366 295 369 283 369 c 0
 243 369 222 344 213 304 c 2
 199 240 l 2
 195 220 187 203 177 189 c 1
 230 189 265 160 265 113 c 0
 265 106 264 98 262 90 c 0
 249 30 195 -9 134 -9 c 0
 81 -9 45 20 45 67 c 0
 45 74 46 82 48 90 c 0
 58 136 76 165 86 210 c 2
 103 294 l 2
 114 344 147 378 193 392 c 1
 78 416 l 1
 115 520 224 619 387 619 c 0
 527 619 610 549 610 445 c 0
 610 430 608 415 605 399 c 2
 560 190 l 2
 554 162 545 129 538 100 c 1
 589 145 656 185 740 192 c 1
 744 199 748 206 750 215 c 2
 832 600 l 1
 938 600 l 1
 860 235 l 2
 855 213 840 196 821 183 c 1
 853 172 872 147 872 112 c 0
 872 105 872 98 870 90 c 0
 857 30 803 -9 742 -9 c 0
 689 -9 653 20 653 67 c 0
 653 74 654 82 656 90 c 0
 658 100 662 109 666 118 c 1
 604 96 554 51 511 0 c 1
 413 0 l 1
 498 399 l 2
 501 412 502 425 502 436 c 0
 502 506 451 540 370 540 c 0
 292 540 233 502 199 440 c 1
EndSplineSet
PickledDataWithLists: "(dp0
Vcom.fontlab.hintData
p1
(dp2
Vvhints
p3
(lp4
(dp5
Vposition
p6
L84L
sVwidth
p7
L10L
sa(dp8
g6
L104L
sg7
L10L
sa(dp9
g6
L166L
sg7
L10L
sa(dp10
g6
L186L
sg7
L10L
sa(dp11
g6
L311L
sg7
L10L
sa(dp12
g6
L454L
sg7
L10L
sa(dp13
g6
L469L
sg7
L10L
sa(dp14
g6
L540L
sg7
L10L
sa(dp15
g6
L551L
sg7
L10L
sa(dp16
g6
L709L
sg7
L10L
sa(dp17
g6
L780L
sg7
L10L
sa(dp18
g6
L816L
sg7
L10L
sa(dp19
g6
L865L
sg7
L10L
sa(dp20
g6
L935L
sg7
L10L
sasVhhints
p21
(lp22
(dp23
g6
L-17L
sg7
L10L
sa(dp24
g6
L29L
sg7
L10L
sa(dp25
g6
L41L
sg7
L10L
sa(dp26
g6
L54L
sg7
L10L
sa(dp27
g6
L241L
sg7
L10L
sa(dp28
g6
L289L
sg7
L10L
sa(dp29
g6
L546L
sg7
L10L
sa(dp30
g6
L594L
sg7
L10L
sa(dp31
g6
L604L
sg7
L10L
sass."
EndChar

StartChar: uni0E14
Encoding: 3604 3604 148
GlifName: uni0E_14
Width: 665
VWidth: 0
GlyphClass: 2
Flags: HMW
LayerCount: 2
Fore
SplineSet
423 0 m 1
 444 100 l 2
 455 153 485 271 512 399 c 0
 515 413 516 425 516 437 c 0
 516 507 466 540 385 540 c 0
 291 540 214 495 194 399 c 0
 164 256 176 224 162 157 c 0
 157 134 150 108 145 92 c 1
 202 147 273 178 326 220 c 1
 323 220 320 220 317 220 c 0
 264 220 228 249 228 296 c 0
 228 303 229 311 231 319 c 0
 244 379 298 418 359 418 c 0
 412 418 448 389 448 342 c 0
 448 335 447 327 445 319 c 0
 412 162 206 121 146 0 c 1
 25 0 l 1
 25 0 50 71 60 118 c 0
 81 219 62 246 95 399 c 0
 122 526 244 619 402 619 c 0
 540 619 620 548 620 445 c 0
 620 430 618 415 615 399 c 2
 530 0 l 1
 423 0 l 1
348 365 m 0
 321 365 299 346 293 319 c 0
 292 315 292 311 292 307 c 0
 292 286 305 273 328 273 c 0
 355 273 377 292 383 319 c 0
 384 323 384 327 384 331 c 0
 384 352 371 365 348 365 c 0
EndSplineSet
PickledDataWithLists: "(dp0
Vcom.fontlab.hintData
p1
(dp2
Vvhints
p3
(lp4
(dp5
Vposition
p6
L60L
sVwidth
p7
L10L
sa(dp8
g6
L149L
sg7
L10L
sa(dp9
g6
L306L
sg7
L10L
sa(dp10
g6
L394L
sg7
L10L
sa(dp11
g6
L495L
sg7
L10L
sa(dp12
g6
L501L
sg7
L10L
sa(dp13
g6
L584L
sg7
L10L
sa(dp14
g6
L589L
sg7
L10L
sasVhhints
p15
(lp16
(dp17
g6
L-23L
sg7
L10L
sa(dp18
g6
L-15L
sg7
L10L
sa(dp19
g6
L40L
sg7
L10L
sa(dp20
g6
L140L
sg7
L10L
sa(dp21
g6
L547L
sg7
L10L
sa(dp22
g6
L609L
sg7
L10L
sass."
EndChar

StartChar: uni0E15
Encoding: 3605 3605 149
GlifName: uni0E_15
Width: 665
VWidth: 0
GlyphClass: 2
Flags: HMW
LayerCount: 2
Fore
SplineSet
423 0 m 1
 444 100 l 2
 455 153 485 271 512 399 c 0
 518 427 521 451 521 470 c 0
 521 512 507 533 481 537 c 1
 381 468 l 1
 369 468 l 1
 357 468 l 1
 287 537 l 1
 247 532 213 488 194 399 c 0
 164 256 176 224 162 157 c 0
 157 134 150 108 145 92 c 1
 202 147 273 178 326 220 c 1
 323 220 320 220 317 220 c 0
 264 220 228 249 228 296 c 0
 228 303 229 311 231 319 c 0
 244 379 298 418 359 418 c 0
 412 418 448 389 448 342 c 0
 448 335 447 327 445 319 c 0
 412 162 206 121 146 0 c 1
 25 0 l 1
 25 0 50 71 60 118 c 0
 81 219 62 246 95 399 c 0
 112 480 165 613 309 613 c 1
 383 533 l 1
 491 613 l 1
 596 613 623 542 623 472 c 0
 623 446 620 421 615 399 c 2
 530 0 l 1
 423 0 l 1
348 365 m 0
 321 365 299 346 293 319 c 0
 292 315 292 311 292 307 c 0
 292 286 305 273 328 273 c 0
 355 273 377 292 383 319 c 0
 384 323 384 327 384 331 c 0
 384 352 371 365 348 365 c 0
EndSplineSet
PickledDataWithLists: "(dp0
Vcom.fontlab.hintData
p1
(dp2
Vvhints
p3
(lp4
(dp5
Vposition
p6
L64L
sVwidth
p7
L10L
sa(dp8
g6
L146L
sg7
L10L
sa(dp9
g6
L309L
sg7
L10L
sa(dp10
g6
L332L
sg7
L10L
sa(dp11
g6
L337L
sg7
L10L
sa(dp12
g6
L391L
sg7
L10L
sa(dp13
g6
L405L
sg7
L10L
sa(dp14
g6
L513L
sg7
L10L
sa(dp15
g6
L597L
sg7
L10L
sa(dp16
g6
L602L
sg7
L10L
sasVhhints
p17
(lp18
(dp19
g6
L-21L
sg7
L10L
sa(dp20
g6
L-13L
sg7
L10L
sa(dp21
g6
L36L
sg7
L10L
sa(dp22
g6
L133L
sg7
L10L
sa(dp23
g6
L412L
sg7
L10L
sa(dp24
g6
L546L
sg7
L10L
sa(dp25
g6
L590L
sg7
L10L
sa(dp26
g6
L603L
sg7
L10L
sass."
EndChar

StartChar: uni0E16
Encoding: 3606 3606 150
GlifName: uni0E_16
Width: 655
VWidth: 0
GlyphClass: 2
Flags: HMW
LayerCount: 2
Fore
SplineSet
387 619 m 0
 527 619 610 549 610 445 c 0
 610 430 608 415 605 399 c 2
 520 0 l 1
 413 0 l 1
 498 399 l 2
 501 412 502 425 502 436 c 0
 502 506 451 540 370 540 c 0
 292 540 233 502 199 440 c 1
 335 410 l 1
 315 366 l 2
 313 366 295 369 283 369 c 0
 243 369 222 344 213 304 c 2
 199 240 l 2
 195 220 187 203 177 189 c 1
 230 189 265 160 265 113 c 0
 265 106 264 98 262 90 c 0
 249 30 195 -9 134 -9 c 0
 81 -9 45 20 45 67 c 0
 45 74 46 82 48 90 c 0
 58 136 76 165 86 210 c 2
 103 294 l 2
 114 344 147 378 193 392 c 1
 78 416 l 1
 115 520 224 619 387 619 c 0
165 136 m 0
 138 136 116 117 110 90 c 0
 109 86 109 82 109 78 c 0
 109 57 122 44 145 44 c 0
 172 44 194 63 200 90 c 0
 201 94 201 98 201 102 c 0
 201 123 188 136 165 136 c 0
EndSplineSet
PickledDataWithLists: "(dp0
Vcom.fontlab.hintData
p1
(dp2
Vvhints
p3
(lp4
(dp5
Vposition
p6
L81L
sVwidth
p7
L10L
sa(dp8
g6
L86L
sg7
L10L
sa(dp9
g6
L111L
sg7
L10L
sa(dp10
g6
L169L
sg7
L10L
sa(dp11
g6
L199L
sg7
L10L
sa(dp12
g6
L315L
sg7
L10L
sa(dp13
g6
L465L
sg7
L10L
sa(dp14
g6
L476L
sg7
L10L
sa(dp15
g6
L556L
sg7
L10L
sa(dp16
g6
L564L
sg7
L10L
sasVhhints
p17
(lp18
(dp19
g6
L-19L
sg7
L10L
sa(dp20
g6
L43L
sg7
L10L
sa(dp21
g6
L56L
sg7
L10L
sa(dp22
g6
L544L
sg7
L10L
sa(dp23
g6
L606L
sg7
L10L
sass."
EndChar

StartChar: uni0E17
Encoding: 3607 3607 151
GlifName: uni0E_17
Width: 660
VWidth: 0
GlyphClass: 2
Flags: HMW
LayerCount: 2
Fore
SplineSet
177 464 m 0
 204 464 225 483 231 510 c 0
 232 514 232 518 232 522 c 0
 232 543 219 556 196 556 c 0
 169 556 147 537 141 510 c 0
 140 506 140 503 140 499 c 0
 140 478 154 464 177 464 c 0
227 282 m 1
 302 428 416 609 533 609 c 0
 606 609 626 560 626 516 c 0
 626 505 625 494 623 485 c 2
 520 0 l 1
 414 0 l 1
 513 467 l 2
 514 473 515 479 515 485 c 0
 515 502 509 517 494 519 c 1
 394 488 236 209 188 99 c 1
 167 0 l 1
 60 0 l 1
 137 360 l 2
 141 380 150 397 160 411 c 1
 110 413 77 442 77 488 c 0
 77 495 77 502 79 510 c 0
 92 570 146 609 207 609 c 0
 260 609 296 580 296 533 c 0
 296 526 295 518 293 510 c 0
 283 464 260 435 250 390 c 2
 227 282 l 1
EndSplineSet
PickledDataWithLists: "(dp0
Vcom.fontlab.hintData
p1
(dp2
Vvhints
p3
(lp4
(dp5
Vposition
p6
L58L
sVwidth
p7
L10L
sa(dp8
g6
L104L
sg7
L10L
sa(dp9
g6
L479L
sg7
L10L
sa(dp10
g6
L484L
sg7
L10L
sa(dp11
g6
L561L
sg7
L10L
sa(dp12
g6
L566L
sg7
L10L
sasVhhints
p13
(lp14
(dp15
g6
L-13L
sg7
L10L
sa(dp16
g6
L-8L
sg7
L10L
sa(dp17
g6
L546L
sg7
L10L
sa(dp18
g6
L604L
sg7
L10L
sass."
EndChar

StartChar: uni0E18
Encoding: 3608 3608 152
GlifName: uni0E_18
Width: 585
VWidth: 0
GlyphClass: 2
Flags: HMW
AnchorPoint: "ThaiTone.mark" 505 0 basechar 0
LayerCount: 2
Fore
SplineSet
53 177 m 2
 79 300 l 1
 186 300 l 1
 160 177 l 2
 157 164 156 153 156 142 c 0
 156 85 195 61 248 61 c 0
 311 61 368 94 386 177 c 2
 408 284 l 2
 409 289 410 294 410 299 c 0
 410 366 301 392 88 392 c 1
 95 424 l 2
 120 541 225 619 351 619 c 0
 428 619 471 589 495 560 c 1
 498 565 501 569 504 572 c 2
 536 613 l 1
 612 598 l 1
 611 593 l 1
 504 485 l 1
 471 485 l 1
 460 507 427 547 351 547 c 0
 289 547 226 519 201 446 c 1
 393 440 520 405 520 318 c 0
 520 311 520 304 518 297 c 2
 493 177 l 2
 470 68 368 -19 231 -19 c 0
 112 -19 48 47 48 135 c 0
 48 149 50 162 53 177 c 2
EndSplineSet
PickledDataWithLists: "(dp0
Vcom.fontlab.hintData
p1
(dp2
Vvhints
p3
(lp4
(dp5
Vposition
p6
L64L
sVwidth
p7
L10L
sa(dp8
g6
L109L
sg7
L10L
sa(dp9
g6
L146L
sg7
L10L
sa(dp10
g6
L195L
sg7
L10L
sa(dp11
g6
L430L
sg7
L10L
sa(dp12
g6
L513L
sg7
L10L
sasVhhints
p13
(lp14
(dp15
g6
L-14L
sg7
L10L
sa(dp16
g6
L44L
sg7
L10L
sa(dp17
g6
L294L
sg7
L10L
sa(dp18
g6
L496L
sg7
L10L
sa(dp19
g6
L555L
sg7
L10L
sa(dp20
g6
L612L
sg7
L10L
sass."
EndChar

StartChar: uni0E19
Encoding: 3609 3609 153
GlifName: uni0E_19
Width: 650
VWidth: 0
GlyphClass: 2
Flags: HMW
LayerCount: 2
Fore
SplineSet
60 0 m 1
 137 360 l 2
 141 381 149 398 160 411 c 1
 109 413 77 443 77 488 c 0
 77 495 77 502 79 510 c 0
 92 570 146 609 207 609 c 0
 260 609 296 580 296 533 c 0
 296 526 295 518 293 510 c 0
 282 458 260 436 249 385 c 2
 207 190 l 2
 200 159 193 125 184 94 c 1
 245 141 326 185 430 192 c 1
 434 199 438 206 440 215 c 2
 522 600 l 1
 628 600 l 1
 550 235 l 2
 545 213 530 196 511 183 c 1
 543 172 562 147 562 112 c 0
 562 105 562 98 560 90 c 0
 547 30 493 -9 432 -9 c 0
 379 -9 343 20 343 67 c 0
 343 74 344 82 346 90 c 0
 348 101 353 112 358 122 c 1
 276 101 209 51 158 0 c 1
 60 0 l 1
463 136 m 0
 436 136 414 117 408 90 c 0
 407 86 407 82 407 78 c 0
 407 57 420 44 443 44 c 0
 470 44 492 63 498 90 c 0
 499 94 499 98 499 102 c 0
 499 123 486 136 463 136 c 0
177 464 m 0
 204 464 225 483 231 510 c 0
 232 514 232 518 232 522 c 0
 232 543 219 556 196 556 c 0
 169 556 147 537 141 510 c 0
 140 506 140 503 140 499 c 0
 140 478 154 464 177 464 c 0
EndSplineSet
PickledDataWithLists: "(dp0
Vcom.fontlab.hintData
p1
(dp2
Vvhints
p3
(lp4
(dp5
Vposition
p6
L64L
sVwidth
p7
L10L
sa(dp8
g6
L84L
sg7
L10L
sa(dp9
g6
L168L
sg7
L10L
sa(dp10
g6
L387L
sg7
L10L
sa(dp11
g6
L457L
sg7
L10L
sa(dp12
g6
L491L
sg7
L10L
sa(dp13
g6
L550L
sg7
L10L
sa(dp14
g6
L625L
sg7
L10L
sasVhhints
p15
(lp16
(dp17
g6
L-27L
sg7
L10L
sa(dp18
g6
L-20L
sg7
L10L
sa(dp19
g6
L22L
sg7
L10L
sa(dp20
g6
L248L
sg7
L10L
sa(dp21
g6
L307L
sg7
L10L
sa(dp22
g6
L589L
sg7
L10L
sa(dp23
g6
L598L
sg7
L10L
sass."
EndChar

StartChar: uni0E1A
Encoding: 3610 3610 154
GlifName: uni0E_1A_
Width: 700
VWidth: 0
GlyphClass: 2
Flags: HMW
LayerCount: 2
Fore
SplineSet
172 464 m 0
 199 464 220 483 226 510 c 0
 227 514 227 518 227 522 c 0
 227 543 214 556 191 556 c 0
 164 556 142 537 136 510 c 0
 135 506 135 503 135 499 c 0
 135 478 149 464 172 464 c 0
288 510 m 0
 278 464 255 435 245 390 c 2
 202 188 l 2
 200 176 198 164 198 154 c 0
 198 90 245 60 318 60 c 0
 403 60 470 101 488 188 c 2
 576 600 l 1
 683 600 l 1
 595 188 l 2
 569 68 452 -19 301 -19 c 0
 169 -19 90 48 90 145 c 0
 90 159 92 173 95 188 c 2
 132 360 l 2
 136 380 145 397 155 411 c 1
 105 413 72 442 72 488 c 0
 72 495 72 502 74 510 c 0
 87 570 141 609 202 609 c 0
 255 609 291 580 291 533 c 0
 291 526 290 518 288 510 c 0
EndSplineSet
PickledDataWithLists: "(dp0
Vcom.fontlab.hintData
p1
(dp2
Vvhints
p3
(lp4
(dp5
Vposition
p6
L81L
sVwidth
p7
L10L
sa(dp8
g6
L106L
sg7
L10L
sa(dp9
g6
L194L
sg7
L10L
sa(dp10
g6
L511L
sg7
L10L
sa(dp11
g6
L516L
sg7
L10L
sa(dp12
g6
L599L
sg7
L10L
sa(dp13
g6
L604L
sg7
L10L
sasVhhints
p14
(lp15
(dp16
g6
L-26L
sg7
L10L
sa(dp17
g6
L36L
sg7
L10L
sa(dp18
g6
L596L
sg7
L10L
sass."
EndChar

StartChar: uni0E1B
Encoding: 3611 3611 155
GlifName: uni0E_1B_
Width: 700
VWidth: 0
GlyphClass: 2
Flags: HMW
LayerCount: 2
Fore
SplineSet
172 464 m 0
 199 464 220 483 226 510 c 0
 227 514 227 518 227 522 c 0
 227 543 214 556 191 556 c 0
 164 556 142 537 136 510 c 0
 135 506 135 503 135 499 c 0
 135 478 149 464 172 464 c 0
288 510 m 0
 278 464 255 435 245 390 c 2
 202 188 l 2
 200 176 198 164 198 154 c 0
 198 90 245 60 318 60 c 0
 403 60 470 101 488 188 c 2
 620 810 l 1
 727 810 l 1
 595 188 l 2
 569 68 452 -19 301 -19 c 0
 169 -19 90 48 90 145 c 0
 90 159 92 173 95 188 c 2
 132 360 l 2
 136 380 145 397 155 411 c 1
 105 413 72 442 72 488 c 0
 72 495 72 502 74 510 c 0
 87 570 141 609 202 609 c 0
 255 609 291 580 291 533 c 0
 291 526 290 518 288 510 c 0
EndSplineSet
PickledDataWithLists: "(dp0
Vcom.fontlab.hintData
p1
(dp2
Vvhints
p3
(lp4
(dp5
Vposition
p6
L81L
sVwidth
p7
L10L
sa(dp8
g6
L106L
sg7
L10L
sa(dp9
g6
L194L
sg7
L10L
sa(dp10
g6
L521L
sg7
L10L
sa(dp11
g6
L526L
sg7
L10L
sa(dp12
g6
L609L
sg7
L10L
sa(dp13
g6
L614L
sg7
L10L
sasVhhints
p14
(lp15
(dp16
g6
L-26L
sg7
L10L
sa(dp17
g6
L36L
sg7
L10L
sa(dp18
g6
L600L
sg7
L10L
sa(dp19
g6
L836L
sg7
L10L
sass."
EndChar

StartChar: uni0E1C
Encoding: 3612 3612 156
GlifName: uni0E_1C_
Width: 715
VWidth: 0
GlyphClass: 2
Flags: HMW
LayerCount: 2
Fore
SplineSet
507 187 m 2
 595 600 l 1
 698 600 l 1
 570 0 l 1
 470 0 l 1
 358 283 l 1
 126 0 l 1
 26 0 l 1
 88 290 l 2
 104 363 97 409 109 465 c 0
 127 552 193 609 289 609 c 0
 342 609 378 580 378 533 c 0
 378 526 377 518 375 510 c 0
 362 450 308 411 247 411 c 0
 226 411 207 416 193 425 c 1
 193 423 193 422 193 420 c 0
 193 395 199 376 199 349 c 0
 199 335 197 320 193 300 c 2
 169 187 l 2
 164 165 156 142 149 123 c 1
 343 360 l 1
 375 360 l 1
 407 360 l 1
 499 123 l 1
 500 142 502 165 507 187 c 2
259 464 m 0
 286 464 307 483 313 510 c 0
 314 514 314 518 314 522 c 0
 314 543 301 556 278 556 c 0
 251 556 229 537 223 510 c 0
 222 506 222 503 222 499 c 0
 222 478 236 464 259 464 c 0
EndSplineSet
PickledDataWithLists: "(dp0
Vcom.fontlab.hintData
p1
(dp2
Vvhints
p3
(lp4
(dp5
Vposition
p6
L64L
sVwidth
p7
L10L
sa(dp8
g6
L148L
sg7
L10L
sa(dp9
g6
L372L
sg7
L10L
sa(dp10
g6
L559L
sg7
L10L
sa(dp11
g6
L643L
sg7
L10L
sa(dp12
g6
L653L
sg7
L10L
sasVhhints
p13
(lp14
(dp15
g6
L-14L
sg7
L10L
sa(dp16
g6
L-8L
sg7
L10L
sa(dp17
g6
L318L
sg7
L10L
sa(dp18
g6
L514L
sg7
L10L
sa(dp19
g6
L544L
sg7
L10L
sa(dp20
g6
L599L
sg7
L10L
sa(dp21
g6
L604L
sg7
L10L
sass."
EndChar

StartChar: uni0E1D
Encoding: 3613 3613 157
GlifName: uni0E_1D_
Width: 715
VWidth: 0
GlyphClass: 2
Flags: HMW
LayerCount: 2
Fore
SplineSet
507 187 m 2
 639 810 l 1
 742 810 l 1
 570 0 l 1
 470 0 l 1
 358 283 l 1
 126 0 l 1
 26 0 l 1
 88 290 l 2
 104 363 97 409 109 465 c 0
 127 552 193 609 289 609 c 0
 342 609 378 580 378 533 c 0
 378 526 377 518 375 510 c 0
 362 450 308 411 247 411 c 0
 226 411 207 416 193 425 c 1
 193 423 193 422 193 420 c 0
 193 395 199 376 199 349 c 0
 199 335 197 320 193 300 c 2
 169 187 l 2
 164 165 156 142 149 123 c 1
 343 360 l 1
 375 360 l 1
 407 360 l 1
 499 123 l 1
 500 142 502 165 507 187 c 2
259 464 m 0
 286 464 307 483 313 510 c 0
 314 514 314 518 314 522 c 0
 314 543 301 556 278 556 c 0
 251 556 229 537 223 510 c 0
 222 506 222 503 222 499 c 0
 222 478 236 464 259 464 c 0
EndSplineSet
PickledDataWithLists: "(dp0
Vcom.fontlab.hintData
p1
(dp2
Vvhints
p3
(lp4
(dp5
Vposition
p6
L64L
sVwidth
p7
L10L
sa(dp8
g6
L148L
sg7
L10L
sa(dp9
g6
L372L
sg7
L10L
sa(dp10
g6
L559L
sg7
L10L
sa(dp11
g6
L643L
sg7
L10L
sa(dp12
g6
L653L
sg7
L10L
sasVhhints
p13
(lp14
(dp15
g6
L-14L
sg7
L10L
sa(dp16
g6
L-8L
sg7
L10L
sa(dp17
g6
L318L
sg7
L10L
sa(dp18
g6
L514L
sg7
L10L
sa(dp19
g6
L544L
sg7
L10L
sa(dp20
g6
L604L
sg7
L10L
sa(dp21
g6
L834L
sg7
L10L
sass."
EndChar

StartChar: uni0E1E
Encoding: 3614 3614 158
GlifName: uni0E_1E_
Width: 735
VWidth: 0
GlyphClass: 2
Flags: HMW
LayerCount: 2
Fore
SplineSet
718 600 m 1
 590 0 l 1
 498 0 l 1
 407 388 l 1
 152 0 l 1
 60 0 l 1
 137 360 l 2
 141 381 149 398 160 411 c 1
 109 413 75 441 75 487 c 0
 75 494 76 502 78 510 c 0
 91 570 145 609 206 609 c 0
 259 609 295 580 295 533 c 0
 295 526 294 518 292 510 c 0
 282 461 255 435 245 387 c 2
 212 230 l 2
 208 213 202 193 196 175 c 1
 404 495 l 1
 430 495 l 1
 456 495 l 1
 528 173 l 1
 530 191 532 213 536 230 c 2
 615 600 l 1
 718 600 l 1
176 464 m 0
 203 464 224 483 230 510 c 0
 231 514 231 518 231 522 c 0
 231 543 218 556 195 556 c 0
 168 556 146 537 140 510 c 0
 139 506 139 503 139 499 c 0
 139 478 153 464 176 464 c 0
EndSplineSet
PickledDataWithLists: "(dp0
Vcom.fontlab.hintData
p1
(dp2
Vvhints
p3
(lp4
(dp5
Vposition
p6
L58L
sVwidth
p7
L10L
sa(dp8
g6
L104L
sg7
L10L
sa(dp9
g6
L182L
sg7
L10L
sa(dp10
g6
L556L
sg7
L10L
sa(dp11
g6
L656L
sg7
L10L
sasVhhints
p12
(lp13
(dp14
g6
L-12L
sg7
L10L
sa(dp15
g6
L540L
sg7
L10L
sa(dp16
g6
L604L
sg7
L10L
sass."
EndChar

StartChar: uni0E1F
Encoding: 3615 3615 159
GlifName: uni0E_1F_
Width: 735
VWidth: 0
GlyphClass: 2
Flags: HMW
LayerCount: 2
Fore
SplineSet
762 810 m 1
 590 0 l 1
 498 0 l 1
 407 388 l 1
 152 0 l 1
 60 0 l 1
 137 360 l 2
 141 381 149 398 160 411 c 1
 109 413 75 441 75 487 c 0
 75 494 76 502 78 510 c 0
 91 570 145 609 206 609 c 0
 259 609 295 580 295 533 c 0
 295 526 294 518 292 510 c 0
 282 461 255 435 245 387 c 2
 212 230 l 2
 208 213 202 193 196 175 c 1
 404 495 l 1
 430 495 l 1
 456 495 l 1
 528 173 l 1
 530 191 532 213 536 230 c 2
 659 810 l 1
 762 810 l 1
176 464 m 0
 203 464 224 483 230 510 c 0
 231 514 231 518 231 522 c 0
 231 543 218 556 195 556 c 0
 168 556 146 537 140 510 c 0
 139 506 139 503 139 499 c 0
 139 478 153 464 176 464 c 0
EndSplineSet
PickledDataWithLists: "(dp0
Vcom.fontlab.hintData
p1
(dp2
Vvhints
p3
(lp4
(dp5
Vposition
p6
L58L
sVwidth
p7
L10L
sa(dp8
g6
L104L
sg7
L10L
sa(dp9
g6
L182L
sg7
L10L
sa(dp10
g6
L565L
sg7
L10L
sa(dp11
g6
L641L
sg7
L9L
sa(dp12
g6
L686L
sg7
L11L
sasVhhints
p13
(lp14
(dp15
g6
L-12L
sg7
L10L
sa(dp16
g6
L540L
sg7
L10L
sa(dp17
g6
L604L
sg7
L10L
sa(dp18
g6
L834L
sg7
L10L
sass."
EndChar

StartChar: uni0E20
Encoding: 3616 3616 160
GlifName: uni0E_20
Width: 665
VWidth: 0
GlyphClass: 2
Flags: HMW
LayerCount: 2
Fore
SplineSet
116 136 m 0
 89 136 67 117 61 90 c 0
 60 86 60 82 60 78 c 0
 60 57 73 44 96 44 c 0
 123 44 145 63 151 90 c 0
 152 94 152 98 152 102 c 0
 152 123 139 136 116 136 c 0
397 619 m 0
 537 619 620 549 620 445 c 0
 620 430 618 415 615 399 c 2
 530 0 l 1
 423 0 l 1
 508 399 l 2
 511 412 512 425 512 436 c 0
 512 506 461 540 380 540 c 0
 303 540 243 503 209 441 c 1
 365 410 l 1
 345 366 l 2
 343 366 325 369 313 369 c 0
 273 369 252 344 243 304 c 2
 223 210 l 2
 218 187 218 168 218 149 c 0
 218 131 218 112 213 90 c 0
 200 30 146 -9 85 -9 c 0
 32 -9 -4 20 -4 67 c 0
 -4 74 -3 82 -1 90 c 0
 12 149 64 187 123 189 c 1
 121 197 119 205 119 215 c 0
 119 223 120 231 122 240 c 2
 133 294 l 2
 144 344 176 377 222 392 c 1
 88 416 l 1
 125 520 234 619 397 619 c 0
EndSplineSet
PickledDataWithLists: "(dp0
Vcom.fontlab.hintData
p1
(dp2
Vvhints
p3
(lp4
(dp5
Vposition
p6
L26L
sVwidth
p7
L10L
sa(dp8
g6
L81L
sg7
L10L
sa(dp9
g6
L131L
sg7
L10L
sa(dp10
g6
L219L
sg7
L10L
sa(dp11
g6
L465L
sg7
L10L
sa(dp12
g6
L476L
sg7
L10L
sa(dp13
g6
L556L
sg7
L10L
sa(dp14
g6
L564L
sg7
L10L
sasVhhints
p15
(lp16
(dp17
g6
L-16L
sg7
L10L
sa(dp18
g6
L66L
sg7
L10L
sa(dp19
g6
L544L
sg7
L10L
sa(dp20
g6
L606L
sg7
L10L
sass."
EndChar

StartChar: uni0E21
Encoding: 3617 3617 161
GlifName: uni0E_21
Width: 645
VWidth: 0
GlyphClass: 2
Flags: HMW
LayerCount: 2
Fore
SplineSet
127 136 m 0
 100 136 78 117 72 90 c 0
 71 86 71 82 71 78 c 0
 71 57 84 44 107 44 c 0
 134 44 156 63 162 90 c 0
 163 94 163 98 163 102 c 0
 163 123 150 136 127 136 c 0
187 464 m 0
 214 464 235 483 241 510 c 0
 242 514 242 518 242 522 c 0
 242 543 229 556 206 556 c 0
 179 556 157 537 151 510 c 0
 150 506 150 503 150 499 c 0
 150 478 164 464 187 464 c 0
126 188 m 1
 122 197 119 208 119 221 c 0
 119 227 120 233 121 240 c 2
 147 360 l 2
 151 381 159 398 170 411 c 1
 119 413 87 443 87 488 c 0
 87 495 87 502 89 510 c 0
 102 570 156 609 217 609 c 0
 270 609 306 580 306 533 c 0
 306 526 305 518 303 510 c 0
 292 458 270 436 259 385 c 2
 223 215 l 2
 221 205 220 196 220 188 c 1
 315 177 376 136 416 93 c 1
 421 124 426 159 433 190 c 2
 521 600 l 1
 628 600 l 1
 500 0 l 1
 402 0 l 1
 371 53 316 106 227 123 c 1
 227 113 227 102 224 90 c 0
 211 30 157 -9 96 -9 c 0
 43 -9 7 20 7 67 c 0
 7 74 8 82 10 90 c 0
 22 146 70 183 126 188 c 1
EndSplineSet
PickledDataWithLists: "(dp0
Vcom.fontlab.hintData
p1
(dp2
Vvhints
p3
(lp4
(dp5
Vposition
p6
L25L
sVwidth
p7
L10L
sa(dp8
g6
L56L
sg7
L10L
sa(dp9
g6
L100L
sg7
L10L
sa(dp10
g6
L200L
sg7
L10L
sa(dp11
g6
L280L
sg7
L10L
sa(dp12
g6
L476L
sg7
L10L
sa(dp13
g6
L484L
sg7
L10L
sa(dp14
g6
L556L
sg7
L10L
sa(dp15
g6
L566L
sg7
L10L
sasVhhints
p16
(lp17
(dp18
g6
L-27L
sg7
L10L
sa(dp19
g6
L243L
sg7
L10L
sa(dp20
g6
L297L
sg7
L10L
sa(dp21
g6
L528L
sg7
L10L
sa(dp22
g6
L548L
sg7
L10L
sa(dp23
g6
L588L
sg7
L10L
sa(dp24
g6
L602L
sg7
L10L
sass."
EndChar

StartChar: uni0E22
Encoding: 3618 3618 162
GlifName: uni0E_22
Width: 645
VWidth: 0
GlyphClass: 2
Flags: HMW
LayerCount: 2
Fore
SplineSet
264 464 m 0
 291 464 312 483 318 510 c 0
 319 514 319 518 319 522 c 0
 319 543 306 556 283 556 c 0
 256 556 234 537 228 510 c 0
 227 506 227 503 227 499 c 0
 227 478 241 464 264 464 c 0
526 600 m 1
 633 600 l 1
 545 188 l 2
 519 68 402 -19 251 -19 c 0
 118 -19 39 45 39 139 c 0
 39 151 40 165 43 178 c 0
 59 253 112 293 174 312 c 1
 131 334 100 374 100 429 c 0
 100 440 101 452 104 465 c 0
 122 551 194 609 294 609 c 0
 347 609 383 580 383 533 c 0
 383 526 382 518 380 510 c 0
 367 450 313 411 252 411 c 0
 216 411 188 425 174 448 c 1
 174 445 174 443 174 440 c 0
 174 371 239 346 342 346 c 1
 328 284 l 1
 234 284 166 254 151 182 c 0
 149 171 148 161 148 152 c 0
 148 91 194 60 268 60 c 0
 353 60 420 101 438 188 c 2
 526 600 l 1
EndSplineSet
PickledDataWithLists: "(dp0
Vcom.fontlab.hintData
p1
(dp2
Vvhints
p3
(lp4
(dp5
Vposition
p6
L44L
sVwidth
p7
L10L
sa(dp8
g6
L114L
sg7
L10L
sa(dp9
g6
L126L
sg7
L10L
sa(dp10
g6
L196L
sg7
L10L
sa(dp11
g6
L335L
sg7
L10L
sa(dp12
g6
L352L
sg7
L10L
sa(dp13
g6
L474L
sg7
L10L
sa(dp14
g6
L562L
sg7
L10L
sasVhhints
p15
(lp16
(dp17
g6
L-26L
sg7
L10L
sa(dp18
g6
L36L
sg7
L10L
sa(dp19
g6
L517L
sg7
L10L
sa(dp20
g6
L546L
sg7
L10L
sa(dp21
g6
L596L
sg7
L10L
sa(dp22
g6
L604L
sg7
L10L
sass."
EndChar

StartChar: uni0E23
Encoding: 3619 3619 163
GlifName: uni0E_23
Width: 530
VWidth: 0
GlyphClass: 2
Flags: HMW
AnchorPoint: "ThaiBelow.mark" 440 0 basechar 0
AnchorPoint: "ThaiTone.mark" 450 0 basechar 0
AnchorPoint: "ThaiAbove.mark" 500 0 basechar 0
LayerCount: 2
Fore
SplineSet
445 560 m 1
 448 565 451 570 454 573 c 2
 485 613 l 1
 562 598 l 1
 561 593 l 1
 453 485 l 1
 420 485 l 1
 409 507 381 547 306 547 c 0
 245 547 185 518 161 446 c 1
 316 440 423 411 423 329 c 0
 423 322 422 314 420 306 c 2
 394 185 l 1
 379 114 l 2
 363 41 304 -9 223 -9 c 0
 170 -9 134 20 134 67 c 0
 134 74 135 82 137 90 c 0
 150 150 204 189 265 189 c 0
 274 189 283 188 292 186 c 1
 292 196 292 207 294 217 c 2
 310 293 l 2
 311 299 312 305 312 310 c 0
 312 374 223 393 49 393 c 1
 55 424 l 2
 80 541 181 619 305 619 c 0
 381 619 422 589 445 560 c 1
254 136 m 0
 227 136 205 117 199 90 c 0
 198 86 198 82 198 78 c 0
 198 57 211 44 234 44 c 0
 261 44 283 63 289 90 c 0
 290 94 290 98 290 102 c 0
 290 123 277 136 254 136 c 0
EndSplineSet
PickledDataWithLists: "(dp0
Vcom.fontlab.hintData
p1
(dp2
Vvhints
p3
(lp4
(dp5
Vposition
p6
L31L
sVwidth
p7
L10L
sa(dp8
g6
L111L
sg7
L10L
sa(dp9
g6
L116L
sg7
L10L
sa(dp10
g6
L362L
sg7
L10L
sa(dp11
g6
L446L
sg7
L10L
sa(dp12
g6
L479L
sg7
L10L
sasVhhints
p13
(lp14
(dp15
g6
L-16L
sg7
L10L
sa(dp16
g6
L46L
sg7
L10L
sa(dp17
g6
L91L
sg7
L10L
sa(dp18
g6
L494L
sg7
L10L
sa(dp19
g6
L548L
sg7
L10L
sa(dp20
g6
L610L
sg7
L10L
sass."
EndChar

StartChar: uni0E24
Encoding: 3620 3620 164
GlifName: uni0E_24
Width: 655
VWidth: 0
GlyphClass: 2
Flags: HMW
LayerCount: 2
Fore
SplineSet
387 619 m 0
 527 619 610 549 610 445 c 0
 610 430 608 415 605 399 c 2
 475 -210 l 1
 368 -210 l 1
 498 399 l 2
 501 412 502 425 502 436 c 0
 502 506 451 540 370 540 c 0
 292 540 233 502 199 440 c 1
 335 410 l 1
 315 366 l 2
 313 366 295 369 283 369 c 0
 243 369 222 344 213 304 c 2
 199 240 l 2
 195 220 187 203 177 189 c 1
 230 189 265 160 265 113 c 0
 265 106 264 98 262 90 c 0
 249 30 195 -9 134 -9 c 0
 81 -9 45 20 45 67 c 0
 45 74 46 82 48 90 c 0
 58 136 76 165 86 210 c 2
 103 294 l 2
 114 344 147 378 193 392 c 1
 78 416 l 1
 115 520 224 619 387 619 c 0
165 136 m 0
 138 136 116 117 110 90 c 0
 109 86 109 82 109 78 c 0
 109 57 122 44 145 44 c 0
 172 44 194 63 200 90 c 0
 201 94 201 98 201 102 c 0
 201 123 188 136 165 136 c 0
EndSplineSet
PickledDataWithLists: "(dp0
Vcom.fontlab.hintData
p1
(dp2
Vvhints
p3
(lp4
(dp5
Vposition
p6
L81L
sVwidth
p7
L10L
sa(dp8
g6
L86L
sg7
L10L
sa(dp9
g6
L111L
sg7
L10L
sa(dp10
g6
L169L
sg7
L10L
sa(dp11
g6
L199L
sg7
L10L
sa(dp12
g6
L315L
sg7
L10L
sa(dp13
g6
L465L
sg7
L10L
sa(dp14
g6
L476L
sg7
L10L
sa(dp15
g6
L556L
sg7
L10L
sa(dp16
g6
L564L
sg7
L10L
sasVhhints
p17
(lp18
(dp19
g6
L-246L
sg7
L10L
sa(dp20
g6
L-19L
sg7
L10L
sa(dp21
g6
L43L
sg7
L10L
sa(dp22
g6
L56L
sg7
L10L
sa(dp23
g6
L544L
sg7
L10L
sa(dp24
g6
L606L
sg7
L10L
sass."
EndChar

StartChar: uni0E240E45.liga
Encoding: 63617 63617 165
GlifName: uni0E_240E_45.liga
Width: 950
VWidth: 0
GlyphClass: 3
Flags: HMW
LayerCount: 2
Fore
SplineSet
165 136 m 0
 138 136 116 117 110 90 c 0
 109 86 109 82 109 78 c 0
 109 57 122 44 145 44 c 0
 172 44 194 63 200 90 c 0
 201 94 201 98 201 102 c 0
 201 123 188 136 165 136 c 0
582 537 m 1
 620 579 676 613 750 613 c 0
 855 613 907 554 907 476 c 0
 907 463 906 451 903 437 c 2
 765 -210 l 1
 659 -210 l 1
 797 437 l 2
 799 449 801 459 801 468 c 0
 801 516 770 534 731 534 c 0
 672 534 633 487 610 436 c 1
 609 424 608 412 605 399 c 2
 475 -210 l 1
 368 -210 l 1
 498 399 l 2
 501 412 502 425 502 436 c 0
 502 506 451 540 370 540 c 0
 292 540 233 502 199 440 c 1
 335 410 l 1
 315 366 l 2
 313 366 295 369 283 369 c 0
 243 369 222 344 213 304 c 2
 199 240 l 2
 195 220 187 203 177 189 c 1
 230 189 265 160 265 113 c 0
 265 106 264 98 262 90 c 0
 249 30 195 -9 134 -9 c 0
 81 -9 45 20 45 67 c 0
 45 74 46 82 48 90 c 0
 58 136 76 165 86 210 c 2
 103 294 l 2
 114 344 147 378 193 392 c 1
 78 416 l 1
 115 520 224 619 387 619 c 0
 480 619 547 588 582 537 c 1
EndSplineSet
PickledDataWithLists: "(dp0
Vcom.fontlab.hintData
p1
(dp2
Vvhints
p3
(lp4
(dp5
Vposition
p6
L81L
sVwidth
p7
L10L
sa(dp8
g6
L86L
sg7
L10L
sa(dp9
g6
L111L
sg7
L10L
sa(dp10
g6
L169L
sg7
L10L
sa(dp11
g6
L199L
sg7
L10L
sa(dp12
g6
L315L
sg7
L10L
sa(dp13
g6
L465L
sg7
L10L
sa(dp14
g6
L476L
sg7
L10L
sa(dp15
g6
L556L
sg7
L10L
sa(dp16
g6
L563L
sg7
L10L
sa(dp17
g6
L756L
sg7
L10L
sa(dp18
g6
L782L
sg7
L10L
sa(dp19
g6
L844L
sg7
L10L
sa(dp20
g6
L870L
sg7
L10L
sasVhhints
p21
(lp22
(dp23
g6
L-245L
sg7
L10L
sa(dp24
g6
L-19L
sg7
L10L
sa(dp25
g6
L43L
sg7
L10L
sa(dp26
g6
L56L
sg7
L10L
sa(dp27
g6
L544L
sg7
L10L
sa(dp28
g6
L606L
sg7
L10L
sass."
Ligature2: "Thai.liga subtable" uni0E24 uni200D uni0E45
Ligature2: "Thai.liga subtable" uni0E24 uni0E45
Colour: ff00ff
EndChar

StartChar: uni0E25
Encoding: 3621 3621 166
GlifName: uni0E_25
Width: 635
VWidth: 0
GlyphClass: 2
Flags: HMW
LayerCount: 2
Fore
SplineSet
33 107 m 2
 53 202 l 2
 68 273 118 356 243 356 c 0
 346 356 407 293 441 226 c 1
 480 409 l 2
 483 422 484 433 484 444 c 0
 484 509 436 540 360 540 c 0
 275 540 213 493 185 415 c 1
 80 423 l 1
 115 523 220 619 377 619 c 0
 512 619 592 552 592 453 c 0
 592 439 590 424 587 409 c 2
 500 0 l 1
 393 0 l 1
 415 105 l 1
 407 172 346 284 234 284 c 0
 191 284 165 257 157 219 c 0
 154 207 149 195 144 186 c 1
 153 188 163 189 173 189 c 0
 226 189 262 160 262 113 c 0
 262 106 261 98 259 90 c 0
 246 30 192 -9 131 -9 c 0
 68 -9 30 28 30 81 c 0
 30 89 31 98 33 107 c 2
162 136 m 0
 135 136 113 117 107 90 c 0
 106 86 106 82 106 78 c 0
 106 57 119 44 142 44 c 0
 169 44 191 63 197 90 c 0
 198 94 198 98 198 102 c 0
 198 123 185 136 162 136 c 0
EndSplineSet
PickledDataWithLists: "(dp0
Vcom.fontlab.hintData
p1
(dp2
Vvhints
p3
(lp4
(dp5
Vposition
p6
L41L
sVwidth
p7
L10L
sa(dp8
g6
L91L
sg7
L10L
sa(dp9
g6
L179L
sg7
L10L
sa(dp10
g6
L504L
sg7
L10L
sa(dp11
g6
L589L
sg7
L10L
sasVhhints
p12
(lp13
(dp14
g6
L-16L
sg7
L10L
sa(dp15
g6
L-6L
sg7
L10L
sa(dp16
g6
L296L
sg7
L10L
sa(dp17
g6
L414L
sg7
L10L
sa(dp18
g6
L549L
sg7
L10L
sa(dp19
g6
L610L
sg7
L10L
sass."
EndChar

StartChar: uni0E26
Encoding: 3622 3622 167
GlifName: uni0E_26
Width: 670
VWidth: 0
GlyphClass: 2
Flags: HMW
LayerCount: 2
Fore
SplineSet
116 136 m 0
 89 136 67 117 61 90 c 0
 60 86 60 82 60 78 c 0
 60 57 73 44 96 44 c 0
 123 44 145 63 151 90 c 0
 152 94 152 98 152 102 c 0
 152 123 139 136 116 136 c 0
397 619 m 0
 537 619 620 549 620 445 c 0
 620 430 618 415 615 399 c 2
 485 -210 l 1
 378 -210 l 1
 508 399 l 2
 511 412 512 425 512 436 c 0
 512 506 461 540 380 540 c 0
 303 540 243 503 209 441 c 1
 365 410 l 1
 345 366 l 2
 343 366 325 369 313 369 c 0
 273 369 252 344 243 304 c 2
 223 210 l 2
 218 187 218 169 218 150 c 0
 218 131 218 113 213 90 c 0
 200 30 146 -9 85 -9 c 0
 32 -9 -4 20 -4 67 c 0
 -4 74 -3 82 -1 90 c 0
 12 149 64 187 123 189 c 1
 121 197 119 205 119 215 c 0
 119 223 120 231 122 240 c 2
 133 294 l 2
 144 344 176 377 222 392 c 1
 88 416 l 1
 125 520 234 619 397 619 c 0
EndSplineSet
PickledDataWithLists: "(dp0
Vcom.fontlab.hintData
p1
(dp2
Vvhints
p3
(lp4
(dp5
Vposition
p6
L26L
sVwidth
p7
L10L
sa(dp8
g6
L81L
sg7
L10L
sa(dp9
g6
L131L
sg7
L10L
sa(dp10
g6
L219L
sg7
L10L
sa(dp11
g6
L465L
sg7
L10L
sa(dp12
g6
L476L
sg7
L10L
sa(dp13
g6
L556L
sg7
L10L
sa(dp14
g6
L564L
sg7
L10L
sasVhhints
p15
(lp16
(dp17
g6
L-246L
sg7
L10L
sa(dp18
g6
L-16L
sg7
L10L
sa(dp19
g6
L66L
sg7
L10L
sa(dp20
g6
L544L
sg7
L10L
sa(dp21
g6
L606L
sg7
L10L
sass."
EndChar

StartChar: uni0E260E45.liga
Encoding: 63618 63618 168
GlifName: uni0E_260E_45.liga
Width: 960
VWidth: 0
GlyphClass: 3
Flags: HMW
LayerCount: 2
Fore
SplineSet
116 136 m 4
 89 136 67 117 61 90 c 4
 60 86 60 82 60 78 c 4
 60 57 73 44 96 44 c 4
 123 44 145 63 151 90 c 4
 152 94 152 98 152 102 c 4
 152 123 139 136 116 136 c 4
592 537 m 5
 630 579 686 613 760 613 c 4
 865 613 917 554 917 476 c 4
 917 463 916 451 913 437 c 6
 775 -210 l 5
 669 -210 l 5
 807 437 l 6
 809 449 811 459 811 468 c 4
 811 516 780 534 741 534 c 4
 682 534 643 487 620 436 c 5
 619 424 618 412 615 399 c 6
 485 -210 l 5
 378 -210 l 5
 508 399 l 6
 511 412 512 425 512 436 c 4
 512 506 461 540 380 540 c 4
 303 540 243 503 209 441 c 5
 365 410 l 5
 345 366 l 6
 343 366 325 369 313 369 c 4
 273 369 252 344 243 304 c 6
 223 210 l 6
 218 187 218 168 218 149 c 4
 218 131 218 112 213 90 c 4
 200 30 146 -9 85 -9 c 4
 32 -9 -4 20 -4 67 c 4
 -4 74 -3 82 -1 90 c 4
 12 149 64 187 123 189 c 5
 121 197 119 205 119 215 c 4
 119 223 120 231 122 240 c 6
 133 294 l 6
 144 344 176 377 222 392 c 5
 88 416 l 5
 125 520 234 619 397 619 c 4
 490 619 557 588 592 537 c 5
EndSplineSet
PickledDataWithLists: "(dp0
Vcom.fontlab.hintData
p1
(dp2
Vvhints
p3
(lp4
(dp5
Vposition
p6
L26L
sVwidth
p7
L10L
sa(dp8
g6
L81L
sg7
L10L
sa(dp9
g6
L131L
sg7
L10L
sa(dp10
g6
L219L
sg7
L10L
sa(dp11
g6
L465L
sg7
L10L
sa(dp12
g6
L476L
sg7
L10L
sa(dp13
g6
L556L
sg7
L10L
sa(dp14
g6
L563L
sg7
L10L
sa(dp15
g6
L756L
sg7
L10L
sa(dp16
g6
L782L
sg7
L10L
sa(dp17
g6
L844L
sg7
L10L
sa(dp18
g6
L870L
sg7
L10L
sasVhhints
p19
(lp20
(dp21
g6
L-245L
sg7
L10L
sa(dp22
g6
L-16L
sg7
L10L
sa(dp23
g6
L66L
sg7
L10L
sa(dp24
g6
L544L
sg7
L10L
sa(dp25
g6
L606L
sg7
L10L
sass."
LCarets2: 2 0 0
Ligature2: "Thai.liga subtable" uni0E26 uni200D uni0E45
Ligature2: "Thai.liga subtable" uni0E26 uni0E45
Colour: ff00ff
EndChar

StartChar: uni0E27
Encoding: 3623 3623 169
GlifName: uni0E_27
Width: 535
VWidth: 0
GlyphClass: 2
Flags: HMW
AnchorPoint: "ThaiAbove.mark" 485 0 basechar 0
LayerCount: 2
Fore
SplineSet
51 451 m 1
 81 533 170 619 307 619 c 0
 426 619 490 553 490 465 c 0
 490 451 488 438 485 423 c 2
 434 185 l 1
 419 114 l 2
 403 41 344 -9 263 -9 c 0
 210 -9 174 20 174 67 c 0
 174 74 175 82 177 90 c 0
 190 150 244 189 305 189 c 0
 314 189 323 188 332 186 c 1
 332 196 332 207 334 217 c 2
 378 423 l 2
 381 436 382 447 382 458 c 0
 382 516 343 540 290 540 c 0
 227 540 178 505 155 443 c 1
 51 451 l 1
294 136 m 0
 267 136 245 117 239 90 c 0
 238 86 238 82 238 78 c 0
 238 57 251 44 274 44 c 0
 301 44 323 63 329 90 c 0
 330 94 330 98 330 102 c 0
 330 123 317 136 294 136 c 0
EndSplineSet
PickledDataWithLists: "(dp0
Vcom.fontlab.hintData
p1
(dp2
Vvhints
p3
(lp4
(dp5
Vposition
p6
L21L
sVwidth
p7
L10L
sa(dp8
g6
L168L
sg7
L10L
sa(dp9
g6
L255L
sg7
L10L
sa(dp10
g6
L411L
sg7
L10L
sa(dp11
g6
L499L
sg7
L10L
sasVhhints
p12
(lp13
(dp14
g6
L-15L
sg7
L10L
sa(dp15
g6
L46L
sg7
L10L
sa(dp16
g6
L136L
sg7
L10L
sa(dp17
g6
L394L
sg7
L10L
sa(dp18
g6
L552L
sg7
L9L
sa(dp19
g6
L614L
sg7
L10L
sass."
EndChar

StartChar: uni0E28
Encoding: 3624 3624 170
GlifName: uni0E_28
Width: 680
VWidth: 0
GlyphClass: 2
Flags: HMW
LayerCount: 2
Fore
SplineSet
348 365 m 0
 321 365 299 346 293 319 c 0
 292 315 292 311 292 307 c 0
 292 286 305 273 328 273 c 0
 355 273 377 292 383 319 c 0
 384 323 384 327 384 331 c 0
 384 352 371 365 348 365 c 0
423 0 m 1
 444 100 l 2
 455 153 485 271 512 399 c 0
 515 412 516 424 516 435 c 0
 516 450 514 464 509 476 c 1
 474 454 440 431 407 408 c 1
 433 396 448 373 448 342 c 0
 448 335 447 327 445 319 c 0
 432 259 378 220 317 220 c 0
 279 220 249 235 236 261 c 1
 209 224 183 172 164 100 c 2
 140 0 l 1
 25 0 l 1
 25 0 50 71 60 118 c 0
 81 219 62 246 95 399 c 0
 122 526 244 619 402 619 c 0
 467 619 518 603 555 576 c 1
 593 607 641 638 699 643 c 1
 697 550 l 1
 661 549 630 541 600 526 c 1
 613 503 620 475 620 445 c 0
 620 430 618 415 615 399 c 2
 530 0 l 1
 423 0 l 1
480 515 m 1
 458 532 425 540 385 540 c 0
 291 540 218 495 198 399 c 0
 182 326 175 277 170 241 c 1
 197 301 233 357 278 390 c 0
 296 404 319 414 343 417 c 1
 386 449 433 484 480 515 c 1
EndSplineSet
PickledDataWithLists: "(dp0
Vcom.fontlab.hintData
p1
(dp2
Vvhints
p3
(lp4
(dp5
Vposition
p6
L59L
sVwidth
p7
L10L
sa(dp8
g6
L142L
sg7
L10L
sa(dp9
g6
L439L
sg7
L10L
sa(dp10
g6
L508L
sg7
L10L
sa(dp11
g6
L590L
sg7
L10L
sa(dp12
g6
L637L
sg7
L10L
sasVhhints
p13
(lp14
(dp15
g6
L-18L
sg7
L10L
sa(dp16
g6
L-4L
sg7
L10L
sa(dp17
g6
L551L
sg7
L10L
sa(dp18
g6
L608L
sg7
L10L
sa(dp19
g6
L654L
sg7
L10L
sass."
EndChar

StartChar: uni0E29
Encoding: 3625 3625 171
GlifName: uni0E_29
Width: 710
VWidth: 0
GlyphClass: 2
Flags: HMW
LayerCount: 2
Fore
SplineSet
172 464 m 0
 199 464 220 483 226 510 c 0
 227 514 227 518 227 522 c 0
 227 543 214 556 191 556 c 0
 164 556 142 537 136 510 c 0
 135 506 135 503 135 499 c 0
 135 478 149 464 172 464 c 0
396 380 m 0
 375 380 357 365 353 345 c 0
 352 342 352 340 352 337 c 0
 352 321 363 310 381 310 c 0
 402 310 419 325 423 345 c 0
 424 348 424 350 424 353 c 0
 424 369 414 380 396 380 c 0
405 422 m 0
 447 422 474 400 474 363 c 0
 474 357 473 351 472 345 c 0
 468 325 458 308 444 295 c 1
 450 296 455 296 459 296 c 0
 476 296 494 297 512 300 c 1
 576 600 l 1
 683 600 l 1
 625 329 l 1
 653 339 680 350 701 360 c 1
 708 304 l 1
 680 292 649 281 613 272 c 1
 595 188 l 2
 569 68 452 -19 301 -19 c 0
 169 -19 90 48 90 145 c 0
 90 159 92 173 95 188 c 2
 132 360 l 2
 136 380 145 397 155 411 c 1
 105 413 72 442 72 488 c 0
 72 495 72 502 74 510 c 0
 87 570 141 609 202 609 c 0
 255 609 291 580 291 533 c 0
 291 526 290 518 288 510 c 0
 278 464 255 435 245 390 c 2
 202 188 l 2
 200 176 198 164 198 154 c 0
 198 90 245 60 318 60 c 0
 403 60 470 101 488 188 c 2
 502 252 l 1
 475 249 447 248 419 248 c 0
 347 248 302 274 302 324 c 0
 302 331 302 337 304 345 c 0
 314 392 357 422 405 422 c 0
EndSplineSet
PickledDataWithLists: "(dp0
Vcom.fontlab.hintData
p1
(dp2
Vvhints
p3
(lp4
(dp5
Vposition
p6
L84L
sVwidth
p7
L10L
sa(dp8
g6
L109L
sg7
L10L
sa(dp9
g6
L191L
sg7
L10L
sa(dp10
g6
L312L
sg7
L10L
sa(dp11
g6
L375L
sg7
L10L
sa(dp12
g6
L524L
sg7
L10L
sa(dp13
g6
L529L
sg7
L10L
sa(dp14
g6
L606L
sg7
L10L
sa(dp15
g6
L708L
sg7
L10L
sasVhhints
p16
(lp17
(dp18
g6
L-24L
sg7
L10L
sa(dp19
g6
L34L
sg7
L10L
sa(dp20
g6
L391L
sg7
L10L
sa(dp21
g6
L439L
sg7
L10L
sa(dp22
g6
L561L
sg7
L10L
sa(dp23
g6
L599L
sg7
L10L
sa(dp24
g6
L609L
sg7
L10L
sa(dp25
g6
L629L
sg7
L10L
sass."
EndChar

StartChar: uni0E2A
Encoding: 3626 3626 172
GlifName: uni0E_2A_
Width: 650
VWidth: 0
GlyphClass: 2
Flags: HMW
LayerCount: 2
Fore
SplineSet
33 107 m 2
 53 202 l 2
 68 273 118 356 243 356 c 0
 244 356 245 356 246 356 c 0
 298 399 379 460 456 512 c 1
 434 531 402 540 360 540 c 0
 275 540 213 493 185 415 c 1
 80 423 l 1
 115 523 220 619 377 619 c 0
 444 619 497 603 534 574 c 1
 572 605 620 638 679 643 c 1
 677 550 l 1
 639 549 606 540 575 524 c 1
 586 503 591 478 591 451 c 0
 591 438 590 424 587 409 c 2
 500 0 l 1
 393 0 l 1
 415 105 l 1
 407 172 346 284 234 284 c 0
 191 284 165 257 157 219 c 0
 154 207 149 195 144 186 c 1
 153 188 163 189 173 189 c 0
 226 189 262 160 262 113 c 0
 262 106 261 98 259 90 c 0
 246 30 192 -9 131 -9 c 0
 68 -9 30 28 30 81 c 0
 30 89 31 98 33 107 c 2
162 136 m 0
 135 136 113 117 107 90 c 0
 106 86 106 82 106 78 c 0
 106 57 119 44 142 44 c 0
 169 44 191 63 197 90 c 0
 198 94 198 98 198 102 c 0
 198 123 185 136 162 136 c 0
304 348 m 1
 371 329 415 279 441 226 c 1
 480 409 l 2
 483 422 484 433 484 444 c 0
 484 454 483 463 481 471 c 1
 416 430 351 385 304 348 c 1
EndSplineSet
PickledDataWithLists: "(dp0
Vcom.fontlab.hintData
p1
(dp2
Vvhints
p3
(lp4
(dp5
Vposition
p6
L54L
sVwidth
p7
L10L
sa(dp8
g6
L94L
sg7
L10L
sa(dp9
g6
L136L
sg7
L10L
sa(dp10
g6
L176L
sg7
L10L
sa(dp11
g6
L504L
sg7
L10L
sa(dp12
g6
L586L
sg7
L10L
sa(dp13
g6
L616L
sg7
L10L
sasVhhints
p14
(lp15
(dp16
g6
L-14L
sg7
L10L
sa(dp17
g6
L-4L
sg7
L10L
sa(dp18
g6
L294L
sg7
L10L
sa(dp19
g6
L370L
sg7
L10L
sa(dp20
g6
L429L
sg7
L10L
sa(dp21
g6
L548L
sg7
L10L
sa(dp22
g6
L606L
sg7
L10L
sa(dp23
g6
L654L
sg7
L10L
sass."
EndChar

StartChar: uni0E2B
Encoding: 3627 3627 173
GlifName: uni0E_2B_
Width: 660
VWidth: 0
GlyphClass: 2
Flags: HMW
LayerCount: 2
Fore
SplineSet
533 464 m 0
 560 464 581 483 587 510 c 0
 588 514 588 518 588 522 c 0
 588 543 575 556 552 556 c 0
 525 556 503 537 497 510 c 0
 496 506 496 503 496 499 c 0
 496 478 510 464 533 464 c 0
177 464 m 0
 204 464 225 483 231 510 c 0
 232 514 232 518 232 522 c 0
 232 543 219 556 196 556 c 0
 169 556 147 537 141 510 c 0
 140 506 140 503 140 499 c 0
 140 478 154 464 177 464 c 0
494 381 m 1
 373 351 233 216 185 87 c 1
 167 0 l 1
 60 0 l 1
 137 360 l 2
 141 380 150 397 160 411 c 1
 110 413 77 442 77 488 c 0
 77 495 77 502 79 510 c 0
 92 570 146 609 207 609 c 0
 260 609 296 580 296 533 c 0
 296 526 295 518 293 510 c 0
 283 464 260 435 250 390 c 2
 221 256 l 1
 283 332 365 402 453 435 c 1
 440 448 432 466 432 488 c 0
 432 495 433 502 435 510 c 0
 448 570 502 609 563 609 c 0
 616 609 652 580 652 533 c 0
 652 526 651 518 649 510 c 0
 640 466 608 433 568 419 c 1
 584 407 598 392 598 371 c 0
 598 368 598 364 597 360 c 2
 520 0 l 1
 413 0 l 1
 494 380 l 2
 494 381 l 1
EndSplineSet
PickledDataWithLists: "(dp0
Vcom.fontlab.hintData
p1
(dp2
Vvhints
p3
(lp4
(dp5
Vposition
p6
L84L
sVwidth
p7
L10L
sa(dp8
g6
L166L
sg7
L10L
sa(dp9
g6
L191L
sg7
L11L
sa(dp10
g6
L320L
sg7
L10L
sa(dp11
g6
L395L
sg7
L10L
sa(dp12
g6
L493L
sg7
L10L
sa(dp13
g6
L525L
sg7
L10L
sa(dp14
g6
L600L
sg7
L10L
sa(dp15
g6
L638L
sg7
L10L
sasVhhints
p16
(lp17
(dp18
g6
L-24L
sg7
L10L
sa(dp19
g6
L-12L
sg7
L10L
sa(dp20
g6
L553L
sg7
L10L
sa(dp21
g6
L589L
sg7
L10L
sa(dp22
g6
L602L
sg7
L10L
sass."
EndChar

StartChar: uni0E2C
Encoding: 3628 3628 174
GlifName: uni0E_2C_
Width: 760
VWidth: 0
GlyphClass: 2
Flags: HMW
AnchorPoint: "ThaiBelow.mark" 660 0 basechar 0
AnchorPoint: "ThaiTone.mark" 660 0 basechar 0
AnchorPoint: "ThaiAbove.mark" 660 0 basechar 0
LayerCount: 2
Fore
SplineSet
536 232 m 2
 575 412 l 2
 578 424 581 434 587 443 c 1
 585 443 583 443 581 443 c 0
 528 443 492 472 492 519 c 0
 492 526 493 534 495 542 c 0
 508 602 562 641 623 641 c 0
 676 641 712 612 712 565 c 0
 712 558 711 550 709 542 c 0
 709 541 l 2
 710 542 l 2
 710 541 709 539 709 538 c 1
 726 559 740 587 752 630 c 1
 812 623 l 1
 786 545 744 502 693 475 c 1
 689 463 686 449 682 432 c 2
 590 2 l 1
 498 2 l 1
 402 360 l 1
 152 2 l 1
 60 2 l 1
 137 362 l 2
 141 383 150 400 161 413 c 1
 110 415 76 443 76 489 c 0
 76 496 77 504 79 512 c 0
 92 572 146 611 207 611 c 0
 260 611 296 582 296 535 c 0
 296 528 295 520 293 512 c 0
 283 463 256 437 246 389 c 2
 212 232 l 2
 208 211 199 185 192 165 c 1
 398 467 l 1
 424 467 l 1
 450 467 l 1
 528 163 l 1
 529 184 532 211 536 232 c 2
592 496 m 0
 619 496 641 515 647 542 c 0
 648 546 648 550 648 554 c 0
 648 575 635 588 612 588 c 0
 585 588 563 569 557 542 c 0
 556 538 556 534 556 530 c 0
 556 509 569 496 592 496 c 0
176 466 m 0
 203 466 225 485 231 512 c 0
 232 516 232 520 232 524 c 0
 232 545 219 558 196 558 c 0
 169 558 147 539 141 512 c 0
 140 508 140 504 140 500 c 0
 140 479 153 466 176 466 c 0
EndSplineSet
PickledDataWithLists: "(dp0
Vcom.fontlab.hintData
p1
(dp2
Vvhints
p3
(lp4
(dp5
Vposition
p6
L58L
sVwidth
p7
L10L
sa(dp8
g6
L104L
sg7
L10L
sa(dp9
g6
L185L
sg7
L10L
sa(dp10
g6
L367L
sg7
L10L
sa(dp11
g6
L430L
sg7
L10L
sa(dp12
g6
L587L
sg7
L10L
sa(dp13
g6
L661L
sg7
L10L
sa(dp14
g6
L760L
sg7
L10L
sasVhhints
p15
(lp16
(dp17
g6
L-18L
sg7
L10L
sa(dp18
g6
L-13L
sg7
L10L
sa(dp19
g6
L329L
sg7
L10L
sa(dp20
g6
L391L
sg7
L10L
sa(dp21
g6
L439L
sg7
L10L
sa(dp22
g6
L561L
sg7
L10L
sa(dp23
g6
L604L
sg7
L10L
sa(dp24
g6
L609L
sg7
L10L
sa(dp25
g6
L629L
sg7
L10L
sass."
EndChar

StartChar: uni0E2D
Encoding: 3629 3629 175
GlifName: uni0E_2D_
Width: 635
VWidth: 0
GlyphClass: 2
Flags: HMW
LayerCount: 2
Fore
SplineSet
80 423 m 1
 115 523 220 619 377 619 c 0
 512 619 592 552 592 453 c 0
 592 439 590 424 587 409 c 2
 539 184 l 2
 514 68 403 -19 256 -19 c 0
 128 -19 54 47 54 141 c 0
 54 155 56 169 59 184 c 2
 75 261 l 2
 88 321 143 360 204 360 c 0
 257 360 292 331 292 284 c 0
 292 277 291 269 289 261 c 0
 276 201 222 162 161 162 c 0
 159 162 158 162 156 162 c 1
 156 159 156 156 156 153 c 0
 156 89 206 60 273 60 c 0
 350 60 414 99 432 184 c 2
 480 409 l 2
 483 422 484 433 484 444 c 0
 484 509 436 540 360 540 c 0
 275 540 213 493 185 415 c 1
 80 423 l 1
192 307 m 0
 165 307 143 288 137 261 c 0
 136 257 136 254 136 250 c 0
 136 229 150 215 173 215 c 0
 200 215 221 234 227 261 c 0
 228 265 228 269 228 273 c 0
 228 294 215 307 192 307 c 0
EndSplineSet
PickledDataWithLists: "(dp0
Vcom.fontlab.hintData
p1
(dp2
Vvhints
p3
(lp4
(dp5
Vposition
p6
L50L
sVwidth
p7
L10L
sa(dp8
g6
L61L
sg7
L10L
sa(dp9
g6
L149L
sg7
L10L
sa(dp10
g6
L289L
sg7
L10L
sa(dp11
g6
L481L
sg7
L10L
sa(dp12
g6
L569L
sg7
L10L
sasVhhints
p13
(lp14
(dp15
g6
L-19L
sg7
L10L
sa(dp16
g6
L43L
sg7
L10L
sa(dp17
g6
L215L
sg7
L10L
sa(dp18
g6
L230L
sg7
L10L
sa(dp19
g6
L292L
sg7
L10L
sa(dp20
g6
L414L
sg7
L10L
sa(dp21
g6
L549L
sg7
L9L
sa(dp22
g6
L611L
sg7
L10L
sass."
EndChar

StartChar: uni0E2E
Encoding: 3630 3630 176
GlifName: uni0E_2E_
Width: 640
VWidth: 0
GlyphClass: 2
Flags: HMW
LayerCount: 2
Fore
SplineSet
187 307 m 0
 160 307 138 288 132 261 c 0
 131 257 131 254 131 250 c 0
 131 229 145 215 168 215 c 0
 195 215 216 234 222 261 c 0
 223 265 223 269 223 273 c 0
 223 294 210 307 187 307 c 0
199 360 m 0
 252 360 287 331 287 284 c 0
 287 277 286 269 284 261 c 0
 271 201 217 162 156 162 c 0
 154 162 153 162 151 162 c 1
 151 159 151 156 151 153 c 0
 151 89 201 60 268 60 c 0
 345 60 409 99 427 184 c 2
 452 300 l 2
 465 363 477 381 485 417 c 0
 486 422 487 428 487 433 c 1
 447 410 392 392 313 392 c 0
 183 392 99 429 99 481 c 0
 99 484 99 488 100 492 c 0
 112 547 202 619 361 619 c 0
 464 619 516 581 541 547 c 1
 557 568 570 594 577 623 c 1
 676 614 l 1
 665 565 626 521 578 492 c 1
 583 479 587 462 587 444 c 0
 587 435 586 426 584 417 c 2
 534 184 l 2
 509 68 398 -19 251 -19 c 0
 123 -19 49 47 49 141 c 0
 49 155 51 169 54 184 c 2
 70 261 l 2
 83 321 138 360 199 360 c 0
200 488 m 0
 200 471 224 447 325 447 c 0
 399 447 447 465 480 488 c 1
 462 530 415 556 347 556 c 0
 258 556 200 524 200 488 c 0
EndSplineSet
PickledDataWithLists: "(dp0
Vcom.fontlab.hintData
p1
(dp2
Vvhints
p3
(lp4
(dp5
Vposition
p6
L54L
sVwidth
p7
L10L
sa(dp8
g6
L64L
sg7
L10L
sa(dp9
g6
L136L
sg7
L10L
sa(dp10
g6
L146L
sg7
L10L
sa(dp11
g6
L286L
sg7
L10L
sa(dp12
g6
L484L
sg7
L10L
sa(dp13
g6
L566L
sg7
L10L
sa(dp14
g6
L616L
sg7
L10L
sasVhhints
p15
(lp16
(dp17
g6
L-18L
sg7
L10L
sa(dp18
g6
L40L
sg7
L10L
sa(dp19
g6
L216L
sg7
L10L
sa(dp20
g6
L233L
sg7
L10L
sa(dp21
g6
L289L
sg7
L10L
sa(dp22
g6
L363L
sg7
L10L
sa(dp23
g6
L420L
sg7
L10L
sa(dp24
g6
L552L
sg7
L10L
sa(dp25
g6
L610L
sg7
L10L
sa(dp26
g6
L654L
sg7
L10L
sass."
EndChar

StartChar: uni0E2F
Encoding: 3631 3631 177
GlifName: uni0E_2F_
Width: 495
VWidth: 0
GlyphClass: 2
Flags: HMW
LayerCount: 2
Fore
SplineSet
205 556 m 0
 178 556 156 537 150 510 c 0
 149 506 149 503 149 499 c 0
 149 478 163 464 186 464 c 0
 213 464 234 483 240 510 c 0
 241 514 241 518 241 522 c 0
 241 543 228 556 205 556 c 0
216 609 m 0
 269 609 305 580 305 533 c 0
 305 526 304 518 302 510 c 0
 298 491 290 474 279 460 c 1
 345 483 388 536 414 595 c 1
 465 600 l 1
 472 591 474 579 474 564 c 0
 474 542 469 514 461 477 c 2
 392 152 l 2
 366 32 225 -5 95 -19 c 1
 95 58 l 1
 218 72 272 92 285 152 c 2
 334 383 l 2
 341 415 355 434 367 456 c 1
 323 423 266 400 196 400 c 0
 123 400 85 434 85 485 c 0
 85 493 86 501 88 510 c 0
 101 570 155 609 216 609 c 0
EndSplineSet
PickledDataWithLists: "(dp0
Vcom.fontlab.hintData
p1
(dp2
Vvhints
p3
(lp4
(dp5
Vposition
p6
L31L
sVwidth
p7
L10L
sa(dp8
g6
L119L
sg7
L10L
sa(dp9
g6
L153L
sg7
L10L
sa(dp10
g6
L356L
sg7
L10L
sa(dp11
g6
L356L
sg7
L10L
sa(dp12
g6
L434L
sg7
L10L
sa(dp13
g6
L439L
sg7
L10L
sasVhhints
p14
(lp15
(dp16
g6
L-16L
sg7
L10L
sa(dp17
g6
L394L
sg7
L10L
sa(dp18
g6
L456L
sg7
L10L
sa(dp19
g6
L589L
sg7
L10L
sa(dp20
g6
L596L
sg7
L10L
sass."
EndChar

StartChar: uni0E30
Encoding: 3632 3632 178
GlifName: uni0E_30
Width: 540
VWidth: 0
GlyphClass: 2
Flags: HMW
LayerCount: 2
Fore
SplineSet
215 506 m 0
 188 506 166 487 160 460 c 0
 159 456 159 452 159 448 c 0
 159 427 172 414 195 414 c 0
 222 414 244 433 250 460 c 0
 251 464 251 468 251 472 c 0
 251 493 238 506 215 506 c 0
226 559 m 0
 279 559 315 530 315 483 c 0
 315 476 314 468 312 460 c 0
 307 436 295 415 279 399 c 1
 280 399 281 399 282 399 c 2
 312 399 l 2
 378 399 424 456 445 539 c 1
 532 528 l 1
 507 426 429 343 303 343 c 2
 228 343 l 2
 139 343 95 382 95 436 c 0
 95 444 96 452 98 460 c 0
 111 520 165 559 226 559 c 0
151 206 m 0
 124 206 102 187 96 160 c 0
 95 156 95 152 95 148 c 0
 95 127 108 114 131 114 c 0
 158 114 180 133 186 160 c 0
 187 164 187 168 187 172 c 0
 187 193 174 206 151 206 c 0
162 259 m 0
 215 259 251 230 251 183 c 0
 251 176 250 168 248 160 c 0
 243 136 231 115 215 99 c 1
 216 99 217 99 218 99 c 2
 248 99 l 2
 314 99 360 156 381 239 c 1
 468 228 l 1
 443 126 365 43 239 43 c 2
 164 43 l 2
 75 43 31 82 31 136 c 0
 31 144 32 152 34 160 c 0
 47 220 101 259 162 259 c 0
EndSplineSet
PickledDataWithLists: "(dp0
Vcom.fontlab.hintData
p1
(dp2
Vvhints
p3
(lp4
(dp5
Vposition
p6
L51L
sVwidth
p7
L10L
sa(dp8
g6
L60L
sg7
L10L
sa(dp9
g6
L139L
sg7
L10L
sa(dp10
g6
L144L
sg7
L10L
sa(dp11
g6
L154L
sg7
L10L
sa(dp12
g6
L450L
sg7
L10L
sasVhhints
p13
(lp14
(dp15
g6
L60L
sg7
L10L
sa(dp16
g6
L122L
sg7
L10L
sa(dp17
g6
L228L
sg7
L10L
sa(dp18
g6
L360L
sg7
L10L
sa(dp19
g6
L421L
sg7
L10L
sa(dp20
g6
L536L
sg7
L10L
sass."
EndChar

StartChar: uni0E31
Encoding: 3633 3633 179
GlifName: uni0E_31
Width: 0
VWidth: 0
GlyphClass: 4
Flags: HMW
AnchorPoint: "ThaiExtendedAbove.mkmk" -60 0 basemark 0
AnchorPoint: "ThaiAbove.mark" -60 0 mark 0
LayerCount: 2
Fore
SplineSet
-150 847 m 0
 -172 847 -189 832 -194 810 c 0
 -195 806 -195 803 -195 800 c 0
 -195 784 -184 773 -166 773 c 0
 -144 773 -127 788 -122 810 c 0
 -121 814 -121 817 -121 820 c 0
 -121 836 -132 847 -150 847 c 0
-140 894 m 0
 -95 894 -66 870 -66 830 c 0
 -66 824 -67 817 -68 810 c 0
 -73 787 -85 768 -101 754 c 1
 -97 754 -92 754 -88 754 c 2
 -68 754 l 2
 -7 754 47 784 67 879 c 1
 145 870 l 1
 123 765 37 702 -66 702 c 2
 -126 702 l 2
 -204 702 -250 734 -250 788 c 0
 -250 795 -250 802 -248 810 c 0
 -237 861 -192 894 -140 894 c 0
EndSplineSet
PickledDataWithLists: "(dp0
Vcom.fontlab.hintData
p1
(dp2
Vvhints
p3
(lp4
(dp5
Vposition
p6
L-391L
sVwidth
p7
L10L
sa(dp8
g6
L-313L
sg7
L10L
sa(dp9
g6
L-306L
sg7
L10L
sa(dp10
g6
L55L
sg7
L10L
sasVhhints
p11
(lp12
(dp13
g6
L717L
sg7
L10L
sa(dp14
g6
L772L
sg7
L10L
sa(dp15
g6
L882L
sg7
L10L
sa(dp16
g6
L952L
sg7
L10L
sass."
Substitution2: "Thai.sl subtable" uni0E31.sl
EndChar

StartChar: uni0E32
Encoding: 3634 3634 180
GlifName: uni0E_32
Width: 485
VWidth: 0
GlyphClass: 2
Flags: HMW
LayerCount: 2
Fore
SplineSet
54 468 m 1
 80 540 159 619 282 619 c 0
 388 619 443 559 443 481 c 0
 443 469 442 456 439 443 c 2
 345 0 l 1
 238 0 l 1
 332 443 l 2
 334 454 336 465 336 474 c 0
 336 522 304 540 265 540 c 0
 217 540 179 513 160 460 c 1
 54 468 l 1
EndSplineSet
PickledDataWithLists: "(dp0
Vcom.fontlab.hintData
p1
(dp2
Vvhints
p3
(lp4
(dp5
Vposition
p6
L15L
sVwidth
p7
L10L
sa(dp8
g6
L291L
sg7
L10L
sa(dp9
g6
L312L
sg7
L10L
sa(dp10
g6
L379L
sg7
L10L
sa(dp11
g6
L400L
sg7
L10L
sasVhhints
p12
(lp13
(dp14
g6
L-25L
sg7
L10L
sa(dp15
g6
L399L
sg7
L10L
sa(dp16
g6
L545L
sg7
L10L
sa(dp17
g6
L606L
sg7
L10L
sass."
EndChar

StartChar: uni0E33
Encoding: 3635 3635 181
GlifName: uni0E_33
Width: 485
VWidth: 0
GlyphClass: 2
Flags: HMW
LayerCount: 2
Fore
SplineSet
-53 879 m 128
 0 879 36 850 36 803 c 0
 36 796 35 788 33 780 c 128
 20 720 -34 681 -95 681 c 128
 -148 681 -184 710 -184 757 c 0
 -184 764 -183 772 -181 780 c 128
 -168 840 -114 879 -53 879 c 128
-64 826 m 128
 -91 826 -113 807 -119 780 c 128
 -120 776 -120 772 -120 768 c 0
 -120 747 -107 734 -84 734 c 128
 -57 734 -35 753 -29 780 c 128
 -28 784 -28 788 -28 792 c 0
 -28 813 -41 826 -64 826 c 128
54 468 m 1
 80 540 159 619 282 619 c 128
 388 619 443 559 443 481 c 0
 443 469 442 456 439 443 c 2
 345 0 l 1
 238 0 l 1
 332 443 l 2
 334 454 336 465 336 474 c 0
 336 522 304 540 265 540 c 0
 217 540 179 513 160 460 c 1
 54 468 l 1
EndSplineSet
PickledDataWithLists: "(dp0
Vcom.fontlab.hintData
p1
(dp2
Vvhints
p3
(lp4
(dp5
Vposition
p6
L-282L
sVwidth
p7
L10L
sa(dp8
g6
L-218L
sg7
L10L
sa(dp9
g6
L-122L
sg7
L10L
sa(dp10
g6
L-58L
sg7
L10L
sa(dp11
g6
L15L
sg7
L10L
sa(dp12
g6
L291L
sg7
L10L
sa(dp13
g6
L312L
sg7
L10L
sa(dp14
g6
L379L
sg7
L10L
sa(dp15
g6
L400L
sg7
L10L
sasVhhints
p16
(lp17
(dp18
g6
L-25L
sg7
L10L
sa(dp19
g6
L399L
sg7
L10L
sa(dp20
g6
L545L
sg7
L10L
sa(dp21
g6
L606L
sg7
L10L
sa(dp22
g6
L703L
sg7
L10L
sa(dp23
g6
L747L
sg7
L10L
sa(dp24
g6
L863L
sg7
L10L
sa(dp25
g6
L907L
sg7
L10L
sass."
MultipleSubs2: "ThaiDecomp subtable" uni0E4D uni200D uni0E32
Colour: ff00ff
EndChar

StartChar: uni0E34
Encoding: 3636 3636 182
GlifName: uni0E_34
Width: 0
VWidth: 0
GlyphClass: 4
Flags: HMW
AnchorPoint: "ThaiExtendedAbove.mkmk" -60 0 basemark 0
AnchorPoint: "ThaiAbove.mark" -60 0 mark 0
LayerCount: 2
Fore
SplineSet
-331 772 m 1
 -90 730 l 1
 -108 774 -146 832 -233 832 c 0
 -273 832 -311 813 -331 772 c 1
-18 692 m 1
 -31 675 l 1
 -428 739 l 1
 -412 813 -343 890 -224 890 c 0
 -50 890 -24 723 -18 692 c 1
EndSplineSet
PickledDataWithLists: "(dp0
Vcom.fontlab.hintData
p1
(dp2
Vvhints
p3
(lp4
(dp5
Vposition
p6
L-534L
sVwidth
p7
L10L
sa(dp8
g6
L-456L
sg7
L10L
sasVhhints
p9
(lp10
(dp11
g6
L682L
sg7
L10L
sa(dp12
g6
L871L
sg7
L9L
sa(dp13
g6
L919L
sg7
L10L
sass."
Substitution2: "Thai.sl subtable" uni0E34.sl
EndChar

StartChar: uni0E35
Encoding: 3637 3637 183
GlifName: uni0E_35
Width: 0
VWidth: 0
GlyphClass: 4
Flags: HMW
AnchorPoint: "ThaiExtendedAbove.mkmk" -60 0 basemark 0
AnchorPoint: "ThaiAbove.mark" -60 0 mark 0
LayerCount: 2
Fore
SplineSet
-60 822 m 2
 -45 895 l 1
 32 881 l 1
 -10 683 l 1
 -25 670 l 1
 -429 734 l 1
 -413 808 -345 886 -233 886 c 0
 -136 886 -86 823 -61 767 c 1
 -62 776 -62 785 -62 793 c 0
 -62 803 -62 813 -60 822 c 2
-332 767 m 1
 -76 722 l 1
 -96 766 -140 828 -235 828 c 0
 -275 828 -312 809 -332 767 c 1
EndSplineSet
PickledDataWithLists: "(dp0
Vcom.fontlab.hintData
p1
(dp2
Vvhints
p3
(lp4
(dp5
Vposition
p6
L-530L
sVwidth
p7
L10L
sa(dp8
g6
L-460L
sg7
L10L
sa(dp9
g6
L-189L
sg7
L10L
sa(dp10
g6
L-175L
sg7
L10L
sa(dp11
g6
L-116L
sg7
L10L
sasVhhints
p12
(lp13
(dp14
g6
L691L
sg7
L10L
sa(dp15
g6
L861L
sg7
L10L
sa(dp16
g6
L909L
sg7
L10L
sa(dp17
g6
L929L
sg7
L10L
sass."
Substitution2: "Thai.sl subtable" uni0E35.sl
EndChar

StartChar: uni0E36
Encoding: 3638 3638 184
GlifName: uni0E_36
Width: 0
VWidth: 0
GlyphClass: 4
Flags: HMW
AnchorPoint: "ThaiExtendedAbove.mkmk" -60 0 basemark 0
AnchorPoint: "ThaiAbove.mark" -60 0 mark 0
LayerCount: 2
Fore
SplineSet
-65 831 m 0
 -92 831 -114 812 -120 785 c 0
 -121 781 -121 777 -121 773 c 0
 -121 752 -108 739 -85 739 c 0
 -58 739 -36 758 -30 785 c 0
 -29 789 -29 793 -29 797 c 0
 -29 818 -42 831 -65 831 c 0
-54 884 m 0
 -1 884 35 855 35 808 c 0
 35 801 34 793 32 785 c 0
 19 725 -35 686 -96 686 c 0
 -117 686 -136 690 -150 699 c 1
 -429 734 l 1
 -413 808 -345 886 -233 886 c 0
 -192 886 -164 872 -143 852 c 1
 -120 872 -87 884 -54 884 c 0
-174 811 m 1
 -189 821 -208 828 -235 828 c 0
 -274 828 -312 809 -332 768 c 1
 -183 746 l 1
 -184 751 -184 757 -184 763 c 0
 -184 770 -184 777 -182 785 c 0
 -180 794 -178 803 -174 811 c 1
EndSplineSet
PickledDataWithLists: "(dp0
Vcom.fontlab.hintData
p1
(dp2
Vvhints
p3
(lp4
(dp5
Vposition
p6
L-544L
sVwidth
p7
L10L
sa(dp8
g6
L-466L
sg7
L10L
sa(dp9
g6
L-208L
sg7
L10L
sa(dp10
g6
L-134L
sg7
L10L
sa(dp11
g6
L-84L
sg7
L10L
sasVhhints
p12
(lp13
(dp14
g6
L689L
sg7
L10L
sa(dp15
g6
L723L
sg7
L10L
sa(dp16
g6
L824L
sg7
L21L
sa(dp17
g6
L861L
sg7
L10L
sa(dp18
g6
L892L
sg7
L10L
sa(dp19
g6
L909L
sg7
L10L
sass."
Substitution2: "Thai.sl subtable" uni0E36.sl
EndChar

StartChar: uni0E37
Encoding: 3639 3639 185
GlifName: uni0E_37
Width: 0
VWidth: 0
GlyphClass: 4
Flags: HMW
AnchorPoint: "ThaiExtendedAbove.mkmk" -60 0 basemark 0
AnchorPoint: "ThaiAbove.mark" -60 0 mark 0
LayerCount: 2
Fore
SplineSet
-149 872 m 2
 -138 920 l 1
 -75 906 l 1
 -113 728 l 1
 -58 718 l 1
 -59 726 -61 734 -61 744 c 0
 -61 750 -60 756 -59 762 c 2
 -31 895 l 1
 32 881 l 1
 -10 683 l 1
 -24 670 l 1
 -429 733 l 1
 -413 807 -351 885 -242 885 c 0
 -196 885 -166 868 -148 845 c 1
 -150 855 -151 864 -149 872 c 2
-137 732 m 1
 -148 779 -177 827 -244 827 c 0
 -280 827 -313 807 -332 766 c 1
 -137 732 l 1
EndSplineSet
PickledDataWithLists: "(dp0
Vcom.fontlab.hintData
p1
(dp2
Vvhints
p3
(lp4
(dp5
Vposition
p6
L-554L
sVwidth
p7
L10L
sa(dp8
g6
L-476L
sg7
L10L
sa(dp9
g6
L-280L
sg7
L10L
sa(dp10
g6
L-218L
sg7
L10L
sa(dp11
g6
L-159L
sg7
L10L
sa(dp12
g6
L-148L
sg7
L10L
sa(dp13
g6
L-100L
sg7
L10L
sasVhhints
p14
(lp15
(dp16
g6
L698L
sg7
L10L
sa(dp17
g6
L861L
sg7
L10L
sa(dp18
g6
L909L
sg7
L10L
sa(dp19
g6
L922L
sg7
L10L
sa(dp20
g6
L932L
sg7
L10L
sass."
Substitution2: "Thai.sl subtable" uni0E37.sl
EndChar

StartChar: uni0E38
Encoding: 3640 3640 186
GlifName: uni0E_38
Width: 0
VWidth: 0
GlyphClass: 4
Flags: HMW
AnchorPoint: "ThaiExtendedBelow.mkmk" -60 0 mark 0
AnchorPoint: "ThaiExtendedBelow.mkmk" -120 -280 basemark 0
AnchorPoint: "ThaiBelow.mark" -60 0 mark 0
LayerCount: 2
Fore
SplineSet
-264 -113 m 0
 -286 -113 -303 -128 -308 -150 c 0
 -309 -154 -309 -157 -309 -160 c 0
 -309 -176 -298 -187 -280 -187 c 0
 -258 -187 -241 -172 -236 -150 c 0
 -235 -146 -235 -143 -235 -140 c 0
 -235 -124 -246 -113 -264 -113 c 0
-295 -305 m 1
 -284 -255 l 2
 -282 -247 -279 -239 -275 -233 c 1
 -280 -234 -285 -234 -290 -234 c 0
 -335 -234 -364 -210 -364 -170 c 0
 -364 -164 -363 -157 -362 -150 c 0
 -351 -99 -306 -66 -254 -66 c 0
 -209 -66 -180 -90 -180 -130 c 0
 -180 -136 -181 -143 -182 -150 c 0
 -191 -191 -201 -205 -208 -239 c 2
 -222 -305 l 1
 -295 -305 l 1
EndSplineSet
PickledDataWithLists: "(dp0
Vcom.fontlab.hintData
p1
(dp2
Vvhints
p3
(lp4
(dp5
Vposition
p6
L-285L
sVwidth
p7
L10L
sa(dp8
g6
L-185L
sg7
L10L
sa(dp9
g6
L-104L
sg7
L10L
sasVhhints
p10
(lp11
(dp12
g6
L-322L
sg7
L10L
sa(dp13
g6
L-172L
sg7
L10L
sa(dp14
g6
L-98L
sg7
L10L
sass."
Substitution2: "ThaiBV.sd subtable" uni0E38.sd
EndChar

StartChar: uni0E39
Encoding: 3641 3641 187
GlifName: uni0E_39
Width: 0
VWidth: 0
GlyphClass: 4
Flags: HMW
AnchorPoint: "ThaiExtendedBelow.mkmk" -60 0 mark 0
AnchorPoint: "ThaiExtendedBelow.mkmk" -120 -280 basemark 0
AnchorPoint: "ThaiBelow.mark" -90 0 mark 0
LayerCount: 2
Fore
SplineSet
-424 -113 m 0
 -446 -113 -463 -128 -468 -150 c 0
 -469 -154 -469 -157 -469 -160 c 0
 -469 -176 -458 -187 -440 -187 c 0
 -418 -187 -401 -172 -396 -150 c 0
 -395 -146 -395 -143 -395 -140 c 0
 -395 -124 -406 -113 -424 -113 c 0
-342 -150 m 0
 -350 -187 -363 -198 -367 -219 c 2
 -370 -235 l 2
 -370 -237 -371 -238 -371 -240 c 0
 -371 -252 -360 -261 -328 -261 c 0
 -292 -261 -279 -249 -276 -235 c 2
 -242 -73 l 1
 -169 -73 l 1
 -204 -241 l 2
 -214 -286 -269 -310 -339 -310 c 0
 -402 -310 -444 -296 -444 -260 c 0
 -444 -256 -444 -252 -443 -248 c 2
 -440 -234 l 2
 -443 -234 -447 -234 -450 -234 c 0
 -495 -234 -524 -210 -524 -170 c 0
 -524 -164 -523 -157 -522 -150 c 0
 -511 -99 -466 -66 -414 -66 c 0
 -369 -66 -340 -90 -340 -130 c 0
 -340 -136 -341 -143 -342 -150 c 0
EndSplineSet
PickledDataWithLists: "(dp0
Vcom.fontlab.hintData
p1
(dp2
Vvhints
p3
(lp4
(dp5
Vposition
p6
L-401L
sVwidth
p7
L10L
sa(dp8
g6
L-115L
sg7
L10L
sasVhhints
p9
(lp10
(dp11
g6
L-331L
sg7
L10L
sa(dp12
g6
L-267L
sg7
L21L
sa(dp13
g6
L-154L
sg7
L10L
sa(dp14
g6
L-106L
sg7
L10L
sass."
Substitution2: "ThaiBV.sd subtable" uni0E39.sd
EndChar

StartChar: uni0E3A
Encoding: 3642 3642 188
GlifName: uni0E_3A_
Width: 0
VWidth: 0
GlyphClass: 4
Flags: HMW
AnchorPoint: "ThaiExtendedBelow.mkmk" -60 0 mark 0
AnchorPoint: "ThaiExtendedBelow.mkmk" -105 -210 basemark 0
AnchorPoint: "ThaiBelow.mark" -60 0 mark 0
LayerCount: 2
Fore
SplineSet
-226 -76 m 0
 -187 -76 -160 -97 -160 -133 c 0
 -160 -138 -161 -144 -162 -150 c 0
 -172 -196 -213 -224 -258 -224 c 0
 -297 -224 -324 -203 -324 -167 c 0
 -324 -162 -323 -156 -322 -150 c 0
 -312 -104 -271 -76 -226 -76 c 0
EndSplineSet
PickledDataWithLists: "(dp0
Vcom.fontlab.hintData
p1
(dp2
Vvhints
p3
(lp4
(dp5
Vposition
p6
L-229L
sVwidth
p7
L10L
sa(dp8
g6
L-81L
sg7
L10L
sasVhhints
p9
(lp10
(dp11
g6
L-231L
sg7
L10L
sa(dp12
g6
L-110L
sg7
L10L
sass."
Substitution2: "ThaiBV.sd subtable" uni0E3A.sd
EndChar

StartChar: uni0E3F
Encoding: 3647 3647 189
GlifName: uni0E_3F_
Width: 720
VWidth: 0
GlyphClass: 2
Flags: HMW
LayerCount: 2
Fore
SplineSet
366 450 m 1
 432 457 504 499 522 583 c 0
 524 593 525 602 525 611 c 0
 525 676 467 704 376 704 c 0
 342 704 312 702 292 701 c 1
 238 447 l 1
 273 449 318 450 366 450 c 1
502 433 m 1
 590 408 643 354 643 272 c 0
 643 257 641 242 638 226 c 0
 609 90 480 6 315 -7 c 1
 290 -120 l 1
 204 -120 l 1
 228 -9 l 1
 125 -8 46 -1 30 0 c 1
 196 780 l 1
 212 781 295 789 398 789 c 1
 421 900 l 1
 507 900 l 1
 482 783 l 1
 578 766 645 715 645 631 c 0
 645 619 644 606 641 593 c 0
 624 514 568 463 502 433 c 1
160 81 m 1
 188 79 226 77 272 77 c 0
 391 77 496 115 520 226 c 0
 523 238 524 250 524 260 c 0
 524 344 441 371 335 371 c 0
 289 371 249 369 221 367 c 1
 160 81 l 1
EndSplineSet
PickledDataWithLists: "(dp0
Vcom.fontlab.hintData
p1
(dp2
Vvhints
p3
(lp4
(dp5
Vposition
p6
L26L
sVwidth
p7
L10L
sa(dp8
g6
L116L
sg7
L10L
sa(dp9
g6
L121L
sg7
L10L
sa(dp10
g6
L223L
sg7
L10L
sa(dp11
g6
L343L
sg7
L10L
sa(dp12
g6
L350L
sg7
L10L
sa(dp13
g6
L407L
sg7
L10L
sa(dp14
g6
L412L
sg7
L10L
sa(dp15
g6
L537L
sg7
L10L
sa(dp16
g6
L636L
sg7
L10L
sa(dp17
g6
L735L
sg7
L10L
sasVhhints
p18
(lp19
(dp20
g6
L-127L
sg7
L10L
sa(dp21
g6
L-22L
sg7
L10L
sa(dp22
g6
L49L
sg7
L10L
sa(dp23
g6
L395L
sg7
L10L
sa(dp24
g6
L634L
sg7
L10L
sa(dp25
g6
L661L
sg7
L10L
sa(dp26
g6
L916L
sg7
L10L
sass."
EndChar

